<svg xmlns="http://www.w3.org/2000/svg" fill="white" viewBox="0 0 48 48">
<path d="M24,1.8C11.7,1.8,1.8,11.7,1.8,24S11.7,46.2,24,46.2S46.2,36.3,46.2,24S36.3,1.8,24,1.8z M41.7,14.5
	c-0.4,0.7-0.5,1.5-0.2,2.2c0.3,0.7,0.9,1.2,1.6,1.4c-0.5,0.6-0.7,1.3-0.6,2.1c0.2,0.8,0.7,1.4,1.3,1.7c-0.6,0.5-1,1.2-1,2
	c0,0.8,0.4,1.5,1,2c-0.7,0.3-1.2,1-1.3,1.7c-0.2,0.8,0.1,1.6,0.6,2.1c-0.7,0.2-1.3,0.7-1.7,1.4c-0.3,0.7-0.2,1.5,0.1,2.2
	c-0.7,0.1-1.5,0.4-1.9,1.1c-0.4,0.7-0.5,1.5-0.3,2.2c-0.7-0.1-1.5,0.1-2.1,0.7c-0.6,0.6-0.8,1.3-0.7,2.1c-0.7-0.2-1.5-0.2-2.2,0.3
	c-0.7,0.4-1,1.1-1.1,1.9c-0.6-0.4-1.4-0.4-2.2-0.1c-0.7,0.3-1.2,0.9-1.4,1.7c-0.6-0.5-1.3-0.7-2.1-0.6c-0.8,0.2-1.4,0.7-1.7,1.3
	c-0.5-0.6-1.2-1-2-1s-1.5,0.4-2,1c-0.3-0.7-1-1.2-1.7-1.3c-0.8-0.2-1.6,0.1-2.1,0.6c-0.2-0.7-0.7-1.3-1.4-1.7s-1.5-0.2-2.2,0.1
	c-0.1-0.7-0.4-1.5-1.1-1.9c-0.7-0.4-1.5-0.5-2.2-0.3c0.1-0.7-0.1-1.5-0.7-2.1c-0.6-0.6-1.3-0.8-2.1-0.7c0.2-0.7,0.2-1.5-0.3-2.2
	c-0.4-0.7-1.1-1-1.9-1.1c0.4-0.6,0.4-1.4,0.1-2.2c-0.3-0.7-0.9-1.2-1.7-1.4c0.5-0.6,0.7-1.3,0.6-2.1C5.2,26.9,4.7,26.3,4,26
	c0.6-0.5,1-1.2,1-2c0-0.8-0.4-1.5-1-2c0.7-0.3,1.2-1,1.3-1.7c0.2-0.8-0.1-1.6-0.6-2.1c0.7-0.2,1.3-0.7,1.6-1.4
	c0.3-0.7,0.2-1.5-0.1-2.2c0.7-0.1,1.5-0.4,1.9-1.1c0.4-0.7,0.5-1.5,0.3-2.2c0.7,0.1,1.5-0.1,2.1-0.7c0.6-0.6,0.8-1.3,0.7-2.1
	c0.7,0.2,1.5,0.2,2.2-0.3c0.7-0.5,1.1-1.2,1.1-1.9c0.7,0.4,1.5,0.5,2.2,0.2c0.7-0.3,1.2-0.9,1.4-1.7c0.6,0.5,1.3,0.7,2.1,0.6
	S21.7,4.7,22,4c0.5,0.6,1.2,1,2,1s1.5-0.4,2-1c0.3,0.7,1,1.2,1.7,1.3s1.6-0.1,2.1-0.6c0.2,0.7,0.7,1.3,1.4,1.7s1.5,0.2,2.2-0.1
	c0.1,0.7,0.4,1.5,1.1,1.9c0.7,0.4,1.5,0.5,2.2,0.3c-0.1,0.7,0.1,1.5,0.7,2.1c0.6,0.6,1.3,0.8,2.1,0.7c-0.2,0.7-0.2,1.5,0.3,2.2
	C40.2,14.1,41,14.5,41.7,14.5z"/>
<g>
	<path d="M18.1,25H23v4.9C20.5,29.5,18.5,27.5,18.1,25z M25,18.1V23h4.9C29.5,20.5,27.5,18.5,25,18.1z M23,18.1
		c-2.5,0.4-4.5,2.4-4.9,4.9H23V18.1z M25,29.9c2.5-0.4,4.5-2.4,4.9-4.9H25V29.9z M24,16c-4.4,0-8,3.6-8,8s3.6,8,8,8s8-3.6,8-8
		S28.4,16,24,16 M24,14c5.5,0,10,4.5,10,10s-4.5,10-10,10s-10-4.5-10-10S18.5,14,24,14L24,14z"/>
</g>
</svg>
