<svg xmlns="http://www.w3.org/2000/svg" fill="#fff" viewBox="0 0 48 48"><g><circle cx="24" cy="8" r="2"/><path d="M43.8,37.7L27,24.8l6.4-5.8c0.7,0.4,1.5,0.6,2.4,0.6c0.2,0,0.4,0,0.6,0c1.5-0.2,3.1-0.9,4.5-2c1.3-1.1,2.3-2.6,2.7-4.1 c0.4-1.7,0.1-3.3-0.9-4.4c-1-1.1-2.5-1.7-4.2-1.5c-1.5,0.2-3.1,0.9-4.5,2c-1.3,1.1-2.3,2.6-2.7,4.1c-0.3,1.1-0.2,2.2,0.1,3.1 L24,22.4l-7.5-5.8c0.3-0.9,0.4-2,0.1-3.1c-0.4-1.5-1.3-3-2.7-4.1c-1.3-1.1-2.9-1.9-4.5-2C7.8,7.3,6.2,7.9,5.3,9 c-1,1.1-1.3,2.7-0.9,4.4c0.4,1.5,1.3,3,2.7,4.1c1.3,1.1,2.9,1.9,4.5,2c0.2,0,0.4,0,0.6,0c0.9,0,1.7-0.2,2.4-0.6l6.4,5.8L4.2,37.7 L7.9,42L24,27.5L40.1,42L43.8,37.7z M34.3,14.3c0.2-0.9,0.9-1.8,1.7-2.6c0.9-0.7,1.9-1.2,2.8-1.3c0.1,0,0.2,0,0.3,0 c0.4,0,1,0.1,1.4,0.5c0.5,0.5,0.3,1.3,0.2,1.7c-0.2,0.9-0.9,1.8-1.7,2.6c-0.9,0.7-1.9,1.2-2.8,1.3c-0.4,0-1.2,0-1.7-0.5 C34.1,15.5,34.2,14.7,34.3,14.3z M13.5,16c-0.5,0.5-1.2,0.5-1.7,0.5C10.9,16.5,9.9,16,9,15.2c-0.9-0.7-1.5-1.7-1.7-2.6 c-0.1-0.4-0.2-1.2,0.2-1.7c0.4-0.4,0.9-0.5,1.4-0.5c0.1,0,0.2,0,0.3,0c0.9,0.1,1.9,0.6,2.8,1.3c0.9,0.7,1.5,1.7,1.7,2.6 C13.8,14.7,13.9,15.5,13.5,16z"/></g></svg>