<?xml version="1.0" encoding="utf-8"?>
<!-- Generator: Adobe Illustrator 27.4.0, SVG Export Plug-In . SVG Version: 6.00 Build 0)  -->
<svg version="1.1" id="_x2014_ÎÓÈ_x5F_1" xmlns="http://www.w3.org/2000/svg" xmlns:xlink="http://www.w3.org/1999/xlink"
	 x="0px" y="0px" viewBox="0 0 2000 1223.92" style="enable-background:new 0 0 2000 1223.92;" xml:space="preserve">
<style type="text/css">
	.st0{fill:#EEF9FB;}
	.st1{fill:#DAF4F9;}
	.st2{fill:#BBEBF6;}
	.st3{fill:#F5FEFF;}
	.st4{fill:#FFFFFF;}
	.st5{fill:#ACE5F2;}
	.st6{fill:#A0E3F2;}
	.st7{fill:#E6E6E6;}
</style>
<g>
	<g>
		<path class="st0" d="M2000,101.66v-0.38l-4.59-7.96l-53.76-93.05l0.16-0.27h-0.5l0.21,0.37l-58.75,101.73L1823.96,0.29l0.17-0.29
			h-0.5l0.21,0.37l-58.76,101.73L1706.27,0.29l0.17-0.29h-0.51l0.21,0.37l-58.76,101.74L1588.57,0.3l0.17-0.3h-0.5l0.21,0.36
			l-58.77,101.76L1470.88,0.31l0.18-0.31h-0.5l0.2,0.35l-58.77,101.76l-58.8-101.79l0.18-0.32h-0.5l0.2,0.35l-58.78,101.77
			L1235.5,0.33l0.19-0.33h-0.51l0.2,0.35l-58.78,101.77L1117.8,0.33L1118,0h-0.5l0.2,0.34l-58.79,101.78L1000.11,0.34L1000.3,0h-0.5
			l0.19,0.34l-58.79,101.79L882.42,0.34l0.2-0.34h-0.51l0.2,0.33v0.01l-58.8,101.79L764.73,0.35l0.2-0.35h-0.5l0.19,0.32
			l-58.8,101.79L647.04,0.35l0.2-0.35h-0.5l0.18,0.32l-58.8,101.8L529.35,0.36L529.56,0h-0.5l0.18,0.31l-58.8,101.8L411.66,0.36
			L411.87,0H293.68l0.17,0.29L235.04,102.1L176.28,0.37L176.49,0h-0.5l0.17,0.28l-58.82,101.81L58.6,0.37L58.81,0H58.3l0.16,0.28
			L4.71,93.32L0,101.48v0.38L58.56,0.43l58.74,101.74l-0.01,0.02l-21.64,37.47l-37,64.12h-0.26L0,102.71v0.15l58.26,100.92
			l0.18,0.32L0,305.36v0.33l58.55-101.41l58.72,101.7l0.02,0.04L58.53,407.83L0,306.49v0.2l58.46,101.27l-0.13,0.22L0,509.24v0.31
			l58.52-101.37h0.07l58.65,101.59l0.07,0.12L58.56,611.67L0,510.28v101.68h58.39L0,713.13v1.24l58.48,101.31l-0.03,0.06L0,917.02
			v0.21L58.55,815.8l58.79,101.81l-0.19,0.32l-58.53,101.41L0.05,917.94L0,917.85v0.36l58.5,101.33l-0.34,0.59L0,1120.9v1.16
			l58.52,101.36l-0.29,0.5H59l-0.35-0.61l58.66-101.59h0.18l58.72,101.7l-0.29,0.5h0.76l-0.34-0.59v-0.01l58.66-101.6h0.18
			l58.71,101.7l-0.29,0.5h0.75l-0.34-0.58v-0.01l58.67-101.62h0.18l58.71,101.69l-0.29,0.51h0.74l-0.33-0.57l58.67-101.63h0.18
			l58.71,101.68l-0.3,0.51h0.73l-0.32-0.56l58.68-101.63h0.18l58.71,101.68l-0.29,0.51h0.73l-0.32-0.55l58.69-101.65h0.18
			l58.7,101.67l-0.3,0.53h0.73l-0.32-0.55l58.69-101.65h0.19l58.7,101.67l-0.31,0.53h0.73l-0.31-0.54l58.69-101.66h0.18l58.7,101.67
			l-0.31,0.53h0.73l-0.31-0.53l58.7-101.67h0.18l58.69,101.66l-0.31,0.54h0.72l-0.3-0.53l58.7-101.67h0.18l58.69,101.65l-0.32,0.55
			h0.73l-0.31-0.53l58.7-101.67h0.19l58.69,101.64l-0.32,0.56h0.73l-0.3-0.51v-0.01l58.71-101.68h0.19l58.67,101.63l-0.32,0.56h0.74
			l-0.3-0.51l58.71-101.68h0.18l58.68,101.63l-0.33,0.56h0.74l-0.29-0.51l58.71-101.69h0.18l58.67,101.62l-0.33,0.58h0.75
			l-0.29-0.51l58.71-101.69h0.18l58.66,101.6v0.01l-0.34,0.59h118.44l-0.29-0.5l58.41-101.16v-0.4l-58.5,101.4l-58.6-101.54
			l-0.13-0.23l58.52-101.35h0.57l58.15,100.73v-0.15l-58.05-100.58l-0.34-0.58v-0.01L2000,918.42v-0.36l-58.5,101.3l-58.53-101.42
			l-0.19-0.32l58.79-101.82L2000,917.02v-0.19l-58.34-101.09l-0.03-0.06L2000,714.57v-0.31l-58.47,101.25l-58.5-101.36l-0.23-0.4
			l58.77-101.79L2000,713.18v-0.25l-58.28-100.97l-0.08-0.14v-0.01L2000,510.73v-0.26l-58.44,101.2l-58.75-101.79l0.07-0.12
			l58.65-101.59h0.06L2000,509.35v-0.31l-58.22-100.86l-0.13-0.22L2000,306.9v-0.21l-58.42,101.15l-58.77-101.82l0.02-0.04H2000
			v-0.83l-58.33-101.06l0.18-0.31L2000,103.05v-0.17l-58.26,100.89h-0.25l-37.01-64.12l-21.64-37.47l-0.02-0.02l58.74-101.74
			L2000,101.66z M1823.87,0.43l58.75,101.76l0.04,0.07l-58.63,101.51h-0.23l-10.26-17.78l-48.41-83.81l-0.01-0.01L1823.87,0.43z
			 M176.41,815.74l-0.07-0.12l58.58-101.46h0.32l58.61,101.52l-0.04,0.07l-58.69,101.68L176.41,815.74z M234.83,917.94
			l-58.53,101.41l-58.56-101.41H234.83z M411.71,611.79l58.75-101.76l58.75,101.76l-0.1,0.17H411.81L411.71,611.79L411.71,611.79z
			 M411.62,611.64l-58.76-101.75l0.07-0.13l58.65-101.59h0.07l58.65,101.59l0.05,0.1L411.62,611.64z M470.55,509.89l0.07-0.13
			l58.65-101.59h0.07l58.65,101.59l0.05,0.09l-58.74,101.77L470.55,509.89z M529.31,611.96l58.75,101.76l-0.25,0.43l-58.47,101.31
			l-58.51-101.31l-0.26-0.45L529.31,611.96z M529.5,611.96l-0.1-0.17v-0.01l58.75-101.75l58.75,101.75l-0.1,0.17l-58.63,101.58
			L529.5,611.96z M588.31,509.76l58.65-101.59h0.06l58.65,101.59H588.31z M646.99,611.96l58.75,101.76l-0.25,0.43l-58.47,101.31
			l-15.59-27.01l-42.91-74.3l-0.26-0.46L646.99,611.96z M647.2,611.96l-0.1-0.18l58.74-101.74l58.74,101.74l-0.1,0.17l-58.62,101.57
			L647.2,611.96z M999.95,611.76l-0.12,0.2l-58.61,101.56l-36.99-64.09l-21.64-37.47l-0.11-0.19l58.73-101.73L999.95,611.76z
			 M941.32,509.86l0.05-0.1l58.65-101.59h0.07l58.65,101.59l0.05,0.1l-53.85,93.23l-4.9,8.48l-4.9-8.48L941.32,509.86z
			 M941.11,509.85l-27.09,46.89l-31.65,54.84l-58.75-101.71l0.06-0.1h117.37L941.11,509.85L941.11,509.85z M882.15,611.96
			l-58.61,101.55l-10.24-17.75l-48.41-83.81H882.15z M823.09,510.4L764.69,611.6l-58.75-101.73l0.06-0.11l58.65-101.59h0.07
			l58.65,101.59l0.05,0.09L823.09,510.4z M764.68,611.96l58.75,101.76l-0.26,0.44L764.7,815.47l-42.34-73.36l-16.14-27.95
			l-0.28-0.48L764.68,611.96z M823.37,714.16h0.31l58.6,101.49l-0.05,0.09H764.86l-0.07-0.13L823.37,714.16z M823.91,714.16h116.94
			l-58.47,101.31L823.91,714.16z M999.9,815.74l-58.68,101.68l-58.68-101.68H999.9z M941.59,714.16l-0.26-0.46l58.74-101.74
			l58.74,101.74l-0.26,0.46l-58.47,101.32L941.59,714.16z M1000.28,611.96l-0.12-0.2l58.74-101.73l58.73,101.73l-0.11,0.19H1000.28z
			 M1059.01,509.85L1059.01,509.85l0.06-0.09l58.65-101.59h0.06l58.65,101.59l0.06,0.1l-58.74,101.71l-31.65-54.84L1059.01,509.85z
			 M1117.74,611.96L1117.74,611.96l58.74,101.72v0.01l-0.27,0.47l-58.47,101.31l-58.47-101.31l-0.26-0.46L1117.74,611.96z
			 M1117.96,611.96l-0.12-0.19v-0.01l58.74-101.73l58.74,101.74l-0.1,0.18l-48.41,83.81l-10.24,17.75L1117.96,611.96z
			 M1176.7,509.84l0.04-0.08h117.37l0.06,0.11l-58.75,101.73l-58.41-101.19L1176.7,509.84z M1235.43,611.96l58.74,101.73v0.01
			l-0.28,0.46h-116.94l-0.26-0.45L1235.43,611.96z M1235.64,611.96h117.28l-58.66,101.57L1235.64,611.96z M1294.39,509.85l0.05-0.09
			l58.65-101.59h0.07l58.65,101.59l0.07,0.12l-58.75,101.73L1294.39,509.85z M1411.59,714.16l-42.91,74.3l-15.59,27.01
			l-58.47-101.31H1411.59z M1353.32,611.96l-0.1-0.17l58.75-101.75l58.74,101.75l-0.1,0.17l-58.67,101.58L1353.32,611.96z
			 M1412.07,509.86l0.06-0.1l58.65-101.59h0.06l58.65,101.59l0.07,0.13l-58.76,101.73L1412.07,509.86z M1470.81,611.96l58.74,101.74
			l-0.27,0.46l-58.51,101.31l-58.47-101.31l-0.24-0.43L1470.81,611.96z M1471,611.96l-0.09-0.16v-0.01l58.74-101.75l58.75,101.75
			v0.01l-0.09,0.16H1471z M1529.75,509.87l0.06-0.1l58.65-101.59h0.07l58.65,101.59l0.07,0.13l-58.76,101.75L1529.75,509.87z
			 M1588.49,611.96l58.74,101.75l-0.26,0.45h-116.99l-0.25-0.43L1588.49,611.96z M1588.68,611.96l-0.09-0.16l58.75-101.76
			l58.75,101.76l-0.1,0.16l-58.67,101.6L1588.68,611.96z M1647.43,509.87l0.06-0.11l58.65-101.59h0.07l58.65,101.59l0.08,0.13
			l-58.77,101.76L1647.43,509.87z M1706.19,611.96l58.74,101.75l-0.26,0.45h-117.01l-0.24-0.42L1706.19,611.96z M1706.36,611.96
			l-0.09-0.15l58.75-101.77l58.75,101.76v0.01l-0.09,0.15l-58.69,101.62L1706.36,611.96z M1706.42,408.18l-0.13-0.23l58.74-101.75
			l58.77,101.79l-0.11,0.19l-58.65,101.56L1706.42,408.18z M1764.96,306.08l-58.75,101.73l-58.75-101.8l0.02-0.03l58.72-101.7
			l58.72,101.7L1764.96,306.08L1764.96,306.08z M1706.11,407.99l-0.11,0.19l-58.65,101.55l-58.61-101.55l-0.14-0.24l58.74-101.74
			L1706.11,407.99z M1529.78,305.98l58.72-101.7l58.72,101.7H1529.78z M1588.42,407.98L1588.42,407.98l-0.12,0.2l-58.64,101.54
			l-58.61-101.54l-0.14-0.24l58.74-101.73L1588.42,407.98z M1470.83,407.79l-21.02-36.41l-37.75-65.36l0.02-0.04l58.72-101.7
			l58.72,101.7l0.06,0.09L1470.83,407.79z M1470.72,407.98l-0.11,0.2l-58.64,101.52l-53.09-91.98l-5.51-9.54l-0.15-0.25
			l58.73-101.73L1470.72,407.98z M1353.15,407.78l-58.77-101.76l0.02-0.04h117.44l0.06,0.09L1353.15,407.78z M1353.04,407.97
			l-0.12,0.21l-58.63,101.51l-26.33-45.63l-32.28-55.88l-0.14-0.24l58.74-101.74L1353.04,407.97z M1235.45,407.79l-58.77-101.75
			l0.04-0.06l58.72-101.7l58.72,101.7l0.04,0.08L1235.45,407.79z M1235.34,407.96l-0.12,0.21l-58.62,101.49l-58.63-101.49
			l-0.13-0.23l58.74-101.74L1235.34,407.96z M1059.03,305.98l58.72-101.7l58.72,101.7H1059.03z M1117.65,407.96l-0.12,0.21
			l-58.63,101.49l-58.62-101.49l-0.13-0.23l58.74-101.75L1117.65,407.96z M1000.06,407.79L941.3,306.05l0.04-0.07l58.72-101.7
			l58.72,101.7l0.04,0.07L1000.06,407.79z M999.96,407.95l-0.13,0.23l-58.62,101.49l-58.63-101.49l-0.12-0.22v-0.01l58.75-101.76
			L999.96,407.95z M882.36,407.79l-58.75-101.73l0.04-0.07l58.72-101.71l58.72,101.71l0.04,0.06L882.36,407.79z M882.13,408.18
			l-58.62,101.5l-58.62-101.5H882.13z M764.66,407.78l-58.75-101.71l0.05-0.09l58.72-101.7l58.72,101.7l0.03,0.06L764.66,407.78z
			 M764.58,407.93l-0.14,0.24l-32.28,55.88l-26.33,45.62L647.2,408.18l-0.12-0.21l58.76-101.77L764.58,407.93z M588.28,305.98
			l58.72-101.7l58.72,101.7H588.28z M646.88,407.93l-0.15,0.25H529.5l-0.12-0.2l58.76-101.77L646.88,407.93z M550.29,371.37
			l-21.01,36.41l-58.74-101.72l0.05-0.09l58.72-101.7l58.72,101.7l0.02,0.04L550.29,371.37z M529.2,407.93l-0.15,0.25l-58.6,101.54
			l-58.64-101.54l-0.11-0.2l58.77-101.79L529.2,407.93z M459.36,325.04l-47.77,82.77l-58.75-101.72l0.06-0.1l58.72-101.7
			l58.72,101.7l0.01,0.02L459.36,325.04z M411.37,408.18l-58.61,101.55l-58.65-101.55H411.37z M352.45,714.16l-58.49,101.33
			l-58.52-101.33H352.45z M235.1,713.58l-58.69-101.62l-0.09-0.15l58.75-101.76l58.75,101.77l-0.09,0.15L235.1,713.58z
			 M235.17,509.9l0.08-0.13l58.65-101.59h0.07l58.65,101.59l0.06,0.11l-58.75,101.78L235.17,509.9z M293.91,407.82l-58.75-101.73
			l0.06-0.1l58.72-101.7l58.72,101.7l0.02,0.02L293.91,407.82z M293.83,407.94L293.83,407.94l-0.14,0.24l-58.62,101.56
			l-58.65-101.56l-0.1-0.18l58.77-101.79L293.83,407.94z M176.21,407.83l-58.75-101.74l0.07-0.11l58.72-101.7l58.72,101.7l0.02,0.04
			L176.21,407.83z M234.93,509.76l0.07,0.12l-58.75,101.77L117.48,509.9l0.08-0.14H234.93z M235.01,713.74l-0.24,0.42H117.75
			l-0.26-0.43l58.75-101.76L235.01,713.74z M293.93,815.8l58.78,101.81l-0.2,0.34l-58.53,101.41l-26.27-45.53l-32.27-55.88
			l-0.24-0.41L293.93,815.8z M294.11,611.96l-0.1-0.16l58.75-101.76l58.75,101.76l-0.09,0.16l-58.64,101.6L294.11,611.96z
			 M411.62,611.96l58.76,101.77l-0.24,0.43l-58.48,101.32l-58.52-101.32l-0.26-0.45L411.62,611.96z M411.62,815.8l58.77,101.8
			l-0.19,0.34H353.13l-0.24-0.42L411.62,815.8z M411.8,815.74l-0.07-0.13l58.58-101.46h0.32l58.61,101.51l-0.05,0.08H411.8z
			 M587.88,917.94l-58.54,101.43L470.8,917.94H587.88z M540.5,834.8l-11-19.06h117.37l-58.69,101.68L540.5,834.8z M646.99,815.8
			l58.77,101.79l-0.2,0.35l-58.54,101.43l-58.54-101.43l-0.23-0.4L646.99,815.8z M647.18,815.74l-0.07-0.13l58.57-101.45H706
			l58.6,101.49l-0.05,0.09H647.18z M764.68,815.8l58.77,101.78l-0.21,0.36H706.16l-0.23-0.39L764.68,815.8z M823.4,917.94h0.26
			l58.64,101.57l-0.36,0.62h-116.8l-0.37-0.64L823.4,917.94z M823.84,917.94l-0.22-0.38l58.75-101.76l58.76,101.78l-0.21,0.36
			l-58.54,101.43L823.84,917.94z M941.08,917.94h0.25l58.64,101.57l-0.36,0.62h-116.8l-0.37-0.64L941.08,917.94z M941.52,917.94
			l-0.22-0.37v-0.01l58.76-101.76l58.75,101.77l-0.21,0.37H941.52z M1000.22,815.74l-0.07-0.11l58.59-101.48h0.32l58.58,101.47
			l-0.07,0.12l-58.68,101.68L1000.22,815.74z M1117.74,815.8l58.75,101.76v0.01l-0.22,0.38H1059.2l-0.21-0.37L1117.74,815.8z
			 M1117.89,815.74l-0.06-0.1l58.6-101.49h0.32l58.58,101.46l-0.07,0.13H1117.89z M1235.44,815.8l58.74,101.75l-0.23,0.39h-117.07
			l-0.21-0.36L1235.44,815.8z M1235.57,815.74h117.36l-58.67,101.68L1235.57,815.74z M1411.63,917.94l-58.53,101.43l-58.54-101.43
			H1411.63z M1353.25,815.74l-0.05-0.08l58.6-101.51h0.32l58.57,101.44v0.01l-0.08,0.13l-11,19.06l-47.68,82.62L1353.25,815.74z
			 M1529.31,917.94l-58.53,101.43l-58.54-101.43H1529.31z M1470.93,815.74l-0.04-0.08l58.6-101.51h0.32l58.57,101.45l-0.07,0.13
			l-37.77,65.39l-20.93,36.27L1470.93,815.74z M1588.49,815.8l58.73,101.72l-0.25,0.42l-5.51,9.54l-53.02,91.88l-58.53-101.42
			l-0.2-0.34L1588.49,815.8z M1588.61,815.74l-0.04-0.07l58.61-101.51h0.31l58.58,101.46l-0.07,0.12l-58.71,101.66L1588.61,815.74z
			 M1706.18,815.8l58.74,101.73l-0.23,0.4l-32.28,55.88l-26.28,45.54l-58.53-101.42l-0.19-0.33L1706.18,815.8z M1706.29,815.74
			l-0.04-0.07l58.61-101.52h0.32l58.58,101.47l-0.07,0.12l-58.72,101.68L1706.29,815.74z M1882.38,917.94l-58.56,101.41
			l-58.53-101.41H1882.38z M1765.34,714.16l-0.24-0.41l58.77-101.79l58.75,101.76l-0.25,0.44l-58.53,101.35L1765.34,714.16z
			 M1823.87,611.66l-58.75-101.78l0.07-0.12l58.65-101.59h0.07l58.65,101.59l0.08,0.13v0.01L1823.87,611.66z M1823.9,407.82
			l-58.77-101.81l0.02-0.03l58.72-101.7l58.72,101.7l0.07,0.11L1823.9,407.82z M1823.58,203.78h-117.12l58.56-101.42L1823.58,203.78
			z M1706.18,0.44l58.75,101.76l0.04,0.08l-58.63,101.51h-0.24l-58.68-101.59L1706.18,0.44z M1705.9,203.78l0.23,0.39l-58.75,101.71
			l-15.7-27.2l-43.08-74.59l0.18-0.32l58.56-101.43L1705.9,203.78z M1529.75,102.2l58.75-101.76l58.75,101.76l0.04,0.07
			l-58.63,101.52h-0.25l-58.67-101.57L1529.75,102.2z M1588.21,203.78l0.22,0.39l-58.74,101.72l-58.79-101.78l0.2-0.33l58.56-101.43
			L1588.21,203.78z M1412.05,102.2l58.75-101.76l58.75,101.76l0.04,0.07l-58.63,101.52h-0.26l-58.67-101.57L1412.05,102.2z
			 M1470.52,203.78l0.22,0.38v0.01l-58.75,101.72l-58.79-101.77l0.2-0.34H1470.52z M1294.37,102.2l58.75-101.76l58.75,101.76
			l0.04,0.06l-58.64,101.52h-0.26l-58.66-101.56L1294.37,102.2z M1352.83,203.78l0.22,0.38l-58.75,101.73l-58.78-101.76l0.2-0.35
			l58.56-101.42L1352.83,203.78z M1176.68,102.2l58.75-101.76l58.75,101.76l0.04,0.06l-58.64,101.52h-0.26l-58.66-101.55
			L1176.68,102.2z M1235.15,203.78l0.21,0.37l-58.76,101.74l-58.78-101.76l0.21-0.35l58.56-101.43L1235.15,203.78z M1058.99,102.2
			h117.51l0.03,0.05l-58.64,101.54h-0.26l-58.66-101.55L1058.99,102.2z M1117.46,203.78l0.21,0.37L1058.9,305.9l-58.77-101.76
			l0.21-0.36H1117.46z M941.28,102.24l0.02-0.04l58.75-101.76l58.75,101.76l0.02,0.05l-58.64,101.54h-0.27L941.28,102.24
			L941.28,102.24z M941.21,102.36l58.56,101.43H882.65L941.21,102.36z M882.37,0.44l58.75,101.76h-117.5L882.37,0.44z
			 M823.53,102.36l58.56,101.43l0.2,0.35l-58.77,101.76l-58.76-101.74l0.21-0.37L823.53,102.36z M764.68,0.43l58.75,101.76h-117.5
			L764.68,0.43z M705.84,102.36l58.56,101.43l0.2,0.34l-58.78,101.76l-58.75-101.73l0.22-0.38L705.84,102.36z M588.24,102.2h117.51
			l0.01,0.02L647.1,203.78h-0.26L588.2,102.26L588.24,102.2z M588.15,102.35l58.56,101.43l0.2,0.34l-58.78,101.77l-58.75-101.73
			l0.22-0.38L588.15,102.35z M470.55,102.2L529.31,0.43l58.75,101.76l0.01,0.02L529.4,203.78h-0.25l-58.63-101.52L470.55,102.2z
			 M470.46,102.36l58.55,101.42H411.9L470.46,102.36z M352.87,102.2L411.62,0.44l58.75,101.76l0.01,0.01L411.7,203.78h-0.24
			l-58.63-101.52L352.87,102.2z M411.33,203.78l0.18,0.32l-43.09,74.59l-15.7,27.2l-58.74-101.71l0.23-0.4l58.56-101.43
			L411.33,203.78z M293.93,0.43l58.75,101.76H235.18L293.93,0.43z M235.08,102.36l58.56,101.43H176.53L235.08,102.36z M117.48,102.2
			L176.24,0.43l58.75,101.75l-0.01,0.01l-48.41,83.81l-10.26,17.78h-0.24l-58.63-101.51L117.48,102.2z M58.61,204.18l0.23-0.4
			h117.12l0.18,0.31l-58.77,101.82L58.61,204.18z M58.73,408.18l-0.1-0.18l58.77-101.8l58.74,101.75l-0.13,0.23l-58.63,101.57
			L58.73,408.18z M176.07,611.96l-58.66,101.63L58.72,611.96H176.07z M0.05,714.16h117.04l-58.5,101.36L0.05,714.16z M58.72,815.74
			l-0.06-0.11l58.58-101.48h0.32l58.61,101.52l-0.04,0.06l-58.69,101.68L58.72,815.74z M58.61,1223.25L0.04,1121.72h117.18
			L58.61,1223.25z M117.46,1121.3l-31.61-54.79l-26.78-46.37h116.78L117.46,1121.3z M176.29,1223.26l-58.59-101.54h117.2
			L176.29,1223.26z M235.14,1121.31l-58.36-101.14l-0.02-0.03l-0.4-0.69l58.6-101.51h0.25l58.66,101.6l-0.34,0.59L235.14,1121.31z
			 M352.58,1121.72l-58.61,101.55l-58.6-101.55l-0.19-0.33l58.46-101.25h0.57l58.51,101.34L352.58,1121.72z M352.82,1121.32
			l-58.39-101.18l-0.39-0.68l58.61-101.52h0.26l58.66,101.6l-0.35,0.6L352.82,1121.32z M411.65,1223.28l-58.6-101.55h117.21
			L411.65,1223.28z M470.5,1121.32l-58.39-101.19l-0.39-0.67l58.61-101.52h0.25l58.66,101.6l-0.34,0.6L470.5,1121.32z
			 M529.33,1223.28l-58.61-101.56h117.22L529.33,1223.28z M529.78,1020.14l-0.38-0.66l58.62-101.54h0.26l58.65,101.59l-0.35,0.61
			l-58.4,101.19L529.78,1020.14z M705.63,1121.72l-58.62,101.57l-58.61-101.57l-0.17-0.3l58.47-101.29h0.58l58.5,101.33
			L705.63,1121.72z M647.46,1020.14l-0.37-0.65l58.63-101.55h0.25l58.65,101.58l-0.36,0.61l-58.4,101.19L647.46,1020.14z
			 M823.31,1121.72l-58.62,101.57l-58.61-101.57l-0.16-0.29l58.48-101.3h0.57l58.5,101.32L823.31,1121.72z M940.99,1121.72
			l-58.62,101.57l-58.61-101.57l-0.17-0.29l58.48-101.3h0.58l58.5,101.31L940.99,1121.72z M1058.67,1121.72l-58.61,101.57
			l-58.61-101.57l-0.16-0.28l58.49-101.3h0.57l58.49,101.31L1058.67,1121.72z M1000.5,1020.14l-0.37-0.62v-0.01l58.64-101.57h0.25
			l58.64,101.56l-0.37,0.64l-58.4,101.19L1000.5,1020.14z M1176.35,1121.72l-58.61,101.57l-58.61-101.57l-0.16-0.27l58.5-101.32
			h0.57l58.49,101.3L1176.35,1121.72z M1176.58,1121.33l-58.4-101.19l-0.36-0.62l58.64-101.58h0.26l58.63,101.55v0.01l-0.37,0.64
			L1176.58,1121.33z M1235.42,1223.28l-58.61-101.56h117.23L1235.42,1223.28z M1235.86,1020.14h116.79l-58.39,101.19
			L1235.86,1020.14z M1411.71,1121.72l-58.61,101.56l-58.61-101.56l-0.15-0.26l58.5-101.32h0.58l58.47,101.28L1411.71,1121.72z
			 M1411.94,1121.32l-58.4-101.19h116.79L1411.94,1121.32z M1470.78,1223.28l-58.61-101.55h117.21L1470.78,1223.28z
			 M1471.22,1020.14H1588l-58.39,101.19L1471.22,1020.14z M1647.06,1121.72l-58.6,101.56l-58.62-101.56l-0.14-0.25l58.51-101.34
			h0.57l58.47,101.27L1647.06,1121.72z M1588.9,1020.14h116.79l-58.39,101.18L1588.9,1020.14z M1764.74,1121.72l-58.6,101.55
			l-58.61-101.55l-0.14-0.25l58.51-101.34h0.57l58.46,101.25L1764.74,1121.72z M1706.58,1020.14h116.77l-0.02,0.03l-58.36,101.14
			L1706.58,1020.14z M1882.41,1121.72l-58.59,101.54l-58.61-101.54l-0.14-0.25l58.51-101.34h0.57l58.45,101.24L1882.41,1121.72z
			 M1882.84,917.94l58.61,101.51l-0.4,0.69l-26.78,46.37l-31.62,54.79l-58.39-101.16l-0.34-0.59l58.67-101.61H1882.84z
			 M1882.88,714.16l58.58,101.48l-0.06,0.11l-58.73,101.69l-58.69-101.69l-0.04-0.06l58.61-101.52H1882.88z M1941.39,611.96
			l-58.69,101.63l-58.66-101.63H1941.39z M1941.48,408l-0.1,0.18l-58.66,101.57l-58.62-101.57l-0.13-0.23l58.74-101.74L1941.48,408z
			 M1941.28,203.78l0.23,0.4l-58.75,101.73l-58.77-101.82l0.17-0.3l58.56-101.43L1941.28,203.78z"/>
		<polygon class="st0" points="1764.93,102.2 1647.43,102.2 1706.18,0.44 		"/>
		<polygon class="st1" points="117.29,102.18 117.28,102.2 0,102.2 0,101.86 58.56,0.43 		"/>
		<polygon class="st0" points="529.23,0.31 470.43,102.11 411.66,0.36 411.87,0 529.06,0 		"/>
		<polygon class="st0" points="2000,101.66 2000,102.2 1882.83,102.2 1882.82,102.17 1941.56,0.43 		"/>
		<polygon class="st0" points="1235.38,0.35 1176.6,102.12 1117.8,0.33 1118,0 1235.18,0 		"/>
		<polygon class="st1" points="882.31,0.33 882.31,0.34 823.51,102.12 764.73,0.35 764.93,0 882.12,0 		"/>
		<polygon class="st2" points="1117.69,0.34 1058.9,102.12 1000.11,0.34 1000.3,0 1117.49,0 		"/>
		<polygon class="st2" points="941.12,102.2 823.62,102.2 882.37,0.44 		"/>
		<polygon class="st3" points="1000,0.34 941.21,102.12 882.42,0.34 882.62,0 999.81,0 		"/>
		<polygon class="st4" points="1058.81,102.2 941.3,102.2 1000.06,0.43 		"/>
		<polygon class="st1" points="646.93,0.32 588.12,102.12 529.35,0.36 529.56,0 646.74,0 		"/>
		<polygon class="st5" points="588.06,102.2 470.55,102.2 529.31,0.43 		"/>
		<polygon class="st2" points="764.62,0.32 705.82,102.12 647.04,0.35 647.24,0 764.43,0 		"/>
		<polygon class="st4" points="823.43,102.2 705.93,102.2 764.68,0.43 		"/>
		<polygon class="st1" points="1470.74,204.16 1470.74,204.17 1411.99,305.89 1353.21,204.12 1353.4,203.78 1470.52,203.78 		"/>
		<polygon class="st1" points="1411.87,102.2 1294.37,102.2 1353.12,0.43 		"/>
		<polygon class="st1" points="1647.25,102.2 1529.75,102.2 1588.49,0.43 		"/>
		<polygon class="st1" points="1882.63,102.2 1765.14,102.2 1765.13,102.19 1823.87,0.43 		"/>
		<polygon class="st1" points="2000,0 2000,101.28 1995.41,93.32 1941.65,0.27 1941.81,0 		"/>
		<polygon class="st1" points="1529.56,102.2 1412.05,102.2 1470.81,0.43 		"/>
		<polygon class="st2" points="1823.83,0.37 1765.07,102.1 1706.27,0.29 1706.44,0 1823.62,0 		"/>
		<polygon class="st3" points="1294.18,102.2 1176.68,102.2 1235.43,0.44 		"/>
		<polygon class="st2" points="1588.45,0.36 1529.68,102.12 1470.88,0.31 1471.05,0 1588.24,0 		"/>
		<polygon class="st4" points="1706.14,0.37 1647.38,102.11 1588.57,0.3 1588.74,0 1705.93,0 		"/>
		<polygon class="st5" points="1353.07,0.35 1294.29,102.12 1235.5,0.33 1235.69,0 1352.87,0 		"/>
		<polygon class="st3" points="1470.76,0.35 1411.99,102.12 1353.19,0.32 1353.37,0 1470.56,0 		"/>
		<polygon class="st2" points="1941.52,0.37 1882.77,102.09 1823.96,0.29 1824.12,0 1941.31,0 		"/>
		<polygon class="st0" points="293.85,0.29 235.04,102.1 176.28,0.37 176.49,0 293.68,0 		"/>
		<polygon class="st1" points="58.46,0.28 4.71,93.32 0,101.48 0,0 58.3,0 		"/>
		<polygon class="st5" points="176.16,0.28 117.34,102.09 58.6,0.37 58.81,0 175.99,0 		"/>
		<polygon class="st1" points="646.88,407.93 646.73,408.18 529.5,408.18 529.39,407.98 588.15,306.2 		"/>
		<polygon class="st1" points="470.36,102.2 352.87,102.2 411.62,0.44 		"/>
		<polygon class="st4" points="882.08,203.78 764.97,203.78 823.53,102.36 		"/>
		<polygon class="st1" points="1058.84,102.25 1000.19,203.78 999.92,203.78 941.28,102.25 941.28,102.24 941.3,102.2 
			1058.81,102.2 		"/>
		<polygon class="st0" points="1529.6,102.26 1470.97,203.78 1470.71,203.78 1412.04,102.22 1412.05,102.2 1529.56,102.2 		"/>
		<polygon class="st3" points="1647.29,102.26 1588.66,203.78 1588.41,203.78 1529.74,102.21 1529.75,102.2 1647.25,102.2 		"/>
		<polygon class="st4" points="1588.21,203.78 1471.1,203.78 1529.65,102.36 		"/>
		<polygon class="st0" points="1176.53,102.25 1117.88,203.78 1117.62,203.78 1058.97,102.23 1058.99,102.2 1176.5,102.2 		"/>
		<polygon class="st1" points="1294.21,102.26 1235.58,203.78 1235.32,203.78 1176.66,102.23 1176.68,102.2 1294.18,102.2 		"/>
		<polygon class="st5" points="1235.15,203.78 1118.03,203.78 1176.59,102.36 		"/>
		<polygon class="st4" points="1352.83,203.78 1235.72,203.78 1294.28,102.36 		"/>
		<polygon class="st2" points="1411.91,102.26 1353.27,203.78 1353.01,203.78 1294.36,102.23 1294.37,102.2 1411.87,102.2 		"/>
		<polygon class="st0" points="1823.58,203.78 1706.47,203.78 1765.03,102.36 		"/>
		<polygon class="st4" points="1882.67,102.27 1824.04,203.78 1823.81,203.78 1813.55,186.01 1765.14,102.2 1882.63,102.2 		"/>
		<polygon class="st1" points="1705.9,203.78 1588.78,203.78 1647.34,102.36 		"/>
		<polygon class="st2" points="1764.98,102.28 1706.35,203.78 1706.11,203.78 1647.43,102.2 1764.93,102.2 		"/>
		<polygon class="st4" points="117.28,102.2 95.64,139.67 58.63,203.78 58.38,203.78 0,102.71 0,102.2 		"/>
		<polygon class="st0" points="293.65,203.78 176.53,203.78 235.08,102.36 		"/>
		<polygon class="st0" points="470.38,102.21 411.7,203.78 411.46,203.78 352.83,102.26 352.87,102.2 470.36,102.2 		"/>
		<polygon class="st2" points="352.68,102.2 235.18,102.2 293.93,0.43 		"/>
		<polygon class="st2" points="588.02,305.98 470.58,305.98 529.3,204.28 		"/>
		<polygon class="st4" points="234.99,102.19 234.98,102.2 117.48,102.2 176.24,0.43 		"/>
		<polygon class="st2" points="234.98,102.2 186.57,186.01 176.31,203.78 176.07,203.78 117.44,102.27 117.48,102.2 		"/>
		<polygon class="st4" points="411.33,203.78 294.22,203.78 352.78,102.36 		"/>
		<polygon class="st1" points="764.4,203.78 647.28,203.78 705.84,102.36 		"/>
		<polygon class="st1" points="588.07,102.22 529.4,203.78 529.15,203.78 470.52,102.26 470.55,102.2 588.06,102.2 		"/>
		<polygon class="st2" points="529.01,203.78 411.9,203.78 470.46,102.36 		"/>
		<polygon class="st3" points="705.76,102.22 647.1,203.78 646.84,203.78 588.2,102.26 588.24,102.2 705.75,102.2 		"/>
		<polygon class="st4" points="646.71,203.78 529.59,203.78 588.15,102.35 		"/>
		<polygon class="st2" points="999.77,203.78 882.65,203.78 941.21,102.36 		"/>
		<polygon class="st0" points="941.09,305.98 823.65,305.98 882.37,204.27 		"/>
		<polygon class="st0" points="1764.9,305.98 1647.47,305.98 1706.19,204.28 		"/>
		<polygon class="st1" points="1941.28,203.78 1824.15,203.78 1882.71,102.35 		"/>
		<polygon class="st1" points="2000,103.05 2000,203.78 1941.85,203.78 		"/>
		<polygon class="st5" points="2000,102.2 2000,102.89 1941.74,203.78 1941.48,203.78 1904.48,139.67 1882.83,102.2 		"/>
		<polygon class="st3" points="1941.5,204.18 1882.75,305.91 1823.98,204.08 1824.15,203.78 1941.28,203.78 		"/>
		<polygon class="st5" points="1882.58,305.98 1765.15,305.98 1823.87,204.28 		"/>
		<polygon class="st2" points="2000,203.78 2000,305.15 1941.67,204.09 1941.85,203.78 		"/>
		<polygon class="st0" points="1529.53,305.98 1412.09,305.98 1470.81,204.28 		"/>
		<polygon class="st1" points="1706.12,204.17 1647.38,305.89 1631.68,278.69 1588.6,204.11 1588.78,203.78 1705.9,203.78 		"/>
		<polygon class="st2" points="1588.43,204.17 1529.69,305.89 1470.9,204.11 1471.1,203.78 1588.21,203.78 		"/>
		<polygon class="st3" points="1647.21,305.98 1529.78,305.98 1588.49,204.28 		"/>
		<polygon class="st0" points="1117.67,204.15 1058.9,305.9 1000.13,204.14 1000.34,203.78 1117.46,203.78 		"/>
		<polygon class="st5" points="1058.78,305.98 941.33,305.98 1000.06,204.28 		"/>
		<polygon class="st0" points="1235.36,204.16 1176.6,305.89 1117.82,204.14 1118.03,203.78 1235.15,203.78 		"/>
		<polygon class="st5" points="1176.46,305.98 1059.03,305.98 1117.74,204.28 		"/>
		<polygon class="st0" points="1294.15,305.98 1176.72,305.98 1235.44,204.28 		"/>
		<polygon class="st5" points="1353.05,204.16 1294.29,305.89 1235.52,204.13 1235.72,203.78 1352.83,203.78 		"/>
		<polygon class="st2" points="823.4,305.98 705.96,305.98 764.68,204.28 		"/>
		<polygon class="st4" points="882.29,204.13 823.51,305.89 764.75,204.16 764.97,203.78 882.08,203.78 		"/>
		<polygon class="st1" points="234.96,305.98 117.53,305.98 176.24,204.28 		"/>
		<polygon class="st2" points="117.27,305.98 0,305.98 0,305.69 58.55,204.28 		"/>
		<polygon class="st0" points="58.26,203.78 0,203.78 0,102.86 		"/>
		<polygon class="st4" points="58.45,204.1 0,305.36 0,203.78 58.26,203.78 		"/>
		<polygon class="st4" points="176.13,204.09 117.36,305.91 58.61,204.18 58.83,203.78 175.96,203.78 		"/>
		<polygon class="st0" points="646.9,204.12 588.12,305.89 529.37,204.16 529.59,203.78 646.71,203.78 		"/>
		<polygon class="st1" points="470.34,305.98 352.9,305.98 411.62,204.28 		"/>
		<polygon class="st2" points="411.52,204.1 368.43,278.69 352.73,305.89 293.99,204.18 294.22,203.78 411.33,203.78 		"/>
		<polygon class="st1" points="705.71,305.98 588.28,305.98 646.99,204.28 		"/>
		<polygon class="st5" points="764.59,204.12 705.82,305.89 647.06,204.16 647.28,203.78 764.4,203.78 		"/>
		<polygon class="st2" points="470.36,509.86 411.62,611.64 352.86,509.89 352.93,509.76 470.3,509.76 		"/>
		<polygon class="st5" points="352.65,305.98 235.21,305.98 293.93,204.28 		"/>
		<polygon class="st0" points="234.98,306.02 176.21,407.83 117.46,306.09 117.53,305.98 234.96,305.98 		"/>
		<polygon class="st0" points="588.04,306.02 550.29,371.37 529.28,407.79 470.54,306.07 470.58,305.98 588.02,305.98 		"/>
		<polygon class="st1" points="352.67,306 293.91,407.82 235.15,306.08 235.21,305.98 352.65,305.98 		"/>
		<polygon class="st4" points="470.35,306 459.36,325.04 411.59,407.8 352.84,306.08 352.9,305.98 470.34,305.98 		"/>
		<polygon class="st2" points="529.2,407.93 529.05,408.18 411.81,408.18 411.7,407.98 470.46,306.19 		"/>
		<polygon class="st4" points="823.43,306.03 764.66,407.78 705.91,306.07 705.96,305.98 823.4,305.98 		"/>
		<polygon class="st0" points="1882.65,306.09 1823.9,407.82 1765.13,306.01 1765.15,305.98 1882.58,305.98 		"/>
		<polygon class="st2" points="1764.96,306.08 1764.96,306.08 1706.2,407.81 1647.45,306.01 1647.47,305.98 1764.9,305.98 		"/>
		<polygon class="st1" points="2000,305.98 2000,306.68 1941.58,407.83 1882.82,306.02 1882.84,305.98 		"/>
		<polygon class="st1" points="999.96,407.95 999.83,408.18 882.59,408.18 882.46,407.96 882.46,407.95 941.21,306.19 		"/>
		<polygon class="st1" points="999.83,408.18 941.21,509.67 882.59,408.18 		"/>
		<polygon class="st2" points="1058.82,306.05 1000.06,407.79 941.3,306.05 941.33,305.98 1058.78,305.98 		"/>
		<polygon class="st4" points="1117.65,407.96 1117.53,408.18 1000.28,408.18 1000.16,407.95 1058.9,306.2 		"/>
		<polygon class="st0" points="1117.53,408.18 1058.9,509.67 1000.28,408.18 		"/>
		<polygon class="st2" points="941.13,306.04 882.36,407.79 823.61,306.05 823.65,305.98 941.09,305.98 		"/>
		<polygon class="st0" points="1470.72,407.98 1470.61,408.18 1353.38,408.18 1353.23,407.93 1411.96,306.2 		"/>
		<polygon class="st1" points="1588.42,407.98 1588.42,407.99 1588.3,408.18 1471.06,408.18 1470.92,407.93 1529.65,306.2 		"/>
		<polygon class="st1" points="1470.61,408.18 1411.97,509.7 1358.89,417.72 1353.38,408.18 		"/>
		<polygon class="st5" points="1529.58,306.07 1470.83,407.79 1449.82,371.37 1412.07,306.02 1412.09,305.98 1529.53,305.98 		"/>
		<polygon class="st1" points="1411.89,306.07 1353.15,407.78 1294.37,306.02 1294.4,305.98 1411.83,305.98 		"/>
		<polygon class="st1" points="1235.34,407.96 1235.22,408.18 1117.98,408.18 1117.85,407.94 1176.59,306.2 		"/>
		<polygon class="st2" points="1294.2,306.06 1235.45,407.79 1176.68,306.03 1176.72,305.98 1294.15,305.98 		"/>
		<polygon class="st4" points="1353.04,407.97 1352.91,408.18 1235.67,408.18 1235.53,407.93 1294.28,306.19 		"/>
		<polygon class="st0" points="764.58,407.93 764.44,408.18 647.2,408.18 647.08,407.97 705.84,306.2 		"/>
		<polygon class="st2" points="764.44,408.18 732.15,464.06 705.82,509.68 647.2,408.18 		"/>
		<polygon class="st1" points="117.29,306.02 58.53,407.83 0,306.49 0,305.98 117.27,305.98 		"/>
		<polygon class="st4" points="293.83,407.94 293.83,407.94 293.69,408.18 176.42,408.18 176.32,407.99 235.08,306.2 		"/>
		<polygon class="st0" points="1235.22,408.18 1176.6,509.67 1117.98,408.18 		"/>
		<polygon class="st2" points="1176.42,509.76 1059.06,509.76 1117.71,408.18 1117.77,408.18 		"/>
		<polygon class="st2" points="1058.75,509.76 941.37,509.76 1000.02,408.18 1000.09,408.18 		"/>
		<polygon class="st2" points="882.13,408.18 823.51,509.68 764.89,408.18 		"/>
		<polygon class="st4" points="823.37,509.76 705.99,509.76 764.64,408.18 764.72,408.18 		"/>
		<polygon class="st1" points="2000,306.9 2000,408.18 1941.78,408.18 1941.66,407.96 		"/>
		<polygon class="st4" points="2000,408.18 2000,509.03 1941.78,408.18 		"/>
		<polygon class="st4" points="1941.48,408 1941.39,408.18 1824.1,408.18 1823.97,407.94 1882.71,306.2 		"/>
		<polygon class="st4" points="1823.8,407.99 1823.69,408.18 1706.42,408.18 1706.28,407.94 1765.03,306.19 		"/>
		<polygon class="st1" points="1823.69,408.18 1765.04,509.74 1706.42,408.18 		"/>
		<polygon class="st2" points="1941.39,408.18 1882.72,509.74 1824.1,408.18 		"/>
		<polygon class="st4" points="1882.56,509.76 1765.19,509.76 1823.83,408.18 1823.91,408.18 		"/>
		<polygon class="st4" points="1647.25,509.89 1588.49,611.64 1529.75,509.87 1529.81,509.76 1647.18,509.76 		"/>
		<polygon class="st5" points="1647.18,509.76 1529.81,509.76 1588.46,408.18 1588.53,408.18 		"/>
		<polygon class="st2" points="1588.3,408.18 1529.67,509.71 1471.06,408.18 		"/>
		<polygon class="st4" points="1529.49,509.76 1412.13,509.76 1470.78,408.18 1470.84,408.18 		"/>
		<polygon class="st3" points="1706.11,407.99 1706,408.18 1588.74,408.18 1588.6,407.94 1647.34,306.2 		"/>
		<polygon class="st4" points="1706,408.18 1647.35,509.73 1588.74,408.18 		"/>
		<polygon class="st2" points="1411.8,509.76 1294.44,509.76 1353.09,408.18 1353.15,408.18 		"/>
		<polygon class="st4" points="1764.87,509.76 1647.49,509.76 1706.14,408.18 1706.22,408.18 		"/>
		<polygon class="st4" points="1352.91,408.18 1294.29,509.69 1267.96,464.06 1235.67,408.18 		"/>
		<polygon class="st0" points="411.37,408.18 352.76,509.73 294.11,408.18 		"/>
		<polygon class="st1" points="293.69,408.18 235.07,509.74 176.42,408.18 		"/>
		<polygon class="st5" points="352.62,509.76 235.25,509.76 293.9,408.18 293.97,408.18 		"/>
		<polygon class="st5" points="176.14,407.95 176.01,408.18 58.73,408.18 58.63,408 117.4,306.2 		"/>
		<polygon class="st1" points="176.01,408.18 117.39,509.74 58.73,408.18 		"/>
		<polygon class="st2" points="117.24,509.76 0,509.76 0,509.54 58.52,408.18 58.59,408.18 		"/>
		<polygon class="st4" points="58.33,408.18 0,509.24 0,408.18 		"/>
		<polygon class="st0" points="58.46,407.96 58.33,408.18 0,408.18 0,306.69 		"/>
		<polygon class="st1" points="705.67,509.76 588.31,509.76 646.96,408.18 647.02,408.18 		"/>
		<polygon class="st1" points="470.3,509.76 352.93,509.76 411.58,408.18 411.65,408.18 		"/>
		<polygon class="st4" points="529.05,408.18 470.45,509.71 411.81,408.18 		"/>
		<polygon class="st5" points="587.99,509.76 470.62,509.76 529.27,408.18 529.34,408.18 		"/>
		<polygon class="st4" points="1411.87,509.88 1353.12,611.61 1294.39,509.85 1294.44,509.76 1411.8,509.76 		"/>
		<polygon class="st0" points="1470.71,611.79 1470.61,611.96 1353.32,611.96 1353.22,611.79 1411.97,510.04 		"/>
		<polygon class="st0" points="1588.4,611.79 1588.4,611.8 1588.3,611.96 1471,611.96 1470.91,611.8 1470.91,611.79 1529.65,510.04 
					"/>
		<polygon class="st0" points="1764.95,509.9 1706.18,611.65 1647.43,509.87 1647.49,509.76 1764.87,509.76 		"/>
		<polygon class="st2" points="1529.56,509.89 1470.8,611.62 1412.07,509.86 1412.13,509.76 1529.49,509.76 		"/>
		<polygon class="st1" points="1882.64,509.9 1882.64,509.9 1823.87,611.66 1765.12,509.88 1765.19,509.76 1882.56,509.76 		"/>
		<polygon class="st1" points="2000,509.35 2000,509.76 1882.88,509.76 1941.53,408.18 1941.59,408.18 		"/>
		<polygon class="st2" points="2000,509.76 2000,510.47 1941.56,611.67 1882.8,509.88 1882.88,509.76 		"/>
		<polygon class="st4" points="1294.18,509.87 1235.43,611.6 1177.02,510.4 1176.7,509.84 1176.74,509.76 1294.12,509.76 		"/>
		<polygon class="st5" points="411.43,611.96 352.79,713.56 294.11,611.96 		"/>
		<polygon class="st0" points="411.52,611.8 411.43,611.96 294.11,611.96 294.02,611.8 352.77,510.04 		"/>
		<polygon class="st6" points="1117.63,611.77 1117.52,611.96 1000.28,611.96 1000.17,611.76 1058.9,510.04 		"/>
		<polygon class="st0" points="823.42,509.85 823.09,510.4 764.69,611.6 705.93,509.87 705.99,509.76 823.37,509.76 		"/>
		<polygon class="st0" points="941.11,509.85 941.11,509.85 914.02,556.74 882.37,611.58 823.62,509.87 823.69,509.76 
			941.05,509.76 		"/>
		<polygon class="st1" points="999.95,611.76 999.83,611.96 882.59,611.96 882.48,611.77 941.21,510.04 		"/>
		<polygon class="st2" points="1235.33,611.78 1235.22,611.96 1117.96,611.96 1117.85,611.77 1117.85,611.76 1176.58,510.04 		"/>
		<polygon class="st1" points="1176.49,509.87 1117.74,611.58 1086.09,556.74 1059.01,509.85 1059.01,509.85 1059.06,509.76 
			1176.42,509.76 		"/>
		<polygon class="st4" points="1058.8,509.86 1004.95,603.09 1000.06,611.57 995.16,603.09 941.32,509.86 941.37,509.76 
			1058.75,509.76 		"/>
		<polygon class="st4" points="234.99,509.88 176.24,611.66 117.48,509.9 117.56,509.76 234.93,509.76 		"/>
		<polygon class="st1" points="117.31,509.88 58.56,611.67 0,510.28 0,509.76 117.24,509.76 		"/>
		<polygon class="st5" points="293.84,611.81 293.75,611.96 176.42,611.96 176.33,611.81 235.08,510.04 		"/>
		<polygon class="st2" points="764.58,611.79 764.48,611.96 647.2,611.96 647.1,611.78 705.83,510.04 		"/>
		<polygon class="st1" points="529.21,611.79 529.11,611.96 411.81,611.96 411.71,611.8 411.71,611.79 470.46,510.04 		"/>
		<polygon class="st2" points="588.04,509.85 529.31,611.63 470.55,509.89 470.62,509.76 587.99,509.76 		"/>
		<polygon class="st4" points="646.9,611.79 646.79,611.96 529.5,611.96 529.4,611.79 529.4,611.79 588.15,510.04 		"/>
		<polygon class="st4" points="352.68,509.87 293.93,611.65 235.17,509.9 235.25,509.76 352.62,509.76 		"/>
		<polygon class="st2" points="1706.09,611.8 1706,611.96 1588.68,611.96 1588.59,611.8 1647.34,510.04 		"/>
		<polygon class="st4" points="1706,611.96 1647.32,713.56 1588.68,611.96 		"/>
		<polygon class="st2" points="2000,611.96 2000,712.93 1941.72,611.96 		"/>
		<polygon class="st1" points="2000,510.73 2000,611.96 1941.72,611.96 1941.64,611.82 1941.64,611.81 		"/>
		<polygon class="st1" points="293.75,611.96 235.1,713.58 176.42,611.96 		"/>
		<polygon class="st1" points="58.39,611.96 0,713.13 0,611.96 		"/>
		<polygon class="st2" points="176.07,611.96 117.42,713.59 58.72,611.96 		"/>
		<polygon class="st4" points="235.01,713.74 234.77,714.16 117.75,714.16 117.49,713.72 176.24,611.96 		"/>
		<polygon class="st0" points="1941.39,611.96 1882.7,713.59 1824.04,611.96 		"/>
		<polygon class="st4" points="293.82,815.74 235.13,917.42 176.41,815.74 		"/>
		<polygon class="st4" points="2000,713.18 2000,714.16 1883.02,714.16 1882.79,713.75 1941.56,611.96 		"/>
		<polygon class="st1" points="2000,714.16 2000,714.26 1941.53,815.52 1883.02,714.16 		"/>
		<polygon class="st1" points="2000,815.74 2000,916.83 1941.66,815.74 		"/>
		<polygon class="st2" points="1941.46,815.63 1941.4,815.74 1823.98,815.74 1823.94,815.68 1882.55,714.16 1882.88,714.16 		"/>
		<polygon class="st5" points="2000,714.57 2000,815.74 1941.66,815.74 1941.62,815.69 		"/>
		<polygon class="st4" points="470.38,713.73 470.13,714.16 353.13,714.16 352.87,713.71 411.62,611.96 		"/>
		<polygon class="st5" points="470.13,714.16 411.65,815.48 353.13,714.16 		"/>
		<polygon class="st0" points="117.09,714.16 58.59,815.52 0.05,714.16 		"/>
		<polygon class="st1" points="176.13,815.74 117.44,917.43 58.72,815.74 		"/>
		<polygon class="st1" points="352.45,714.16 293.96,815.49 235.44,714.16 		"/>
		<polygon class="st2" points="293.86,815.67 293.82,815.74 176.41,815.74 176.34,815.62 234.93,714.16 235.25,714.16 		"/>
		<polygon class="st0" points="58.45,815.74 0,917.02 0,815.74 		"/>
		<polygon class="st2" points="58.48,815.69 58.45,815.74 0,815.74 0,714.38 		"/>
		<polygon class="st4" points="176.17,815.68 176.13,815.74 58.72,815.74 58.66,815.63 117.24,714.16 117.56,714.16 		"/>
		<polygon class="st4" points="2000,917.02 2000,917.94 1882.96,917.94 1882.77,917.61 1941.56,815.8 		"/>
		<polygon class="st2" points="2000,917.94 2000,918.06 1941.5,1019.36 1882.96,917.94 		"/>
		<polygon class="st0" points="1470.61,815.74 1459.61,834.8 1411.93,917.42 1353.25,815.74 		"/>
		<polygon class="st1" points="1529.31,917.94 1470.77,1019.37 1412.23,917.94 		"/>
		<polygon class="st5" points="1588,1020.14 1529.62,1121.32 1471.22,1020.14 		"/>
		<polygon class="st1" points="1352.91,611.96 1294.26,713.53 1235.64,611.96 		"/>
		<polygon class="st5" points="1411.59,714.16 1368.68,788.45 1353.09,815.47 1294.62,714.16 		"/>
		<polygon class="st4" points="1470.7,815.6 1470.7,815.61 1470.61,815.74 1353.25,815.74 1353.2,815.66 1411.8,714.16 
			1412.13,714.16 		"/>
		<polygon class="st1" points="1352.65,1020.14 1294.26,1121.32 1235.86,1020.14 		"/>
		<polygon class="st5" points="1411.63,917.94 1353.1,1019.37 1294.56,917.94 		"/>
		<polygon class="st5" points="1823.78,611.8 1823.78,611.81 1823.69,611.96 1706.36,611.96 1706.27,611.81 1765.03,510.04 		"/>
		<polygon class="st0" points="1823.69,611.96 1765.01,713.58 1706.36,611.96 		"/>
		<polygon class="st4" points="1882.62,713.72 1882.37,714.16 1765.34,714.16 1765.11,713.75 1823.87,611.96 		"/>
		<polygon class="st0" points="1941.4,815.74 1882.67,917.43 1823.98,815.74 		"/>
		<polygon class="st4" points="2000,1020.14 2000,1120.72 1941.95,1020.14 		"/>
		<polygon class="st0" points="2000,918.42 2000,1020.14 1941.95,1020.14 1941.61,1019.55 1941.61,1019.55 		"/>
		<polygon class="st1" points="1941.45,1019.45 1941.05,1020.14 1824.26,1020.14 1823.92,1019.55 1882.59,917.94 1882.84,917.94 		
			"/>
		<polygon class="st5" points="1764.93,713.71 1764.67,714.16 1647.66,714.16 1647.42,713.74 1706.19,611.96 		"/>
		<polygon class="st5" points="1823.77,815.63 1823.7,815.74 1706.29,815.74 1706.25,815.67 1764.87,714.16 1765.19,714.16 		"/>
		<polygon class="st4" points="1882.37,714.16 1823.84,815.51 1765.34,714.16 		"/>
		<polygon class="st0" points="1117.3,1020.14 1058.9,1121.33 1000.5,1020.14 		"/>
		<polygon class="st4" points="1117.66,1019.5 1117.3,1020.14 1000.5,1020.14 1000.13,1019.51 1000.13,1019.51 1058.78,917.94 
			1059.03,917.94 		"/>
		<polygon class="st1" points="1058.81,917.57 1058.6,917.94 941.52,917.94 941.3,917.57 941.3,917.56 1000.06,815.8 		"/>
		<polygon class="st0" points="58.16,1020.14 0,1120.9 0,1020.14 		"/>
		<polygon class="st4" points="175.85,1020.14 117.46,1121.3 85.85,1066.5 59.07,1020.14 		"/>
		<polygon class="st5" points="352.71,917.6 352.51,917.94 235.43,917.94 235.19,917.53 293.93,815.8 		"/>
		<polygon class="st4" points="293.88,1019.54 293.53,1020.14 176.76,1020.14 176.36,1019.45 234.96,917.94 235.21,917.94 		"/>
		<polygon class="st2" points="646.58,1020.14 588.18,1121.32 529.78,1020.14 		"/>
		<polygon class="st1" points="646.93,1019.53 646.58,1020.14 529.78,1020.14 529.4,1019.48 588.02,917.94 588.28,917.94 		"/>
		<polygon class="st5" points="117.34,917.61 117.15,917.94 0.05,917.94 0,917.85 0,917.22 58.55,815.8 		"/>
		<polygon class="st0" points="117.15,917.94 58.61,1019.35 0.05,917.94 		"/>
		<polygon class="st2" points="234.83,917.94 176.31,1019.35 117.74,917.94 		"/>
		<polygon class="st2" points="58.5,1019.55 58.16,1020.14 0,1020.14 0,918.21 		"/>
		<polygon class="st4" points="1647.25,1121.4 1647.06,1121.72 1529.84,1121.72 1529.7,1121.48 1588.21,1020.14 1588.78,1020.14 		
			"/>
		<polygon class="st4" points="1647.06,1121.72 1588.46,1223.28 1529.84,1121.72 		"/>
		<polygon class="st1" points="941.15,1121.45 940.99,1121.72 823.76,1121.72 823.59,1121.43 882.08,1020.14 882.65,1020.14 		"/>
		<polygon class="st0" points="705.75,713.72 705.5,714.16 588.52,714.16 588.26,713.7 646.99,611.96 		"/>
		<polygon class="st4" points="705.76,917.59 705.56,917.94 588.48,917.94 588.25,917.54 646.99,815.8 		"/>
		<polygon class="st0" points="764.26,1020.14 705.86,1121.33 647.46,1020.14 		"/>
		<polygon class="st4" points="823.46,1121.45 823.31,1121.72 706.08,1121.72 705.91,1121.43 764.4,1020.14 764.97,1020.14 		"/>
		<polygon class="st0" points="1000,1223.39 999.69,1223.92 882.74,1223.92 882.43,1223.38 941.12,1121.72 941.3,1121.72 		"/>
		<polygon class="st0" points="1234.98,1020.14 1176.58,1121.33 1118.18,1020.14 		"/>
		<polygon class="st0" points="1235.37,1223.37 1235.05,1223.92 1118.1,1223.92 1117.8,1223.39 1176.5,1121.72 1176.68,1121.72 		
			"/>
		<polygon class="st0" points="1470.73,1223.36 1470.41,1223.92 1353.46,1223.92 1353.17,1223.41 1353.17,1223.4 1411.87,1121.72 
			1412.06,1121.72 		"/>
		<polygon class="st0" points="1470.33,1020.14 1411.94,1121.32 1353.54,1020.14 		"/>
		<polygon class="st4" points="1411.88,1121.42 1411.71,1121.72 1294.48,1121.72 1294.33,1121.46 1352.83,1020.14 1353.41,1020.14 
					"/>
		<polygon class="st0" points="1411.71,1121.72 1353.1,1223.28 1294.48,1121.72 		"/>
		<polygon class="st2" points="1353.05,1223.36 1352.73,1223.92 1235.78,1223.92 1235.48,1223.39 1294.18,1121.72 1294.37,1121.72 
					"/>
		<polygon class="st4" points="1294.03,1121.72 1235.42,1223.28 1176.8,1121.72 		"/>
		<polygon class="st0" points="1705.68,1020.14 1647.3,1121.32 1588.9,1020.14 		"/>
		<polygon class="st4" points="1470.61,611.96 1411.94,713.54 1353.32,611.96 		"/>
		<polygon class="st1" points="1706.1,1223.34 1705.77,1223.92 1588.83,1223.92 1588.54,1223.41 1647.25,1121.72 1647.43,1121.72 		
			"/>
		<polygon class="st0" points="1882.41,1121.72 1823.82,1223.26 1765.22,1121.72 		"/>
		<polygon class="st0" points="1529.28,714.16 1470.77,815.47 1412.3,714.16 		"/>
		<polygon class="st0" points="1647.22,917.52 1646.98,917.94 1529.92,917.94 1529.72,917.6 1588.49,815.8 		"/>
		<polygon class="st0" points="1706,815.74 1647.29,917.41 1588.61,815.74 		"/>
		<polygon class="st1" points="1823.7,815.74 1764.98,917.43 1706.29,815.74 		"/>
		<polygon class="st1" points="1706.08,815.62 1706,815.74 1588.61,815.74 1588.57,815.67 1647.18,714.16 1647.49,714.16 		"/>
		<polygon class="st1" points="1647.24,713.71 1646.98,714.16 1529.98,714.16 1529.73,713.73 1588.49,611.96 		"/>
		<polygon class="st2" points="2000,1121.72 2000,1121.86 1941.5,1223.26 1882.9,1121.72 		"/>
		<polygon class="st1" points="2000,1120.87 2000,1121.72 1882.9,1121.72 1882.76,1121.49 1941.28,1020.14 1941.85,1020.14 		"/>
		<polygon class="st1" points="1882.61,1121.38 1882.41,1121.72 1765.22,1121.72 1765.07,1121.48 1823.58,1020.14 1824.15,1020.14 
					"/>
		<polygon class="st1" points="2000,1122.26 2000,1223.92 1941.88,1223.92 1941.59,1223.42 		"/>
		<polygon class="st1" points="1764.68,917.94 1732.41,973.82 1706.13,1019.36 1647.6,917.94 		"/>
		<polygon class="st2" points="1646.98,917.94 1641.47,927.48 1588.45,1019.36 1529.92,917.94 		"/>
		<polygon class="st2" points="1764.92,917.54 1764.68,917.94 1647.6,917.94 1647.41,917.61 1706.18,815.8 		"/>
		<polygon class="st2" points="1529.55,713.7 1529.28,714.16 1412.3,714.16 1412.05,713.73 1470.81,611.96 		"/>
		<polygon class="st2" points="1823.36,1020.14 1823.34,1020.17 1764.98,1121.31 1706.58,1020.14 		"/>
		<polygon class="st0" points="1941.05,1020.14 1914.27,1066.5 1882.65,1121.3 1824.26,1020.14 		"/>
		<polygon class="st5" points="1588.31,815.74 1550.54,881.14 1529.61,917.41 1470.93,815.74 		"/>
		<polygon class="st4" points="1764.93,1121.39 1764.74,1121.72 1647.53,1121.72 1647.39,1121.48 1705.9,1020.14 1706.47,1020.14 		
			"/>
		<polygon class="st2" points="1764.74,1121.72 1706.14,1223.27 1647.53,1121.72 		"/>
		<polygon class="st4" points="1882.38,917.94 1823.81,1019.35 1765.28,917.94 		"/>
		<polygon class="st4" points="1823.78,1223.33 1823.78,1223.33 1823.44,1223.92 1706.52,1223.92 1706.22,1223.41 1764.93,1121.72 
			1765.12,1121.72 		"/>
		<polygon class="st4" points="1588.38,815.61 1588.31,815.74 1470.93,815.74 1470.89,815.66 1529.49,714.16 1529.81,714.16 		"/>
		<polygon class="st1" points="1588.42,1223.36 1588.09,1223.92 1471.15,1223.92 1470.85,1223.41 1529.56,1121.72 1529.74,1121.72 
					"/>
		<polygon class="st2" points="1529.38,1121.72 1470.78,1223.28 1412.17,1121.72 		"/>
		<polygon class="st4" points="1294.18,917.55 1293.95,917.94 1176.88,917.94 1176.67,917.58 1235.44,815.8 		"/>
		<polygon class="st1" points="1176.5,917.55 1176.5,917.56 1176.28,917.94 1059.2,917.94 1058.98,917.57 1117.74,815.8 		"/>
		<polygon class="st1" points="1235.33,815.61 1235.25,815.74 1117.89,815.74 1117.84,815.64 1176.43,714.16 1176.75,714.16 		"/>
		<polygon class="st1" points="1235.35,1019.49 1235.35,1019.49 1234.98,1020.14 1118.18,1020.14 1117.82,1019.52 1176.46,917.94 
			1176.72,917.94 		"/>
		<polygon class="st4" points="1058.83,1121.45 1058.67,1121.72 941.44,1121.72 941.29,1121.44 999.77,1020.14 1000.34,1020.14 		
			"/>
		<polygon class="st2" points="1058.67,1121.72 1000.06,1223.29 941.44,1121.72 		"/>
		<polygon class="st2" points="1352.93,815.74 1294.26,917.42 1235.57,815.74 		"/>
		<polygon class="st6" points="1294.17,713.69 1294.17,713.69 1293.89,714.16 1176.95,714.16 1176.69,713.71 1235.43,611.96 		"/>
		<polygon class="st5" points="1176.52,1121.43 1176.35,1121.72 1059.12,1121.72 1058.97,1121.45 1117.46,1020.14 1118.03,1020.14 
					"/>
		<polygon class="st4" points="1117.68,1223.38 1117.38,1223.92 1000.43,1223.92 1000.11,1223.39 1058.81,1121.72 1058.99,1121.72 
					"/>
		<polygon class="st4" points="1176.35,1121.72 1117.74,1223.29 1059.12,1121.72 		"/>
		<polygon class="st0" points="940.92,917.94 882.38,1019.37 823.84,917.94 		"/>
		<polygon class="st0" points="940.85,714.16 882.38,815.47 823.91,714.16 		"/>
		<polygon class="st0" points="234.9,1121.72 176.29,1223.26 117.7,1121.72 		"/>
		<polygon class="st0" points="411.56,1019.54 411.21,1020.14 294.43,1020.14 294.04,1019.46 352.65,917.94 352.9,917.94 		"/>
		<polygon class="st0" points="352.51,917.94 293.98,1019.35 267.71,973.82 235.43,917.94 		"/>
		<polygon class="st0" points="352.58,1121.72 293.97,1223.27 235.38,1121.72 		"/>
		<polygon class="st0" points="529.27,1223.41 528.97,1223.92 412.03,1223.92 411.7,1223.35 470.37,1121.72 470.55,1121.72 		"/>
		<polygon class="st4" points="587.88,917.94 529.34,1019.37 470.8,917.94 		"/>
		<polygon class="st0" points="588.06,713.72 587.81,714.16 470.83,714.16 470.57,713.7 529.31,611.96 		"/>
		<polygon class="st1" points="764.48,611.96 705.86,713.53 647.2,611.96 		"/>
		<polygon class="st1" points="705.5,714.16 647.02,815.47 631.43,788.45 588.52,714.16 		"/>
		<polygon class="st1" points="646.87,815.74 588.18,917.42 540.5,834.8 529.5,815.74 		"/>
		<polygon class="st1" points="293.53,1020.14 235.14,1121.31 176.78,1020.17 176.76,1020.14 		"/>
		<polygon class="st1" points="176.21,1223.42 175.91,1223.92 59,1223.92 58.65,1223.31 117.31,1121.72 117.49,1121.72 		"/>
		<polygon class="st1" points="528.9,1020.14 470.5,1121.32 412.11,1020.14 		"/>
		<polygon class="st1" points="529.23,815.66 529.18,815.74 411.8,815.74 411.73,815.61 470.3,714.16 470.62,714.16 		"/>
		<polygon class="st2" points="529.24,1019.54 528.9,1020.14 412.11,1020.14 411.72,1019.46 470.33,917.94 470.58,917.94 		"/>
		<polygon class="st2" points="470.39,917.6 470.2,917.94 353.13,917.94 352.89,917.52 411.62,815.8 		"/>
		<polygon class="st2" points="470.27,1121.72 411.65,1223.28 353.05,1121.72 		"/>
		<polygon class="st5" points="352.73,1121.48 352.58,1121.72 235.38,1121.72 235.19,1121.39 293.65,1020.14 294.22,1020.14 		"/>
		<polygon class="st2" points="293.89,1223.42 293.6,1223.92 176.67,1223.92 176.34,1223.33 176.34,1223.33 235,1121.72 
			235.18,1121.72 		"/>
		<polygon class="st5" points="587.81,714.16 529.34,815.47 470.83,714.16 		"/>
		<polygon class="st4" points="411.21,1020.14 352.82,1121.32 294.43,1020.14 		"/>
		<polygon class="st4" points="646.79,611.96 588.17,713.54 529.5,611.96 		"/>
		<polygon class="st4" points="411.58,1223.41 411.29,1223.92 294.35,1223.92 294.01,1223.34 294.01,1223.34 352.68,1121.72 
			352.87,1121.72 		"/>
		<polygon class="st2" points="117.21,1121.72 58.61,1223.25 0.04,1121.72 		"/>
		<polygon class="st0" points="58.52,1223.42 58.23,1223.92 0,1223.92 0,1122.06 		"/>
		<polygon class="st4" points="823.45,917.58 823.24,917.94 706.16,917.94 705.93,917.55 764.68,815.8 		"/>
		<polygon class="st1" points="823.17,714.16 764.7,815.47 722.37,742.11 706.23,714.16 		"/>
		<polygon class="st1" points="764.61,1019.52 764.26,1020.14 647.46,1020.14 647.09,1019.49 705.71,917.94 705.96,917.94 		"/>
		<polygon class="st1" points="587.95,1121.72 529.33,1223.28 470.73,1121.72 		"/>
		<polygon class="st1" points="1176.47,713.68 1176.47,713.69 1176.2,714.16 1059.27,714.16 1059,713.7 1117.74,611.96 
			1117.74,611.96 		"/>
		<polygon class="st1" points="882.32,1223.39 882.01,1223.92 765.06,1223.92 764.74,1223.37 823.43,1121.72 823.62,1121.72 		"/>
		<polygon class="st1" points="1058.53,714.16 1000.06,815.47 941.59,714.16 		"/>
		<polygon class="st1" points="882.15,611.96 823.54,713.51 813.3,695.77 764.89,611.96 		"/>
		<polygon class="st4" points="705.78,1121.46 705.63,1121.72 588.4,1121.72 588.23,1121.42 646.71,1020.14 647.28,1020.14 		"/>
		<polygon class="st1" points="705.63,1121.72 647.01,1223.29 588.4,1121.72 		"/>
		<polygon class="st2" points="999.9,815.74 941.22,917.42 882.54,815.74 		"/>
		<polygon class="st2" points="764.59,815.65 764.55,815.74 647.18,815.74 647.1,815.61 705.67,714.16 706,714.16 		"/>
		<polygon class="st2" points="999.83,611.96 941.22,713.52 904.23,649.43 882.59,611.96 		"/>
		<polygon class="st2" points="882.3,1019.51 881.94,1020.14 765.13,1020.14 764.77,1019.49 823.4,917.94 823.65,917.94 		"/>
		<polygon class="st5" points="882.27,815.65 882.23,815.74 764.86,815.74 764.79,815.61 823.37,714.16 823.68,714.16 		"/>
		<polygon class="st5" points="705.56,917.94 647.02,1019.37 588.48,917.94 		"/>
		<polygon class="st5" points="646.95,1223.41 646.65,1223.92 529.7,1223.92 529.38,1223.36 588.06,1121.72 588.24,1121.72 		"/>
		<polygon class="st5" points="823.31,1121.72 764.69,1223.29 706.08,1121.72 		"/>
		<polygon class="st4" points="1058.79,713.7 1058.53,714.16 941.59,714.16 941.32,713.7 1000.06,611.96 		"/>
		<polygon class="st4" points="764.63,1223.39 764.33,1223.92 647.38,1223.92 647.06,1223.37 705.75,1121.72 705.93,1121.72 		"/>
		<polygon class="st4" points="941.13,917.58 940.92,917.94 823.84,917.94 823.62,917.56 882.37,815.8 		"/>
		<polygon class="st4" points="823.43,713.72 823.17,714.16 706.23,714.16 705.95,713.68 764.68,611.96 		"/>
		<polygon class="st2" points="1176.2,714.16 1117.74,815.47 1059.27,714.16 		"/>
		<polygon class="st2" points="999.98,1019.51 999.62,1020.14 882.82,1020.14 882.45,1019.49 941.08,917.94 941.33,917.94 		"/>
		<polygon class="st5" points="1117.58,815.74 1058.9,917.42 1000.22,815.74 		"/>
		<polygon class="st4" points="1235.22,611.96 1186.82,695.77 1176.57,713.51 1117.96,611.96 		"/>
		<polygon class="st4" points="1117.65,815.63 1117.58,815.74 1000.22,815.74 1000.15,815.63 1058.74,714.16 1059.06,714.16 		"/>
		<polygon class="st4" points="940.99,1121.72 882.37,1223.29 823.76,1121.72 		"/>
	</g>
	<rect class="st7" width="2000" height="1223.92"/>
</g>
</svg>
