<?xml version="1.0" encoding="utf-8"?>
<!-- Generator: Adobe Illustrator 27.4.1, SVG Export Plug-In . SVG Version: 6.00 Build 0)  -->
<svg version="1.1" id="_x2014_ÎÓÈ_x5F_1" xmlns="http://www.w3.org/2000/svg" xmlns:xlink="http://www.w3.org/1999/xlink"
	 x="0px" y="0px" viewBox="0 0 2000 1223.9" style="enable-background:new 0 0 2000 1223.9;" xml:space="preserve">
<style type="text/css">
	.st0{fill:#8C8C8C;enable-background:new    ;}
	.st1{fill:#666666;enable-background:new    ;}
	.st2{fill:#737373;enable-background:new    ;}
	.st3{fill:#808080;enable-background:new    ;}
	.st4{fill:#999999;enable-background:new    ;}
	.st5{fill:#A6A6A6;enable-background:new    ;}
	.st6{fill:#B3B3B3;enable-background:new    ;}
</style>
<g id="BG">
	<rect class="st0" width="2000" height="1223.9"/>
	<polygon class="st0" points="1764.9,102.2 1647.4,102.2 1706.2,0.4 	"/>
	<polygon class="st0" points="529.2,0.3 470.4,102.1 411.7,0.4 411.9,0 529.1,0 	"/>
	<polygon class="st0" points="2000,101.7 2000,102.2 1882.8,102.2 1882.8,102.2 1941.6,0.4 	"/>
	<polygon class="st0" points="1235.4,0.3 1176.6,102.1 1117.8,0.3 1118,0 1235.2,0 	"/>
	<polygon class="st0" points="293.9,0.3 235,102.1 176.3,0.4 176.5,0 293.7,0 	"/>
	<polygon class="st0" points="1529.6,102.3 1471,203.8 1470.7,203.8 1412,102.2 1412.1,102.2 1529.6,102.2 	"/>
	<polygon class="st0" points="1176.5,102.2 1117.9,203.8 1117.6,203.8 1059,102.2 1059,102.2 1176.5,102.2 	"/>
	<polygon class="st0" points="1823.6,203.8 1706.5,203.8 1765,102.4 	"/>
	<polygon class="st0" points="293.6,203.8 176.5,203.8 235.1,102.4 	"/>
	<polygon class="st0" points="470.4,102.2 411.7,203.8 411.5,203.8 352.8,102.3 352.9,102.2 470.4,102.2 	"/>
	<polygon class="st0" points="941.1,306 823.7,306 882.4,204.3 	"/>
	<polygon class="st0" points="1764.9,306 1647.5,306 1706.2,204.3 	"/>
	<polygon class="st0" points="1529.5,306 1412.1,306 1470.8,204.3 	"/>
	<polygon class="st0" points="1117.7,204.1 1058.9,305.9 1000.1,204.1 1000.3,203.8 1117.5,203.8 	"/>
	<polygon class="st0" points="1235.4,204.2 1176.6,305.9 1117.8,204.1 1118,203.8 1235.2,203.8 	"/>
	<polygon class="st0" points="1294.2,306 1176.7,306 1235.4,204.3 	"/>
	<polygon class="st0" points="58.3,203.8 0,203.8 0,102.9 	"/>
	<polygon class="st0" points="646.9,204.1 588.1,305.9 529.4,204.2 529.6,203.8 646.7,203.8 	"/>
	<polygon class="st0" points="235,306 176.2,407.8 117.5,306.1 117.5,306 235,306 	"/>
	<polygon class="st0" points="588,306 550.3,371.4 529.3,407.8 470.5,306.1 470.6,306 588,306 	"/>
	<polygon class="st0" points="1882.7,306.1 1823.9,407.8 1765.1,306 1765.2,306 1882.6,306 	"/>
	<polygon class="st0" points="1117.5,408.2 1058.9,509.7 1000.3,408.2 	"/>
	<polygon class="st0" points="1470.7,408 1470.6,408.2 1353.4,408.2 1353.2,407.9 1412,306.2 	"/>
	<polygon class="st0" points="764.6,407.9 764.4,408.2 647.2,408.2 647.1,408 705.8,306.2 	"/>
	<polygon class="st0" points="1235.2,408.2 1176.6,509.7 1118,408.2 	"/>
	<polygon class="st0" points="411.4,408.2 352.8,509.7 294.1,408.2 	"/>
	<polygon class="st0" points="58.5,408 58.3,408.2 0,408.2 0,306.7 	"/>
	<polygon class="st0" points="1470.7,611.8 1470.6,612 1353.3,612 1353.2,611.8 1412,510 	"/>
	<polygon class="st0" points="1588.4,611.8 1588.4,611.8 1588.3,612 1471,612 1470.9,611.8 1470.9,611.8 1529.7,510 	"/>
	<polygon class="st0" points="1764.9,509.9 1706.2,611.7 1647.4,509.9 1647.5,509.8 1764.9,509.8 	"/>
	<polygon class="st0" points="411.5,611.8 411.4,612 294.1,612 294,611.8 352.8,510 	"/>
	<polygon class="st0" points="823.4,509.9 823.1,510.4 764.7,611.6 705.9,509.9 706,509.8 823.4,509.8 	"/>
	<polygon class="st0" points="941.1,509.9 941.1,509.9 914,556.7 882.4,611.6 823.6,509.9 823.7,509.8 941,509.8 	"/>
	<polygon class="st0" points="1941.4,612 1882.7,713.6 1824,612 	"/>
	<polygon class="st0" points="117.1,714.2 58.6,815.5 0.1,714.2 	"/>
	<polygon class="st0" points="58.5,815.7 0,917 0,815.7 	"/>
	<polygon class="st0" points="1470.6,815.7 1459.6,834.8 1411.9,917.4 1353.2,815.7 	"/>
	<polygon class="st0" points="1823.7,612 1765,713.6 1706.4,612 	"/>
	<polygon class="st0" points="1941.4,815.7 1882.7,917.4 1824,815.7 	"/>
	<polygon class="st0" points="2000,918.4 2000,1020.1 1941.9,1020.1 1941.6,1019.5 1941.6,1019.5 	"/>
	<polygon class="st0" points="1117.3,1020.1 1058.9,1121.3 1000.5,1020.1 	"/>
	<polygon class="st0" points="58.2,1020.1 0,1120.9 0,1020.1 	"/>
	<polygon class="st0" points="117.2,917.9 58.6,1019.3 0.1,917.9 	"/>
	<polygon class="st0" points="705.8,713.7 705.5,714.2 588.5,714.2 588.3,713.7 647,612 	"/>
	<polygon class="st0" points="764.3,1020.1 705.9,1121.3 647.5,1020.1 	"/>
	<polygon class="st0" points="1000,1223.4 999.7,1223.9 882.7,1223.9 882.4,1223.4 941.1,1121.7 941.3,1121.7 	"/>
	<polygon class="st0" points="1235,1020.1 1176.6,1121.3 1118.2,1020.1 	"/>
	<polygon class="st0" points="1235.4,1223.4 1235.1,1223.9 1118.1,1223.9 1117.8,1223.4 1176.5,1121.7 1176.7,1121.7 	"/>
	<polygon class="st0" points="1470.7,1223.4 1470.4,1223.9 1353.5,1223.9 1353.2,1223.4 1353.2,1223.4 1411.9,1121.7 1412.1,1121.7 
			"/>
	<polygon class="st0" points="1470.3,1020.1 1411.9,1121.3 1353.5,1020.1 	"/>
	<polygon class="st0" points="1411.7,1121.7 1353.1,1223.3 1294.5,1121.7 	"/>
	<polygon class="st0" points="1705.7,1020.1 1647.3,1121.3 1588.9,1020.1 	"/>
	<polygon class="st0" points="1882.4,1121.7 1823.8,1223.3 1765.2,1121.7 	"/>
	<polygon class="st0" points="1529.3,714.2 1470.8,815.5 1412.3,714.2 	"/>
	<polygon class="st0" points="1647.2,917.5 1647,917.9 1529.9,917.9 1529.7,917.6 1588.5,815.8 	"/>
	<polygon class="st0" points="1706,815.7 1647.3,917.4 1588.6,815.7 	"/>
	<polygon class="st0" points="1941.1,1020.1 1914.3,1066.5 1882.7,1121.3 1824.3,1020.1 	"/>
	<polygon class="st0" points="940.9,917.9 882.4,1019.4 823.8,917.9 	"/>
	<polygon class="st0" points="940.8,714.2 882.4,815.5 823.9,714.2 	"/>
	<polygon class="st0" points="234.9,1121.7 176.3,1223.3 117.7,1121.7 	"/>
	<polygon class="st0" points="411.6,1019.5 411.2,1020.1 294.4,1020.1 294,1019.5 352.6,917.9 352.9,917.9 	"/>
	<polygon class="st0" points="352.5,917.9 294,1019.3 267.7,973.8 235.4,917.9 	"/>
	<polygon class="st0" points="352.6,1121.7 294,1223.3 235.4,1121.7 	"/>
	<polygon class="st0" points="529.3,1223.4 529,1223.9 412,1223.9 411.7,1223.3 470.4,1121.7 470.5,1121.7 	"/>
	<polygon class="st0" points="588.1,713.7 587.8,714.2 470.8,714.2 470.6,713.7 529.3,612 	"/>
	<polygon class="st0" points="58.5,1223.4 58.2,1223.9 0,1223.9 0,1122.1 	"/>
</g>
<g>
	<polygon class="st1" points="1117.6,611.8 1117.5,612 1000.3,612 1000.2,611.8 1058.9,510 	"/>
	<polygon class="st1" points="1294.2,713.7 1294.2,713.7 1293.9,714.2 1176.9,714.2 1176.7,713.7 1235.4,612 	"/>
</g>
<g>
	<polygon class="st2" points="588.1,102.2 470.5,102.2 529.3,0.4 	"/>
	<polygon class="st2" points="1353.1,0.3 1294.3,102.1 1235.5,0.3 1235.7,0 1352.9,0 	"/>
	<polygon class="st2" points="176.2,0.3 117.3,102.1 58.6,0.4 58.8,0 176,0 	"/>
	<polygon class="st2" points="1235.2,203.8 1118,203.8 1176.6,102.4 	"/>
	<polygon class="st2" points="2000,102.2 2000,102.9 1941.7,203.8 1941.5,203.8 1904.5,139.7 1882.8,102.2 	"/>
	<polygon class="st2" points="1882.6,306 1765.2,306 1823.9,204.3 	"/>
	<polygon class="st2" points="1058.8,306 941.3,306 1000.1,204.3 	"/>
	<polygon class="st2" points="1176.5,306 1059,306 1117.7,204.3 	"/>
	<polygon class="st2" points="1353.1,204.2 1294.3,305.9 1235.5,204.1 1235.7,203.8 1352.8,203.8 	"/>
	<polygon class="st2" points="764.6,204.1 705.8,305.9 647.1,204.2 647.3,203.8 764.4,203.8 	"/>
	<polygon class="st2" points="352.6,306 235.2,306 293.9,204.3 	"/>
	<polygon class="st2" points="1529.6,306.1 1470.8,407.8 1449.8,371.4 1412.1,306 1412.1,306 1529.5,306 	"/>
	<polygon class="st2" points="1647.2,509.8 1529.8,509.8 1588.5,408.2 1588.5,408.2 	"/>
	<polygon class="st2" points="352.6,509.8 235.2,509.8 293.9,408.2 294,408.2 	"/>
	<polygon class="st2" points="176.1,408 176,408.2 58.7,408.2 58.6,408 117.4,306.2 	"/>
	<polygon class="st2" points="588,509.8 470.6,509.8 529.3,408.2 529.3,408.2 	"/>
	<polygon class="st2" points="411.4,612 352.8,713.6 294.1,612 	"/>
	<polygon class="st2" points="293.8,611.8 293.8,612 176.4,612 176.3,611.8 235.1,510 	"/>
	<polygon class="st2" points="2000,714.6 2000,815.7 1941.7,815.7 1941.6,815.7 	"/>
	<polygon class="st2" points="470.1,714.2 411.6,815.5 353.1,714.2 	"/>
	<polygon class="st2" points="1588,1020.1 1529.6,1121.3 1471.2,1020.1 	"/>
	<polygon class="st2" points="1411.6,714.2 1368.7,788.5 1353.1,815.5 1294.6,714.2 	"/>
	<polygon class="st2" points="1411.6,917.9 1353.1,1019.4 1294.6,917.9 	"/>
	<polygon class="st2" points="1823.8,611.8 1823.8,611.8 1823.7,612 1706.4,612 1706.3,611.8 1765,510 	"/>
	<polygon class="st2" points="1764.9,713.7 1764.7,714.2 1647.7,714.2 1647.4,713.7 1706.2,612 	"/>
	<polygon class="st2" points="1823.8,815.6 1823.7,815.7 1706.3,815.7 1706.2,815.7 1764.9,714.2 1765.2,714.2 	"/>
	<polygon class="st2" points="352.7,917.6 352.5,917.9 235.4,917.9 235.2,917.5 293.9,815.8 	"/>
	<polygon class="st2" points="117.3,917.6 117.2,917.9 0.1,917.9 0,917.8 0,917.2 58.5,815.8 	"/>
	<polygon class="st2" points="1588.3,815.7 1550.5,881.1 1529.6,917.4 1470.9,815.7 	"/>
	<polygon class="st2" points="1176.5,1121.4 1176.3,1121.7 1059.1,1121.7 1059,1121.4 1117.5,1020.1 1118,1020.1 	"/>
	<polygon class="st2" points="352.7,1121.5 352.6,1121.7 235.4,1121.7 235.2,1121.4 293.6,1020.1 294.2,1020.1 	"/>
	<polygon class="st2" points="587.8,714.2 529.3,815.5 470.8,714.2 	"/>
	<polygon class="st2" points="882.3,815.7 882.2,815.7 764.9,815.7 764.8,815.6 823.4,714.2 823.7,714.2 	"/>
	<polygon class="st2" points="705.6,917.9 647,1019.4 588.5,917.9 	"/>
	<polygon class="st2" points="647,1223.4 646.7,1223.9 529.7,1223.9 529.4,1223.4 588.1,1121.7 588.2,1121.7 	"/>
	<polygon class="st2" points="823.3,1121.7 764.7,1223.3 706.1,1121.7 	"/>
	<polygon class="st2" points="1117.6,815.7 1058.9,917.4 1000.2,815.7 	"/>
</g>
<g>
	<polygon class="st3" points="1117.7,0.3 1058.9,102.1 1000.1,0.3 1000.3,0 1117.5,0 	"/>
	<polygon class="st3" points="941.1,102.2 823.6,102.2 882.4,0.4 	"/>
	<polygon class="st3" points="764.6,0.3 705.8,102.1 647,0.3 647.2,0 764.4,0 	"/>
	<polygon class="st3" points="1823.8,0.4 1765.1,102.1 1706.3,0.3 1706.4,0 1823.6,0 	"/>
	<polygon class="st3" points="1588.4,0.4 1529.7,102.1 1470.9,0.3 1471.1,0 1588.2,0 	"/>
	<polygon class="st3" points="1941.5,0.4 1882.8,102.1 1824,0.3 1824.1,0 1941.3,0 	"/>
	<polygon class="st3" points="1411.9,102.3 1353.3,203.8 1353,203.8 1294.4,102.2 1294.4,102.2 1411.9,102.2 	"/>
	<polygon class="st3" points="1765,102.3 1706.3,203.8 1706.1,203.8 1647.4,102.2 1764.9,102.2 	"/>
	<polygon class="st3" points="352.7,102.2 235.2,102.2 293.9,0.4 	"/>
	<polygon class="st3" points="588,306 470.6,306 529.3,204.3 	"/>
	<polygon class="st3" points="235,102.2 186.6,186 176.3,203.8 176.1,203.8 117.4,102.3 117.5,102.2 	"/>
	<polygon class="st3" points="529,203.8 411.9,203.8 470.5,102.4 	"/>
	<polygon class="st3" points="999.8,203.8 882.7,203.8 941.2,102.4 	"/>
	<polygon class="st3" points="2000,203.8 2000,305.1 1941.7,204.1 1941.8,203.8 	"/>
	<polygon class="st3" points="1588.4,204.2 1529.7,305.9 1470.9,204.1 1471.1,203.8 1588.2,203.8 	"/>
	<polygon class="st3" points="823.4,306 706,306 764.7,204.3 	"/>
	<polygon class="st3" points="117.3,306 0,306 0,305.7 58.5,204.3 	"/>
	<polygon class="st3" points="411.5,204.1 368.4,278.7 352.7,305.9 294,204.2 294.2,203.8 411.3,203.8 	"/>
	<polygon class="st3" points="470.4,509.9 411.6,611.6 352.9,509.9 352.9,509.8 470.3,509.8 	"/>
	<polygon class="st3" points="529.2,407.9 529,408.2 411.8,408.2 411.7,408 470.5,306.2 	"/>
	<polygon class="st3" points="1765,306.1 1765,306.1 1706.2,407.8 1647.4,306 1647.5,306 1764.9,306 	"/>
	<polygon class="st3" points="1058.8,306 1000.1,407.8 941.3,306 941.3,306 1058.8,306 	"/>
	<polygon class="st3" points="941.1,306 882.4,407.8 823.6,306 823.7,306 941.1,306 	"/>
	<polygon class="st3" points="1294.2,306.1 1235.4,407.8 1176.7,306 1176.7,306 1294.2,306 	"/>
	<polygon class="st3" points="764.4,408.2 732.2,464.1 705.8,509.7 647.2,408.2 	"/>
	<polygon class="st3" points="1176.4,509.8 1059.1,509.8 1117.7,408.2 1117.8,408.2 	"/>
	<polygon class="st3" points="1058.8,509.8 941.4,509.8 1000,408.2 1000.1,408.2 	"/>
	<polygon class="st3" points="882.1,408.2 823.5,509.7 764.9,408.2 	"/>
	<polygon class="st3" points="1941.4,408.2 1882.7,509.7 1824.1,408.2 	"/>
	<polygon class="st3" points="1588.3,408.2 1529.7,509.7 1471.1,408.2 	"/>
	<polygon class="st3" points="1411.8,509.8 1294.4,509.8 1353.1,408.2 1353.2,408.2 	"/>
	<polygon class="st3" points="117.2,509.8 0,509.8 0,509.5 58.5,408.2 58.6,408.2 	"/>
	<polygon class="st3" points="1529.6,509.9 1470.8,611.6 1412.1,509.9 1412.1,509.8 1529.5,509.8 	"/>
	<polygon class="st3" points="2000,509.8 2000,510.5 1941.6,611.7 1882.8,509.9 1882.9,509.8 	"/>
	<polygon class="st3" points="1235.3,611.8 1235.2,612 1118,612 1117.8,611.8 1117.8,611.8 1176.6,510 	"/>
	<polygon class="st3" points="764.6,611.8 764.5,612 647.2,612 647.1,611.8 705.8,510 	"/>
	<polygon class="st3" points="588,509.9 529.3,611.6 470.5,509.9 470.6,509.8 588,509.8 	"/>
	<polygon class="st3" points="1706.1,611.8 1706,612 1588.7,612 1588.6,611.8 1647.3,510 	"/>
	<polygon class="st3" points="2000,612 2000,712.9 1941.7,612 	"/>
	<polygon class="st3" points="176.1,612 117.4,713.6 58.7,612 	"/>
	<polygon class="st3" points="1941.5,815.6 1941.4,815.7 1824,815.7 1823.9,815.7 1882.6,714.2 1882.9,714.2 	"/>
	<polygon class="st3" points="293.9,815.7 293.8,815.7 176.4,815.7 176.3,815.6 234.9,714.2 235.2,714.2 	"/>
	<polygon class="st3" points="58.5,815.7 58.5,815.7 0,815.7 0,714.4 	"/>
	<polygon class="st3" points="2000,917.9 2000,918.1 1941.5,1019.4 1883,917.9 	"/>
	<polygon class="st3" points="646.6,1020.1 588.2,1121.3 529.8,1020.1 	"/>
	<polygon class="st3" points="234.8,917.9 176.3,1019.3 117.7,917.9 	"/>
	<polygon class="st3" points="58.5,1019.5 58.2,1020.1 0,1020.1 0,918.2 	"/>
	<polygon class="st3" points="1353.1,1223.4 1352.7,1223.9 1235.8,1223.9 1235.5,1223.4 1294.2,1121.7 1294.4,1121.7 	"/>
	<polygon class="st3" points="2000,1121.7 2000,1121.9 1941.5,1223.3 1882.9,1121.7 	"/>
	<polygon class="st3" points="1647,917.9 1641.5,927.5 1588.4,1019.4 1529.9,917.9 	"/>
	<polygon class="st3" points="1764.9,917.5 1764.7,917.9 1647.6,917.9 1647.4,917.6 1706.2,815.8 	"/>
	<polygon class="st3" points="1529.6,713.7 1529.3,714.2 1412.3,714.2 1412.1,713.7 1470.8,612 	"/>
	<polygon class="st3" points="1823.4,1020.1 1823.3,1020.2 1765,1121.3 1706.6,1020.1 	"/>
	<polygon class="st3" points="1764.7,1121.7 1706.1,1223.3 1647.5,1121.7 	"/>
	<polygon class="st3" points="1529.4,1121.7 1470.8,1223.3 1412.2,1121.7 	"/>
	<polygon class="st3" points="1058.7,1121.7 1000.1,1223.3 941.4,1121.7 	"/>
	<polygon class="st3" points="1352.9,815.7 1294.3,917.4 1235.6,815.7 	"/>
	<polygon class="st3" points="529.2,1019.5 528.9,1020.1 412.1,1020.1 411.7,1019.5 470.3,917.9 470.6,917.9 	"/>
	<polygon class="st3" points="470.4,917.6 470.2,917.9 353.1,917.9 352.9,917.5 411.6,815.8 	"/>
	<polygon class="st3" points="470.3,1121.7 411.6,1223.3 353,1121.7 	"/>
	<polygon class="st3" points="293.9,1223.4 293.6,1223.9 176.7,1223.9 176.3,1223.3 176.3,1223.3 235,1121.7 235.2,1121.7 	"/>
	<polygon class="st3" points="117.2,1121.7 58.6,1223.2 0,1121.7 	"/>
	<polygon class="st3" points="999.9,815.7 941.2,917.4 882.5,815.7 	"/>
	<polygon class="st3" points="764.6,815.7 764.5,815.7 647.2,815.7 647.1,815.6 705.7,714.2 706,714.2 	"/>
	<polygon class="st3" points="999.8,612 941.2,713.5 904.2,649.4 882.6,612 	"/>
	<polygon class="st3" points="882.3,1019.5 881.9,1020.1 765.1,1020.1 764.8,1019.5 823.4,917.9 823.7,917.9 	"/>
	<polygon class="st3" points="1176.2,714.2 1117.7,815.5 1059.3,714.2 	"/>
	<polygon class="st3" points="1000,1019.5 999.6,1020.1 882.8,1020.1 882.5,1019.5 941.1,917.9 941.3,917.9 	"/>
</g>
<g>
	<polygon class="st4" points="117.3,102.2 117.3,102.2 0,102.2 0,101.9 58.6,0.4 	"/>
	<polygon class="st4" points="882.3,0.3 882.3,0.3 823.5,102.1 764.7,0.3 764.9,0 882.1,0 	"/>
	<polygon class="st4" points="646.9,0.3 588.1,102.1 529.3,0.4 529.6,0 646.7,0 	"/>
	<polygon class="st4" points="1470.7,204.2 1470.7,204.2 1412,305.9 1353.2,204.1 1353.4,203.8 1470.5,203.8 	"/>
	<polygon class="st4" points="1411.9,102.2 1294.4,102.2 1353.1,0.4 	"/>
	<polygon class="st4" points="1647.2,102.2 1529.8,102.2 1588.5,0.4 	"/>
	<polygon class="st4" points="1882.6,102.2 1765.1,102.2 1765.1,102.2 1823.9,0.4 	"/>
	<polygon class="st4" points="2000,0 2000,101.3 1995.4,93.3 1941.7,0.3 1941.8,0 	"/>
	<polygon class="st4" points="1529.6,102.2 1412.1,102.2 1470.8,0.4 	"/>
	<polygon class="st4" points="58.5,0.3 4.7,93.3 0,101.5 0,0 58.3,0 	"/>
	<polygon class="st4" points="646.9,407.9 646.7,408.2 529.5,408.2 529.4,408 588.2,306.2 	"/>
	<polygon class="st4" points="470.4,102.2 352.9,102.2 411.6,0.4 	"/>
	<polygon class="st4" points="1058.8,102.2 1000.2,203.8 999.9,203.8 941.3,102.2 941.3,102.2 941.3,102.2 1058.8,102.2 	"/>
	<polygon class="st4" points="1294.2,102.3 1235.6,203.8 1235.3,203.8 1176.7,102.2 1176.7,102.2 1294.2,102.2 	"/>
	<polygon class="st4" points="1705.9,203.8 1588.8,203.8 1647.3,102.4 	"/>
	<polygon class="st4" points="764.4,203.8 647.3,203.8 705.8,102.4 	"/>
	<polygon class="st4" points="588.1,102.2 529.4,203.8 529.2,203.8 470.5,102.3 470.5,102.2 588.1,102.2 	"/>
	<polygon class="st4" points="1941.3,203.8 1824.2,203.8 1882.7,102.3 	"/>
	<polygon class="st4" points="2000,103.1 2000,203.8 1941.8,203.8 	"/>
	<polygon class="st4" points="1706.1,204.2 1647.4,305.9 1631.7,278.7 1588.6,204.1 1588.8,203.8 1705.9,203.8 	"/>
	<polygon class="st4" points="235,306 117.5,306 176.2,204.3 	"/>
	<polygon class="st4" points="470.3,306 352.9,306 411.6,204.3 	"/>
	<polygon class="st4" points="705.7,306 588.3,306 647,204.3 	"/>
	<polygon class="st4" points="352.7,306 293.9,407.8 235.1,306.1 235.2,306 352.6,306 	"/>
	<polygon class="st4" points="2000,306 2000,306.7 1941.6,407.8 1882.8,306 1882.8,306 	"/>
	<polygon class="st4" points="1000,408 999.8,408.2 882.6,408.2 882.5,408 882.5,408 941.2,306.2 	"/>
	<polygon class="st4" points="999.8,408.2 941.2,509.7 882.6,408.2 	"/>
	<polygon class="st4" points="1588.4,408 1588.4,408 1588.3,408.2 1471.1,408.2 1470.9,407.9 1529.7,306.2 	"/>
	<polygon class="st4" points="1470.6,408.2 1412,509.7 1358.9,417.7 1353.4,408.2 	"/>
	<polygon class="st4" points="1411.9,306.1 1353.2,407.8 1294.4,306 1294.4,306 1411.8,306 	"/>
	<polygon class="st4" points="1235.3,408 1235.2,408.2 1118,408.2 1117.8,407.9 1176.6,306.2 	"/>
	<polygon class="st4" points="117.3,306 58.5,407.8 0,306.5 0,306 117.3,306 	"/>
	<polygon class="st4" points="2000,306.9 2000,408.2 1941.8,408.2 1941.7,408 	"/>
	<polygon class="st4" points="1823.7,408.2 1765,509.7 1706.4,408.2 	"/>
	<polygon class="st4" points="293.7,408.2 235.1,509.7 176.4,408.2 	"/>
	<polygon class="st4" points="176,408.2 117.4,509.7 58.7,408.2 	"/>
	<polygon class="st4" points="705.7,509.8 588.3,509.8 647,408.2 647,408.2 	"/>
	<polygon class="st4" points="470.3,509.8 352.9,509.8 411.6,408.2 411.6,408.2 	"/>
	<polygon class="st4" points="1882.6,509.9 1882.6,509.9 1823.9,611.7 1765.1,509.9 1765.2,509.8 1882.6,509.8 	"/>
	<polygon class="st4" points="2000,509.4 2000,509.8 1882.9,509.8 1941.5,408.2 1941.6,408.2 	"/>
	<polygon class="st4" points="1000,611.8 999.8,612 882.6,612 882.5,611.8 941.2,510 	"/>
	<polygon class="st4" points="1176.5,509.9 1117.7,611.6 1086.1,556.7 1059,509.9 1059,509.9 1059.1,509.8 1176.4,509.8 	"/>
	<polygon class="st4" points="117.3,509.9 58.6,611.7 0,510.3 0,509.8 117.2,509.8 	"/>
	<polygon class="st4" points="529.2,611.8 529.1,612 411.8,612 411.7,611.8 411.7,611.8 470.5,510 	"/>
	<polygon class="st4" points="2000,510.7 2000,612 1941.7,612 1941.6,611.8 1941.6,611.8 	"/>
	<polygon class="st4" points="293.8,612 235.1,713.6 176.4,612 	"/>
	<polygon class="st4" points="58.4,612 0,713.1 0,612 	"/>
	<polygon class="st4" points="2000,714.2 2000,714.3 1941.5,815.5 1883,714.2 	"/>
	<polygon class="st4" points="2000,815.7 2000,916.8 1941.7,815.7 	"/>
	<polygon class="st4" points="176.1,815.7 117.4,917.4 58.7,815.7 	"/>
	<polygon class="st4" points="352.5,714.2 294,815.5 235.4,714.2 	"/>
	<polygon class="st4" points="1529.3,917.9 1470.8,1019.4 1412.2,917.9 	"/>
	<polygon class="st4" points="1352.9,612 1294.3,713.5 1235.6,612 	"/>
	<polygon class="st4" points="1352.7,1020.1 1294.3,1121.3 1235.9,1020.1 	"/>
	<polygon class="st4" points="1941.4,1019.5 1941.1,1020.1 1824.3,1020.1 1823.9,1019.5 1882.6,917.9 1882.8,917.9 	"/>
	<polygon class="st4" points="1058.8,917.6 1058.6,917.9 941.5,917.9 941.3,917.6 941.3,917.6 1000.1,815.8 	"/>
	<polygon class="st4" points="646.9,1019.5 646.6,1020.1 529.8,1020.1 529.4,1019.5 588,917.9 588.3,917.9 	"/>
	<polygon class="st4" points="941.2,1121.4 941,1121.7 823.8,1121.7 823.6,1121.4 882.1,1020.1 882.7,1020.1 	"/>
	<polygon class="st4" points="1706.1,1223.3 1705.8,1223.9 1588.8,1223.9 1588.5,1223.4 1647.2,1121.7 1647.4,1121.7 	"/>
	<polygon class="st4" points="1823.7,815.7 1765,917.4 1706.3,815.7 	"/>
	<polygon class="st4" points="1706.1,815.6 1706,815.7 1588.6,815.7 1588.6,815.7 1647.2,714.2 1647.5,714.2 	"/>
	<polygon class="st4" points="1647.2,713.7 1647,714.2 1530,714.2 1529.7,713.7 1588.5,612 	"/>
	<polygon class="st4" points="2000,1120.9 2000,1121.7 1882.9,1121.7 1882.8,1121.5 1941.3,1020.1 1941.8,1020.1 	"/>
	<polygon class="st4" points="1882.6,1121.4 1882.4,1121.7 1765.2,1121.7 1765.1,1121.5 1823.6,1020.1 1824.2,1020.1 	"/>
	<polygon class="st4" points="2000,1122.3 2000,1223.9 1941.9,1223.9 1941.6,1223.4 	"/>
	<polygon class="st4" points="1764.7,917.9 1732.4,973.8 1706.1,1019.4 1647.6,917.9 	"/>
	<polygon class="st4" points="1588.4,1223.4 1588.1,1223.9 1471.2,1223.9 1470.8,1223.4 1529.6,1121.7 1529.7,1121.7 	"/>
	<polygon class="st4" points="1176.5,917.5 1176.5,917.6 1176.3,917.9 1059.2,917.9 1059,917.6 1117.7,815.8 	"/>
	<polygon class="st4" points="1235.3,815.6 1235.2,815.7 1117.9,815.7 1117.8,815.6 1176.4,714.2 1176.8,714.2 	"/>
	<polygon class="st4" points="1235.3,1019.5 1235.3,1019.5 1235,1020.1 1118.2,1020.1 1117.8,1019.5 1176.5,917.9 1176.7,917.9 	"/>
	<polygon class="st4" points="764.5,612 705.9,713.5 647.2,612 	"/>
	<polygon class="st4" points="705.5,714.2 647,815.5 631.4,788.5 588.5,714.2 	"/>
	<polygon class="st4" points="646.9,815.7 588.2,917.4 540.5,834.8 529.5,815.7 	"/>
	<polygon class="st4" points="293.5,1020.1 235.1,1121.3 176.8,1020.2 176.8,1020.1 	"/>
	<polygon class="st4" points="176.2,1223.4 175.9,1223.9 59,1223.9 58.7,1223.3 117.3,1121.7 117.5,1121.7 	"/>
	<polygon class="st4" points="528.9,1020.1 470.5,1121.3 412.1,1020.1 	"/>
	<polygon class="st4" points="529.2,815.7 529.2,815.7 411.8,815.7 411.7,815.6 470.3,714.2 470.6,714.2 	"/>
	<polygon class="st4" points="823.2,714.2 764.7,815.5 722.4,742.1 706.2,714.2 	"/>
	<polygon class="st4" points="764.6,1019.5 764.3,1020.1 647.5,1020.1 647.1,1019.5 705.7,917.9 706,917.9 	"/>
	<polygon class="st4" points="588,1121.7 529.3,1223.3 470.7,1121.7 	"/>
	<polygon class="st4" points="1176.5,713.7 1176.5,713.7 1176.2,714.2 1059.3,714.2 1059,713.7 1117.7,612 1117.7,612 	"/>
	<polygon class="st4" points="882.3,1223.4 882,1223.9 765.1,1223.9 764.7,1223.4 823.4,1121.7 823.6,1121.7 	"/>
	<polygon class="st4" points="1058.5,714.2 1000.1,815.5 941.6,714.2 	"/>
	<polygon class="st4" points="882.2,612 823.5,713.5 813.3,695.8 764.9,612 	"/>
	<polygon class="st4" points="705.6,1121.7 647,1223.3 588.4,1121.7 	"/>
</g>
<g>
	<polygon class="st5" points="1000,0.3 941.2,102.1 882.4,0.3 882.6,0 999.8,0 	"/>
	<polygon class="st5" points="1294.2,102.2 1176.7,102.2 1235.4,0.4 	"/>
	<polygon class="st5" points="1470.8,0.3 1412,102.1 1353.2,0.3 1353.4,0 1470.6,0 	"/>
	<polygon class="st5" points="1647.3,102.3 1588.7,203.8 1588.4,203.8 1529.7,102.2 1529.8,102.2 1647.2,102.2 	"/>
	<polygon class="st5" points="705.8,102.2 647.1,203.8 646.8,203.8 588.2,102.3 588.2,102.2 705.8,102.2 	"/>
	<polygon class="st5" points="1941.5,204.2 1882.8,305.9 1824,204.1 1824.2,203.8 1941.3,203.8 	"/>
	<polygon class="st5" points="1647.2,306 1529.8,306 1588.5,204.3 	"/>
	<polygon class="st5" points="1706.1,408 1706,408.2 1588.7,408.2 1588.6,407.9 1647.3,306.2 	"/>
</g>
<g>
	<polygon class="st6" points="1058.8,102.2 941.3,102.2 1000.1,0.4 	"/>
	<polygon class="st6" points="823.4,102.2 705.9,102.2 764.7,0.4 	"/>
	<polygon class="st6" points="1706.1,0.4 1647.4,102.1 1588.6,0.3 1588.7,0 1705.9,0 	"/>
	<polygon class="st6" points="882.1,203.8 765,203.8 823.5,102.4 	"/>
	<polygon class="st6" points="1588.2,203.8 1471.1,203.8 1529.7,102.4 	"/>
	<polygon class="st6" points="1352.8,203.8 1235.7,203.8 1294.3,102.4 	"/>
	<polygon class="st6" points="1882.7,102.3 1824,203.8 1823.8,203.8 1813.6,186 1765.1,102.2 1882.6,102.2 	"/>
	<polygon class="st6" points="117.3,102.2 95.6,139.7 58.6,203.8 58.4,203.8 0,102.7 0,102.2 	"/>
	<polygon class="st6" points="235,102.2 235,102.2 117.5,102.2 176.2,0.4 	"/>
	<polygon class="st6" points="411.3,203.8 294.2,203.8 352.8,102.4 	"/>
	<polygon class="st6" points="646.7,203.8 529.6,203.8 588.2,102.3 	"/>
	<polygon class="st6" points="882.3,204.1 823.5,305.9 764.8,204.2 765,203.8 882.1,203.8 	"/>
	<polygon class="st6" points="58.5,204.1 0,305.4 0,203.8 58.3,203.8 	"/>
	<polygon class="st6" points="176.1,204.1 117.4,305.9 58.6,204.2 58.8,203.8 176,203.8 	"/>
	<polygon class="st6" points="470.4,306 459.4,325 411.6,407.8 352.8,306.1 352.9,306 470.3,306 	"/>
	<polygon class="st6" points="823.4,306 764.7,407.8 705.9,306.1 706,306 823.4,306 	"/>
	<polygon class="st6" points="1117.7,408 1117.5,408.2 1000.3,408.2 1000.2,408 1058.9,306.2 	"/>
	<polygon class="st6" points="1353,408 1352.9,408.2 1235.7,408.2 1235.5,407.9 1294.3,306.2 	"/>
	<polygon class="st6" points="293.8,407.9 293.8,407.9 293.7,408.2 176.4,408.2 176.3,408 235.1,306.2 	"/>
	<polygon class="st6" points="823.4,509.8 706,509.8 764.6,408.2 764.7,408.2 	"/>
	<polygon class="st6" points="2000,408.2 2000,509 1941.8,408.2 	"/>
	<polygon class="st6" points="1941.5,408 1941.4,408.2 1824.1,408.2 1824,407.9 1882.7,306.2 	"/>
	<polygon class="st6" points="1823.8,408 1823.7,408.2 1706.4,408.2 1706.3,407.9 1765,306.2 	"/>
	<polygon class="st6" points="1882.6,509.8 1765.2,509.8 1823.8,408.2 1823.9,408.2 	"/>
	<polygon class="st6" points="1647.2,509.9 1588.5,611.6 1529.8,509.9 1529.8,509.8 1647.2,509.8 	"/>
	<polygon class="st6" points="1529.5,509.8 1412.1,509.8 1470.8,408.2 1470.8,408.2 	"/>
	<polygon class="st6" points="1706,408.2 1647.3,509.7 1588.7,408.2 	"/>
	<polygon class="st6" points="1764.9,509.8 1647.5,509.8 1706.1,408.2 1706.2,408.2 	"/>
	<polygon class="st6" points="1352.9,408.2 1294.3,509.7 1268,464.1 1235.7,408.2 	"/>
	<polygon class="st6" points="58.3,408.2 0,509.2 0,408.2 	"/>
	<polygon class="st6" points="529,408.2 470.5,509.7 411.8,408.2 	"/>
	<polygon class="st6" points="1411.9,509.9 1353.1,611.6 1294.4,509.9 1294.4,509.8 1411.8,509.8 	"/>
	<polygon class="st6" points="1294.2,509.9 1235.4,611.6 1177,510.4 1176.7,509.8 1176.7,509.8 1294.1,509.8 	"/>
	<polygon class="st6" points="1058.8,509.9 1005,603.1 1000.1,611.6 995.2,603.1 941.3,509.9 941.4,509.8 1058.8,509.8 	"/>
	<polygon class="st6" points="235,509.9 176.2,611.7 117.5,509.9 117.6,509.8 234.9,509.8 	"/>
	<polygon class="st6" points="646.9,611.8 646.8,612 529.5,612 529.4,611.8 529.4,611.8 588.2,510 	"/>
	<polygon class="st6" points="352.7,509.9 293.9,611.7 235.2,509.9 235.2,509.8 352.6,509.8 	"/>
	<polygon class="st6" points="1706,612 1647.3,713.6 1588.7,612 	"/>
	<polygon class="st6" points="235,713.7 234.8,714.2 117.8,714.2 117.5,713.7 176.2,612 	"/>
	<polygon class="st6" points="293.8,815.7 235.1,917.4 176.4,815.7 	"/>
	<polygon class="st6" points="2000,713.2 2000,714.2 1883,714.2 1882.8,713.8 1941.6,612 	"/>
	<polygon class="st6" points="470.4,713.7 470.1,714.2 353.1,714.2 352.9,713.7 411.6,612 	"/>
	<polygon class="st6" points="176.2,815.7 176.1,815.7 58.7,815.7 58.7,815.6 117.2,714.2 117.6,714.2 	"/>
	<polygon class="st6" points="2000,917 2000,917.9 1883,917.9 1882.8,917.6 1941.6,815.8 	"/>
	<polygon class="st6" points="1470.7,815.6 1470.7,815.6 1470.6,815.7 1353.2,815.7 1353.2,815.7 1411.8,714.2 1412.1,714.2 	"/>
	<polygon class="st6" points="1882.6,713.7 1882.4,714.2 1765.3,714.2 1765.1,713.8 1823.9,612 	"/>
	<polygon class="st6" points="2000,1020.1 2000,1120.7 1941.9,1020.1 	"/>
	<polygon class="st6" points="1882.4,714.2 1823.8,815.5 1765.3,714.2 	"/>
	<polygon class="st6" points="1117.7,1019.5 1117.3,1020.1 1000.5,1020.1 1000.1,1019.5 1000.1,1019.5 1058.8,917.9 1059,917.9 	"/>
	<polygon class="st6" points="175.9,1020.1 117.5,1121.3 85.8,1066.5 59.1,1020.1 	"/>
	<polygon class="st6" points="293.9,1019.5 293.5,1020.1 176.8,1020.1 176.4,1019.5 235,917.9 235.2,917.9 	"/>
	<polygon class="st6" points="1647.2,1121.4 1647.1,1121.7 1529.8,1121.7 1529.7,1121.5 1588.2,1020.1 1588.8,1020.1 	"/>
	<polygon class="st6" points="1647.1,1121.7 1588.5,1223.3 1529.8,1121.7 	"/>
	<polygon class="st6" points="705.8,917.6 705.6,917.9 588.5,917.9 588.2,917.5 647,815.8 	"/>
	<polygon class="st6" points="823.5,1121.4 823.3,1121.7 706.1,1121.7 705.9,1121.4 764.4,1020.1 765,1020.1 	"/>
	<polygon class="st6" points="1411.9,1121.4 1411.7,1121.7 1294.5,1121.7 1294.3,1121.5 1352.8,1020.1 1353.4,1020.1 	"/>
	<polygon class="st6" points="1294,1121.7 1235.4,1223.3 1176.8,1121.7 	"/>
	<polygon class="st6" points="1470.6,612 1411.9,713.5 1353.3,612 	"/>
	<polygon class="st6" points="1764.9,1121.4 1764.7,1121.7 1647.5,1121.7 1647.4,1121.5 1705.9,1020.1 1706.5,1020.1 	"/>
	<polygon class="st6" points="1882.4,917.9 1823.8,1019.3 1765.3,917.9 	"/>
	<polygon class="st6" points="1823.8,1223.3 1823.8,1223.3 1823.4,1223.9 1706.5,1223.9 1706.2,1223.4 1764.9,1121.7 1765.1,1121.7 
			"/>
	<polygon class="st6" points="1588.4,815.6 1588.3,815.7 1470.9,815.7 1470.9,815.7 1529.5,714.2 1529.8,714.2 	"/>
	<polygon class="st6" points="1294.2,917.5 1293.9,917.9 1176.9,917.9 1176.7,917.6 1235.4,815.8 	"/>
	<polygon class="st6" points="1058.8,1121.4 1058.7,1121.7 941.4,1121.7 941.3,1121.4 999.8,1020.1 1000.3,1020.1 	"/>
	<polygon class="st6" points="1117.7,1223.4 1117.4,1223.9 1000.4,1223.9 1000.1,1223.4 1058.8,1121.7 1059,1121.7 	"/>
	<polygon class="st6" points="1176.3,1121.7 1117.7,1223.3 1059.1,1121.7 	"/>
	<polygon class="st6" points="587.9,917.9 529.3,1019.4 470.8,917.9 	"/>
	<polygon class="st6" points="411.2,1020.1 352.8,1121.3 294.4,1020.1 	"/>
	<polygon class="st6" points="646.8,612 588.2,713.5 529.5,612 	"/>
	<polygon class="st6" points="411.6,1223.4 411.3,1223.9 294.4,1223.9 294,1223.3 294,1223.3 352.7,1121.7 352.9,1121.7 	"/>
	<polygon class="st6" points="823.5,917.6 823.2,917.9 706.2,917.9 705.9,917.5 764.7,815.8 	"/>
	<polygon class="st6" points="705.8,1121.5 705.6,1121.7 588.4,1121.7 588.2,1121.4 646.7,1020.1 647.3,1020.1 	"/>
	<polygon class="st6" points="1058.8,713.7 1058.5,714.2 941.6,714.2 941.3,713.7 1000.1,612 	"/>
	<polygon class="st6" points="764.6,1223.4 764.3,1223.9 647.4,1223.9 647.1,1223.4 705.8,1121.7 705.9,1121.7 	"/>
	<polygon class="st6" points="941.1,917.6 940.9,917.9 823.8,917.9 823.6,917.6 882.4,815.8 	"/>
	<polygon class="st6" points="823.4,713.7 823.2,714.2 706.2,714.2 706,713.7 764.7,612 	"/>
	<polygon class="st6" points="1235.2,612 1186.8,695.8 1176.6,713.5 1118,612 	"/>
	<polygon class="st6" points="1117.7,815.6 1117.6,815.7 1000.2,815.7 1000.2,815.6 1058.7,714.2 1059.1,714.2 	"/>
	<polygon class="st6" points="941,1121.7 882.4,1223.3 823.8,1121.7 	"/>
</g>
</svg>
