<svg xmlns="http://www.w3.org/2000/svg" xmlns:xlink="http://www.w3.org/1999/xlink" id="_x2014_ÎÓÈ_x5F_1" x="0" y="0" version="1.1" viewBox="0 0 4000 2447.8" style="enable-background:new 0 0 4000 2447.8" xml:space="preserve"><style type="text/css">.st0{display:none;fill:red}.st1{opacity:.3}.st2{opacity:.32}.st3{opacity:.25}.st4{opacity:.2}.st5{opacity:.15}.st6{opacity:.1}.st7{opacity:5.000000e-02}</style><rect width="4000" height="2447.8" class="st0"/><g><g id="BG" class="st1"><rect width="4000" height="2447.8"/><polygon points="3529.8 204.4 3294.8 204.4 3412.4 .8"/><polygon points="1058.4 .6 940.8 204.2 823.4 .8 823.8 0 1058.2 0"/><polygon points="4000 203.4 4000 204.4 3765.6 204.4 3765.6 204.4 3883.2 .8"/><polygon points="2470.8 .6 2353.2 204.2 2235.6 .6 2236 0 2470.4 0"/><polygon points="587.8 .6 470 204.2 352.6 .8 353 0 587.4 0"/><polygon points="3059.2 204.6 2942 407.6 2941.4 407.6 2824 204.4 2824.2 204.4 3059.2 204.4"/><polygon points="2353 204.4 2235.8 407.6 2235.2 407.6 2118 204.4 2118 204.4"/><polygon points="3647.2 407.6 3413 407.6 3530 204.8"/><polygon points="587.2 407.6 353 407.6 470.2 204.8"/><polygon points="940.8 204.4 823.4 407.6 823 407.6 705.6 204.6 705.8 204.4"/><polygon points="1882.2 612 1647.4 612 1764.8 408.6"/><polygon points="3529.8 612 3295 612 3412.4 408.6"/><polygon points="3059 612 2824.2 612 2941.6 408.6"/><polygon points="2235.4 408.2 2117.8 611.8 2000.2 408.2 2000.6 407.6 2235 407.6"/><polygon points="2470.8 408.4 2353.2 611.8 2235.6 408.2 2236 407.6 2470.4 407.6"/><polygon points="2588.4 612 2353.4 612 2470.8 408.6"/><polygon points="116.6 407.6 0 407.6 0 205.8"/><polygon points="1293.8 408.2 1176.2 611.8 1058.8 408.4 1059.2 407.6 1293.4 407.6"/><polygon points="470 612 352.4 815.6 235 612.2 235 612"/><polygon points="1176 612 1100.6 742.8 1058.6 815.6 941 612.2 941.2 612"/><polygon points="3765.4 612.2 3647.8 815.6 3530.2 612 3530.4 612 3765.2 612"/><polygon points="2235 816.4 2117.8 1019.4 2000.6 816.4"/><polygon points="2941.4 816 2941.2 816.4 2706.8 816.4 2706.4 815.8 2824 612.4"/><polygon points="1529.2 815.8 1528.8 816.4 1294.4 816.4 1294.2 816 1411.6 612.4"/><polygon points="2470.4 816.4 2353.2 1019.4 2236 816.4"/><polygon points="822.8 816.4 705.6 1019.4 588.2 816.4"/><polygon points="117 816 116.6 816.4 0 816.4 0 613.4"/><polygon points="2941.4 1223.6 2941.2 1224 2706.6 1224 2706.4 1223.6 2824 1020"/><polygon points="3176.8 1223.6 3176.8 1223.6 3176.6 1224 2942 1224 2941.8 1223.6 2941.8 1223.6 3059.4 1020"/><polygon points="3529.8 1019.8 3412.4 1223.4 3294.8 1019.8 3295 1019.6 3529.8 1019.6"/><polygon points="823 1223.6 822.8 1224 588.2 1224 588 1223.6 705.6 1020"/><polygon points="1646.8 1019.8 1646.2 1020.8 1529.4 1223.2 1411.8 1019.8 1412 1019.6 1646.8 1019.6"/><polygon points="1882.2 1019.8 1882.2 1019.8 1828 1113.4 1764.8 1223.2 1647.2 1019.8 1647.4 1019.6 1882 1019.6"/><polygon points="3882.8 1224 3765.4 1427.2 3648 1224"/><polygon points="234.2 1428.4 117.2 1631 .2 1428.4"/><polygon points="117 1631.4 0 1834 0 1631.4"/><polygon points="2941.2 1631.4 2919.2 1669.6 2823.8 1834.8 2706.4 1631.4"/><polygon points="3647.4 1224 3530 1427.2 3412.8 1224"/><polygon points="3882.8 1631.4 3765.4 1834.8 3648 1631.4"/><polygon points="4000 1836.8 4000 2040.2 3883.8 2040.2 3883.2 2039 3883.2 2039"/><polygon points="2234.6 2040.2 2117.8 2242.6 2001 2040.2"/><polygon points="116.4 2040.2 0 2241.8 0 2040.2"/><polygon points="234.4 1835.8 117.2 2038.6 .2 1835.8"/><polygon points="1411.6 1427.4 1411 1428.4 1177 1428.4 1176.6 1427.4 1294 1224"/><polygon points="1528.6 2040.2 1411.8 2242.6 1295 2040.2"/><polygon points="2000 2446.8 1999.4 2447.8 1765.4 2447.8 1764.8 2446.8 1882.2 2243.4 1882.6 2243.4"/><polygon points="2470 2040.2 2353.2 2242.6 2236.4 2040.2"/><polygon points="2470.8 2446.8 2470.2 2447.8 2236.2 2447.8 2235.6 2446.8 2353 2243.4 2353.4 2243.4"/><polygon points="2941.4 2446.8 2940.8 2447.8 2707 2447.8 2706.4 2446.8 2706.4 2446.8 2823.8 2243.4 2824.2 2243.4"/><polygon points="2940.6 2040.2 2823.8 2242.6 2707 2040.2"/><polygon points="2823.4 2243.4 2706.2 2446.6 2589 2243.4"/><polygon points="3411.4 2040.2 3294.6 2242.6 3177.8 2040.2"/><polygon points="3764.8 2243.4 3647.6 2446.6 3530.4 2243.4"/><polygon points="3058.6 1428.4 2941.6 1631 2824.6 1428.4"/><polygon points="3294.4 1835 3294 1835.8 3059.8 1835.8 3059.4 1835.2 3177 1631.6"/><polygon points="3412 1631.4 3294.6 1834.8 3177.2 1631.4"/><polygon points="3882.2 2040.2 3828.6 2133 3765.4 2242.6 3648.6 2040.2"/><polygon points="1881.8 1835.8 1764.8 2038.8 1647.6 1835.8"/><polygon points="1881.6 1428.4 1764.8 1631 1647.8 1428.4"/><polygon points="469.8 2243.4 352.6 2446.6 235.4 2243.4"/><polygon points="823.2 2039 822.4 2040.2 588.8 2040.2 588 2039 705.2 1835.8 705.8 1835.8"/><polygon points="705 1835.8 588 2038.6 535.4 1947.6 470.8 1835.8"/><polygon points="705.2 2243.4 588 2446.6 470.8 2243.4"/><polygon points="1058.6 2446.8 1058 2447.8 824 2447.8 823.4 2446.6 940.8 2243.4 941 2243.4"/><polygon points="1176.2 1427.4 1175.6 1428.4 941.6 1428.4 941.2 1427.4 1058.6 1224"/><polygon points="117 2446.8 116.4 2447.8 0 2447.8 0 2244.2"/></g><g class="st2"><polygon points="2235.2 1223.6 2235 1224 2000.6 1224 2000.4 1223.6 2117.8 1020"/><polygon points="2588.4 1427.4 2588.4 1427.4 2587.8 1428.4 2353.8 1428.4 2353.4 1427.4 2470.8 1224"/></g><g class="st3"><polygon points="1176.2 204.4 941 204.4 1058.6 .8"/><polygon points="2706.2 .6 2588.6 204.2 2471 .6 2471.4 0 2705.8 0"/><polygon points="352.4 .6 234.6 204.2 117.2 .8 117.6 0 352 0"/><polygon points="2470.4 407.6 2236 407.6 2353.2 204.8"/><polygon points="4000 204.4 4000 205.8 3883.4 407.6 3883 407.6 3809 279.4 3765.6 204.4"/><polygon points="3765.2 612 3530.4 612 3647.8 408.6"/><polygon points="2117.6 612 1882.6 612 2000.2 408.6"/><polygon points="2353 612 2118 612 2235.4 408.6"/><polygon points="2706.2 408.4 2588.6 611.8 2471 408.2 2471.4 407.6 2705.6 407.6"/><polygon points="1529.2 408.2 1411.6 611.8 1294.2 408.4 1294.6 407.6 1528.8 407.6"/><polygon points="705.2 612 470.4 612 587.8 408.6"/><polygon points="3059.2 612.2 2941.6 815.6 2899.6 742.8 2824.2 612 2824.2 612 3059 612"/><polygon points="3294.4 1019.6 3059.6 1019.6 3177 816.4 3177 816.4"/><polygon points="705.2 1019.6 470.4 1019.6 587.8 816.4 588 816.4"/><polygon points="352.2 816 352 816.4 117.4 816.4 117.2 816 234.8 612.4"/><polygon points="1176 1019.6 941.2 1019.6 1058.6 816.4 1058.6 816.4"/><polygon points="822.8 1224 705.6 1427.2 588.2 1224"/><polygon points="587.6 1223.6 587.6 1224 352.8 1224 352.6 1223.6 470.2 1020"/><polygon points="4000 1429.2 4000 1631.4 3883.4 1631.4 3883.2 1631.4"/><polygon points="940.2 1428.4 823.2 1631 706.2 1428.4"/><polygon points="3176 2040.2 3059.2 2242.6 2942.4 2040.2"/><polygon points="2823.2 1428.4 2737.4 1577 2706.2 1631 2589.2 1428.4"/><polygon points="2823.2 1835.8 2706.2 2038.8 2589.2 1835.8"/><polygon points="3647.6 1223.6 3647.6 1223.6 3647.4 1224 3412.8 1224 3412.6 1223.6 3530 1020"/><polygon points="3529.8 1427.4 3529.4 1428.4 3295.4 1428.4 3294.8 1427.4 3412.4 1224"/><polygon points="3647.6 1631.2 3647.4 1631.4 3412.6 1631.4 3412.4 1631.4 3529.8 1428.4 3530.4 1428.4"/><polygon points="705.4 1835.2 705 1835.8 470.8 1835.8 470.4 1835 587.8 1631.6"/><polygon points="234.6 1835.2 234.4 1835.8 .2 1835.8 0 1835.6 0 1834.4 117 1631.6"/><polygon points="3176.6 1631.4 3101 1762.2 3059.2 1834.8 2941.8 1631.4"/><polygon points="2353 2242.8 2352.6 2243.4 2118.2 2243.4 2118 2242.8 2235 2040.2 2236 2040.2"/><polygon points="705.4 2243 705.2 2243.4 470.8 2243.4 470.4 2242.8 587.2 2040.2 588.4 2040.2"/><polygon points="1175.6 1428.4 1058.6 1631 941.6 1428.4"/><polygon points="1764.6 1631.4 1764.4 1631.4 1529.8 1631.4 1529.6 1631.2 1646.8 1428.4 1647.4 1428.4"/><polygon points="1411.2 1835.8 1294 2038.8 1177 1835.8"/><polygon points="1294 2446.8 1293.4 2447.8 1059.4 2447.8 1058.8 2446.8 1176.2 2243.4 1176.4 2243.4"/><polygon points="1646.6 2243.4 1529.4 2446.6 1412.2 2243.4"/><polygon points="2235.2 1631.4 2117.8 1834.8 2000.4 1631.4"/></g><g class="st4"><polygon points="2235.4 .6 2117.8 204.2 2000.2 .6 2000.6 0 2235 0"/><polygon points="1882.2 204.4 1647.2 204.4 1764.8 .8"/><polygon points="1529.2 .6 1411.6 204.2 1294 .6 1294.4 0 1528.8 0"/><polygon points="3647.6 .8 3530.2 204.2 3412.6 .6 3412.8 0 3647.2 0"/><polygon points="3176.8 .8 3059.4 204.2 2941.8 .6 2942.2 0 3176.4 0"/><polygon points="3883 .8 3765.6 204.2 3648 .6 3648.2 0 3882.6 0"/><polygon points="2823.8 204.6 2706.6 407.6 2706 407.6 2588.8 204.4 2588.8 204.4 2823.8 204.4"/><polygon points="3530 204.6 3412.6 407.6 3412.2 407.6 3294.8 204.4 3529.8 204.4"/><polygon points="705.4 204.4 470.4 204.4 587.8 .8"/><polygon points="1176 612 941.2 612 1058.6 408.6"/><polygon points="470 204.4 373.2 372 352.6 407.6 352.2 407.6 234.8 204.6 235 204.4"/><polygon points="1058 407.6 823.8 407.6 941 204.8"/><polygon points="1999.6 407.6 1765.4 407.6 1882.4 204.8"/><polygon points="4000 407.6 4000 610.2 3883.4 408.2 3883.6 407.6"/><polygon points="3176.8 408.4 3059.4 611.8 2941.8 408.2 2942.2 407.6 3176.4 407.6"/><polygon points="1646.8 612 1412 612 1529.4 408.6"/><polygon points="234.6 612 0 612 0 611.4 117 408.6"/><polygon points="823 408.2 736.8 557.4 705.4 611.8 588 408.4 588.4 407.6 822.6 407.6"/><polygon points="940.8 1019.8 823.2 1223.2 705.8 1019.8 705.8 1019.6 940.6 1019.6"/><polygon points="1058.4 815.8 1058 816.4 823.6 816.4 823.4 816 941 612.4"/><polygon points="3530 612.2 3530 612.2 3412.4 815.6 3294.8 612 3295 612 3529.8 612"/><polygon points="2117.6 612 2000.2 815.6 1882.6 612 1882.6 612"/><polygon points="1882.2 612 1764.8 815.6 1647.2 612 1647.4 612"/><polygon points="2588.4 612.2 2470.8 815.6 2353.4 612 2353.4 612 2588.4 612"/><polygon points="1528.8 816.4 1464.4 928.2 1411.6 1019.4 1294.4 816.4"/><polygon points="2352.8 1019.6 2118.2 1019.6 2235.4 816.4 2235.6 816.4"/><polygon points="2117.6 1019.6 1882.8 1019.6 2000 816.4 2000.2 816.4"/><polygon points="1764.2 816.4 1647 1019.4 1529.8 816.4"/><polygon points="3882.8 816.4 3765.4 1019.4 3648.2 816.4"/><polygon points="3176.6 816.4 3059.4 1019.4 2942.2 816.4"/><polygon points="2823.6 1019.6 2588.8 1019.6 2706.2 816.4 2706.4 816.4"/><polygon points="234.4 1019.6 0 1019.6 0 1019 117 816.4 117.2 816.4"/><polygon points="3059.2 1019.8 2941.6 1223.2 2824.2 1019.8 2824.2 1019.6 3059 1019.6"/><polygon points="4000 1019.6 4000 1021 3883.2 1223.4 3765.6 1019.8 3765.8 1019.6"/><polygon points="2470.6 1223.6 2470.4 1224 2236 1224 2235.6 1223.6 2235.6 1223.6 2353.2 1020"/><polygon points="1529.2 1223.6 1529 1224 1294.4 1224 1294.2 1223.6 1411.6 1020"/><polygon points="1176 1019.8 1058.6 1223.2 941 1019.8 941.2 1019.6 1176 1019.6"/><polygon points="3412.2 1223.6 3412 1224 3177.4 1224 3177.2 1223.6 3294.6 1020"/><polygon points="4000 1224 4000 1425.8 3883.4 1224"/><polygon points="352.2 1224 234.8 1427.2 117.4 1224"/><polygon points="3883 1631.2 3882.8 1631.4 3648 1631.4 3647.8 1631.4 3765.2 1428.4 3765.8 1428.4"/><polygon points="587.8 1631.4 587.6 1631.4 352.8 1631.4 352.6 1631.2 469.8 1428.4 470.4 1428.4"/><polygon points="117 1631.4 117 1631.4 0 1631.4 0 1428.8"/><polygon points="4000 1835.8 4000 1836.2 3883 2038.8 3766 1835.8"/><polygon points="1293.2 2040.2 1176.4 2242.6 1059.6 2040.2"/><polygon points="469.6 1835.8 352.6 2038.6 235.4 1835.8"/><polygon points="117 2039 116.4 2040.2 0 2040.2 0 1836.4"/><polygon points="2706.2 2446.8 2705.4 2447.8 2471.6 2447.8 2471 2446.8 2588.4 2243.4 2588.8 2243.4"/><polygon points="4000 2243.4 4000 2243.8 3883 2446.6 3765.8 2243.4"/><polygon points="3294 1835.8 3283 1855 3176.8 2038.8 3059.8 1835.8"/><polygon points="3529.8 1835 3529.4 1835.8 3295.2 1835.8 3294.8 1835.2 3412.4 1631.6"/><polygon points="3059.2 1427.4 3058.6 1428.4 2824.6 1428.4 2824.2 1427.4 2941.6 1224"/><polygon points="3646.8 2040.2 3646.6 2040.4 3530 2242.6 3413.2 2040.2"/><polygon points="3529.4 2243.4 3412.2 2446.6 3295 2243.4"/><polygon points="3058.8 2243.4 2941.6 2446.6 2824.4 2243.4"/><polygon points="2117.4 2243.4 2000.2 2446.6 1882.8 2243.4"/><polygon points="2705.8 1631.4 2588.6 1834.8 2471.2 1631.4"/><polygon points="1058.4 2039 1057.8 2040.2 824.2 2040.2 823.4 2039 940.6 1835.8 941.2 1835.8"/><polygon points="940.8 1835.2 940.4 1835.8 706.2 1835.8 705.8 1835 823.2 1631.6"/><polygon points="940.6 2243.4 823.2 2446.6 706 2243.4"/><polygon points="587.8 2446.8 587.2 2447.8 353.4 2447.8 352.6 2446.6 352.6 2446.6 470 2243.4 470.4 2243.4"/><polygon points="234.4 2243.4 117.2 2446.4 0 2243.4"/><polygon points="1999.8 1631.4 1882.4 1834.8 1765 1631.4"/><polygon points="1529.2 1631.4 1529 1631.4 1294.4 1631.4 1294.2 1631.2 1411.4 1428.4 1412 1428.4"/><polygon points="1999.6 1224 1882.4 1427 1808.4 1298.8 1765.2 1224"/><polygon points="1764.6 2039 1763.8 2040.2 1530.2 2040.2 1529.6 2039 1646.8 1835.8 1647.4 1835.8"/><polygon points="2352.4 1428.4 2235.4 1631 2118.6 1428.4"/><polygon points="2000 2039 1999.2 2040.2 1765.6 2040.2 1765 2039 1882.2 1835.8 1882.6 1835.8"/></g><g class="st5"><polygon points="234.6 204.4 234.6 204.4 0 204.4 0 203.8 117.2 .8"/><polygon points="1764.6 .6 1764.6 .6 1647 204.2 1529.4 .6 1529.8 0 1764.2 0"/><polygon points="1293.8 .6 1176.2 204.2 1058.6 .8 1059.2 0 1293.4 0"/><polygon points="2941.4 408.4 2941.4 408.4 2824 611.8 2706.4 408.2 2706.8 407.6 2941 407.6"/><polygon points="2823.8 204.4 2588.8 204.4 2706.2 .8"/><polygon points="3294.4 204.4 3059.6 204.4 3177 .8"/><polygon points="3765.2 204.4 3530.2 204.4 3530.2 204.4 3647.8 .8"/><polygon points="4000 0 4000 202.6 3990.8 186.6 3883.4 .6 3883.6 0"/><polygon points="3059.2 204.4 2824.2 204.4 2941.6 .8"/><polygon points="117 .6 9.4 186.6 0 203 0 0 116.6 0"/><polygon points="1293.8 815.8 1293.4 816.4 1059 816.4 1058.8 816 1176.4 612.4"/><polygon points="940.8 204.4 705.8 204.4 823.2 .8"/><polygon points="2117.6 204.4 2000.4 407.6 1999.8 407.6 1882.6 204.4 1882.6 204.4 1882.6 204.4"/><polygon points="2588.4 204.6 2471.2 407.6 2470.6 407.6 2353.4 204.4 2353.4 204.4 2588.4 204.4"/><polygon points="3411.8 407.6 3177.6 407.6 3294.6 204.8"/><polygon points="1528.8 407.6 1294.6 407.6 1411.6 204.8"/><polygon points="1176.2 204.4 1058.8 407.6 1058.4 407.6 941 204.6 941 204.4"/><polygon points="3882.6 407.6 3648.4 407.6 3765.4 204.6"/><polygon points="4000 206.2 4000 407.6 3883.6 407.6"/><polygon points="3412.2 408.4 3294.8 611.8 3263.4 557.4 3177.2 408.2 3177.6 407.6 3411.8 407.6"/><polygon points="470 612 235 612 352.4 408.6"/><polygon points="940.6 612 705.8 612 823.2 408.6"/><polygon points="1411.4 612 1176.6 612 1294 408.6"/><polygon points="705.4 612 587.8 815.6 470.2 612.2 470.4 612 705.2 612"/><polygon points="4000 612 4000 613.4 3883.2 815.6 3765.6 612 3765.6 612"/><polygon points="2000 816 1999.6 816.4 1765.2 816.4 1765 816 1765 816 1882.4 612.4"/><polygon points="1999.6 816.4 1882.4 1019.4 1765.2 816.4"/><polygon points="3176.8 816 3176.8 816 3176.6 816.4 2942.2 816.4 2941.8 815.8 3059.4 612.4"/><polygon points="2941.2 816.4 2824 1019.4 2717.8 835.4 2706.8 816.4"/><polygon points="2823.8 612.2 2706.4 815.6 2588.8 612 2588.8 612 2823.6 612"/><polygon points="2470.6 816 2470.4 816.4 2236 816.4 2235.6 815.8 2353.2 612.4"/><polygon points="234.6 612 117 815.6 0 613 0 612"/><polygon points="4000 613.8 4000 816.4 3883.6 816.4 3883.4 816"/><polygon points="3647.4 816.4 3530 1019.4 3412.8 816.4"/><polygon points="587.4 816.4 470.2 1019.4 352.8 816.4"/><polygon points="352 816.4 234.8 1019.4 117.4 816.4"/><polygon points="1411.4 1019.6 1176.6 1019.6 1294 816.4 1294 816.4"/><polygon points="940.6 1019.6 705.8 1019.6 823.2 816.4 823.2 816.4"/><polygon points="3765.2 1019.8 3765.2 1019.8 3647.8 1223.4 3530.2 1019.8 3530.4 1019.6 3765.2 1019.6"/><polygon points="4000 1018.8 4000 1019.6 3765.8 1019.6 3883 816.4 3883.2 816.4"/><polygon points="2000 1223.6 1999.6 1224 1765.2 1224 1765 1223.6 1882.4 1020"/><polygon points="2353 1019.8 2235.4 1223.2 2172.2 1113.4 2118 1019.8 2118 1019.8 2118.2 1019.6 2352.8 1019.6"/><polygon points="234.6 1019.8 117.2 1223.4 0 1020.6 0 1019.6 234.4 1019.6"/><polygon points="1058.4 1223.6 1058.2 1224 823.6 1224 823.4 1223.6 823.4 1223.6 941 1020"/><polygon points="4000 1021.4 4000 1224 3883.4 1224 3883.2 1223.6 3883.2 1223.6"/><polygon points="587.6 1224 470.2 1427.2 352.8 1224"/><polygon points="116.8 1224 0 1426.2 0 1224"/><polygon points="4000 1428.4 4000 1428.6 3883 1631 3766 1428.4"/><polygon points="4000 1631.4 4000 1833.6 3883.4 1631.4"/><polygon points="352.2 1631.4 234.8 1834.8 117.4 1631.4"/><polygon points="705 1428.4 588 1631 470.8 1428.4"/><polygon points="3058.6 1835.8 2941.6 2038.8 2824.4 1835.8"/><polygon points="2705.8 1224 2588.6 1427 2471.2 1224"/><polygon points="2705.4 2040.2 2588.6 2242.6 2471.8 2040.2"/><polygon points="3882.8 2039 3882.2 2040.2 3648.6 2040.2 3647.8 2039 3765.2 1835.8 3765.6 1835.8"/><polygon points="2117.6 1835.2 2117.2 1835.8 1883 1835.8 1882.6 1835.2 1882.6 1835.2 2000.2 1631.6"/><polygon points="1293.8 2039 1293.2 2040.2 1059.6 2040.2 1058.8 2039 1176 1835.8 1176.6 1835.8"/><polygon points="1882.4 2242.8 1882 2243.4 1647.6 2243.4 1647.2 2242.8 1764.2 2040.2 1765.4 2040.2"/><polygon points="3412.2 2446.6 3411.6 2447.8 3177.6 2447.8 3177 2446.8 3294.4 2243.4 3294.8 2243.4"/><polygon points="3647.4 1631.4 3530 1834.8 3412.6 1631.4"/><polygon points="3412.2 1631.2 3412 1631.4 3177.2 1631.4 3177.2 1631.4 3294.4 1428.4 3295 1428.4"/><polygon points="3294.4 1427.4 3294 1428.4 3060 1428.4 3059.4 1427.4 3177 1224"/><polygon points="4000 2241.8 4000 2243.4 3765.8 2243.4 3765.6 2243 3882.6 2040.2 3883.6 2040.2"/><polygon points="3765.2 2242.8 3764.8 2243.4 3530.4 2243.4 3530.2 2243 3647.2 2040.2 3648.4 2040.2"/><polygon points="4000 2244.6 4000 2447.8 3883.8 2447.8 3883.2 2446.8"/><polygon points="3529.4 1835.8 3464.8 1947.6 3412.2 2038.8 3295.2 1835.8"/><polygon points="3176.8 2446.8 3176.2 2447.8 2942.4 2447.8 2941.6 2446.8 3059.2 2243.4 3059.4 2243.4"/><polygon points="2353 1835 2353 1835.2 2352.6 1835.8 2118.4 1835.8 2118 1835.2 2235.4 1631.6"/><polygon points="2470.6 1631.2 2470.4 1631.4 2235.8 1631.4 2235.6 1631.2 2352.8 1428.4 2353.6 1428.4"/><polygon points="2470.6 2039 2470.6 2039 2470 2040.2 2236.4 2040.2 2235.6 2039 2353 1835.8 2353.4 1835.8"/><polygon points="1529 1224 1411.8 1427 1294.4 1224"/><polygon points="1411 1428.4 1294 1631 1262.8 1577 1177 1428.4"/><polygon points="1293.8 1631.4 1176.4 1834.8 1081 1669.6 1059 1631.4"/><polygon points="587 2040.2 470.2 2242.6 353.6 2040.4 353.6 2040.2"/><polygon points="352.4 2446.8 351.8 2447.8 118 2447.8 117.4 2446.6 234.6 2243.4 235 2243.4"/><polygon points="1057.8 2040.2 941 2242.6 824.2 2040.2"/><polygon points="1058.4 1631.4 1058.4 1631.4 823.6 1631.4 823.4 1631.2 940.6 1428.4 941.2 1428.4"/><polygon points="1646.4 1428.4 1529.4 1631 1444.8 1484.2 1412.4 1428.4"/><polygon points="1529.2 2039 1528.6 2040.2 1295 2040.2 1294.2 2039 1411.4 1835.8 1412 1835.8"/><polygon points="1176 2243.4 1058.6 2446.6 941.4 2243.4"/><polygon points="2353 1427.4 2353 1427.4 2352.4 1428.4 2118.6 1428.4 2118 1427.4 2235.4 1224 2235.4 1224"/><polygon points="1764.6 2446.8 1764 2447.8 1530.2 2447.8 1529.4 2446.8 1646.8 2243.4 1647.2 2243.4"/><polygon points="2117 1428.4 2000.2 1631 1883.2 1428.4"/><polygon points="1764.4 1224 1647 1427 1626.6 1391.6 1529.8 1224"/><polygon points="1411.2 2243.4 1294 2446.6 1176.8 2243.4"/></g><g class="st6"><polygon points="2000 .6 1882.4 204.2 1764.8 .6 1765.2 0 1999.6 0"/><polygon points="2588.4 204.4 2353.4 204.4 2470.8 .8"/><polygon points="2941.6 .6 2824 204.2 2706.4 .6 2706.8 0 2941.2 0"/><polygon points="3294.6 204.6 3177.4 407.6 3176.8 407.6 3059.4 204.4 3059.6 204.4 3294.4 204.4"/><polygon points="1411.6 204.4 1294.2 407.6 1293.6 407.6 1176.4 204.6 1176.4 204.4"/><polygon points="3883 408.4 3765.6 611.8 3648 408.2 3648.4 407.6 3882.6 407.6"/><polygon points="3294.4 612 3059.6 612 3177 408.6"/><polygon points="3412.2 816 3412 816.4 3177.4 816.4 3177.2 815.8 3294.6 612.4"/></g><g class="st7"><polygon points="2117.6 204.4 1882.6 204.4 2000.2 .8"/><polygon points="1646.8 204.4 1411.8 204.4 1529.4 .8"/><polygon points="3412.2 .8 3294.8 204.2 3177.2 .6 3177.4 0 3411.8 0"/><polygon points="1764.2 407.6 1530 407.6 1647 204.8"/><polygon points="3176.4 407.6 2942.2 407.6 3059.4 204.8"/><polygon points="2705.6 407.6 2471.4 407.6 2588.6 204.8"/><polygon points="3765.4 204.6 3648 407.6 3647.6 407.6 3627.2 372 3530.2 204.4 3765.2 204.4"/><polygon points="234.6 204.4 191.2 279.4 117.2 407.6 116.8 407.6 0 205.4 0 204.4"/><polygon points="470 204.4 470 204.4 235 204.4 352.4 .8"/><polygon points="822.6 407.6 588.4 407.6 705.6 204.8"/><polygon points="1293.4 407.6 1059.2 407.6 1176.4 204.6"/><polygon points="1764.6 408.2 1647 611.8 1529.6 408.4 1530 407.6 1764.2 407.6"/><polygon points="117 408.2 0 610.8 0 407.6 116.6 407.6"/><polygon points="352.2 408.2 234.8 611.8 117.2 408.4 117.6 407.6 352 407.6"/><polygon points="940.8 612 918.8 650 823.2 815.6 705.6 612.2 705.8 612 940.6 612"/><polygon points="1646.8 612 1529.4 815.6 1411.8 612.2 1412 612"/><polygon points="2235.4 816 2235 816.4 2000.6 816.4 2000.4 816 2117.8 612.4"/><polygon points="2706 816 2705.8 816.4 2471.4 816.4 2471 815.8 2588.6 612.4"/><polygon points="587.6 815.8 587.6 815.8 587.4 816.4 352.8 816.4 352.6 816 470.2 612.4"/><polygon points="1646.8 1019.6 1412 1019.6 1529.2 816.4 1529.4 816.4"/><polygon points="4000 816.4 4000 1018 3883.6 816.4"/><polygon points="3883 816 3882.8 816.4 3648.2 816.4 3648 815.8 3765.4 612.4"/><polygon points="3647.6 816 3647.4 816.4 3412.8 816.4 3412.6 815.8 3530 612.4"/><polygon points="3765.2 1019.6 3530.4 1019.6 3647.6 816.4 3647.8 816.4"/><polygon points="3294.4 1019.8 3177 1223.2 3059.6 1019.8 3059.6 1019.6 3294.4 1019.6"/><polygon points="3059 1019.6 2824.2 1019.6 2941.6 816.4 2941.6 816.4"/><polygon points="3412 816.4 3294.6 1019.4 3177.4 816.4"/><polygon points="3529.8 1019.6 3295 1019.6 3412.2 816.4 3412.4 816.4"/><polygon points="2705.8 816.4 2588.6 1019.4 2536 928.2 2471.4 816.4"/><polygon points="116.6 816.4 0 1018.4 0 816.4"/><polygon points="1058 816.4 941 1019.4 823.6 816.4"/><polygon points="2823.8 1019.8 2706.2 1223.2 2588.8 1019.8 2588.8 1019.6 2823.6 1019.6"/><polygon points="2588.4 1019.8 2470.8 1223.2 2354 1020.8 2353.4 1019.6 2353.4 1019.6 2588.2 1019.6"/><polygon points="2117.6 1019.8 2010 1206.2 2000.2 1223.2 1990.4 1206.2 1882.6 1019.8 1882.8 1019.6 2117.6 1019.6"/><polygon points="470 1019.8 352.4 1223.4 235 1019.8 235.2 1019.6 469.8 1019.6"/><polygon points="1293.8 1223.6 1293.6 1224 1059 1224 1058.8 1223.6 1058.8 1223.6 1176.4 1020"/><polygon points="705.4 1019.8 587.8 1223.4 470.4 1019.8 470.4 1019.6 705.2 1019.6"/><polygon points="3412 1224 3294.6 1427.2 3177.4 1224"/><polygon points="470 1427.4 469.6 1428.4 235.6 1428.4 235 1427.4 352.4 1224"/><polygon points="587.6 1631.4 470.2 1834.8 352.8 1631.4"/><polygon points="4000 1426.4 4000 1428.4 3766 1428.4 3765.6 1427.6 3883.2 1224"/><polygon points="940.8 1427.4 940.2 1428.4 706.2 1428.4 705.8 1427.4 823.2 1224"/><polygon points="352.4 1631.4 352.2 1631.4 117.4 1631.4 117.4 1631.2 234.4 1428.4 235.2 1428.4"/><polygon points="4000 1834 4000 1835.8 3766 1835.8 3765.6 1835.2 3883.2 1631.6"/><polygon points="2941.4 1631.2 2941.4 1631.2 2941.2 1631.4 2706.4 1631.4 2706.4 1631.4 2823.6 1428.4 2824.2 1428.4"/><polygon points="3765.2 1427.4 3764.8 1428.4 3530.6 1428.4 3530.2 1427.6 3647.8 1224"/><polygon points="4000 2040.2 4000 2241.4 3883.8 2040.2"/><polygon points="3764.8 1428.4 3647.6 1631 3530.6 1428.4"/><polygon points="2235.4 2039 2234.6 2040.2 2001 2040.2 2000.2 2039 2000.2 2039 2117.6 1835.8 2118 1835.8"/><polygon points="351.8 2040.2 235 2242.6 171.6 2133 118.2 2040.2"/><polygon points="587.8 2039 587 2040.2 353.6 2040.2 352.8 2039 470 1835.8 470.4 1835.8"/><polygon points="3294.4 2242.8 3294.2 2243.4 3059.6 2243.4 3059.4 2243 3176.4 2040.2 3177.6 2040.2"/><polygon points="3294.2 2243.4 3177 2446.6 3059.6 2243.4"/><polygon points="1411.6 1835.2 1411.2 1835.8 1177 1835.8 1176.4 1835 1294 1631.6"/><polygon points="1647 2242.8 1646.6 2243.4 1412.2 2243.4 1411.8 2242.8 1528.8 2040.2 1530 2040.2"/><polygon points="2823.8 2242.8 2823.4 2243.4 2589 2243.4 2588.6 2243 2705.6 2040.2 2706.8 2040.2"/><polygon points="2588 2243.4 2470.8 2446.6 2353.6 2243.4"/><polygon points="2941.2 1224 2823.8 1427 2706.6 1224"/><polygon points="3529.8 2242.8 3529.4 2243.4 3295 2243.4 3294.8 2243 3411.8 2040.2 3413 2040.2"/><polygon points="3764.8 1835.8 3647.6 2038.6 3530.6 1835.8"/><polygon points="3647.6 2446.6 3647.6 2446.6 3646.8 2447.8 3413 2447.8 3412.4 2446.8 3529.8 2243.4 3530.2 2243.4"/><polygon points="3176.8 1631.2 3176.6 1631.4 2941.8 1631.4 2941.8 1631.4 3059 1428.4 3059.6 1428.4"/><polygon points="2588.4 1835 2587.8 1835.8 2353.8 1835.8 2353.4 1835.2 2470.8 1631.6"/><polygon points="2117.6 2242.8 2117.4 2243.4 1882.8 2243.4 1882.6 2242.8 1999.6 2040.2 2000.6 2040.2"/><polygon points="2235.4 2446.8 2234.8 2447.8 2000.8 2447.8 2000.2 2446.8 2117.6 2243.4 2118 2243.4"/><polygon points="2352.6 2243.4 2235.4 2446.6 2118.2 2243.4"/><polygon points="1175.8 1835.8 1058.6 2038.8 941.6 1835.8"/><polygon points="822.4 2040.2 705.6 2242.6 588.8 2040.2"/><polygon points="1293.6 1224 1176.4 1427 1059 1224"/><polygon points="823.2 2446.8 822.6 2447.8 588.8 2447.8 588 2446.6 588 2446.6 705.4 2243.4 705.8 2243.4"/><polygon points="1647 1835.2 1646.4 1835.8 1412.4 1835.8 1411.8 1835 1529.4 1631.6"/><polygon points="1411.6 2243 1411.2 2243.4 1176.8 2243.4 1176.4 2242.8 1293.4 2040.2 1294.6 2040.2"/><polygon points="2117.6 1427.4 2117 1428.4 1883.2 1428.4 1882.6 1427.4 2000.2 1224"/><polygon points="1529.2 2446.8 1528.6 2447.8 1294.8 2447.8 1294.2 2446.8 1411.6 2243.4 1411.8 2243.4"/><polygon points="1882.2 1835.2 1881.8 1835.8 1647.6 1835.8 1647.2 1835.2 1764.8 1631.6"/><polygon points="1646.8 1427.4 1646.4 1428.4 1412.4 1428.4 1412 1427.4 1529.4 1224"/><polygon points="2470.4 1224 2373.6 1391.6 2353.2 1427 2236 1224"/><polygon points="2235.4 1631.2 2235.2 1631.4 2000.4 1631.4 2000.4 1631.2 2117.4 1428.4 2118.2 1428.4"/><polygon points="1882 2243.4 1764.8 2446.6 1647.6 2243.4"/></g></g></svg>