<svg xmlns="http://www.w3.org/2000/svg" xmlns:xlink="http://www.w3.org/1999/xlink" id="Layer_1" x="0" y="0" version="1.1" viewBox="0 0 400 250" style="enable-background:new 0 0 400 250" xml:space="preserve"><style type="text/css">.st0{fill:#3c3c00}</style><g><polygon points="200 109.6 200 109.6 199 110 0 22 0 39.5 .2 39 179.9 118.4 178.6 119 0 40 0 57.5 .2 57 159.5 127.4" class="st0"/><polygon points="399.8 198.7 239.8 128 220.7 136.5 400 215.7 400 198.2" class="st0"/><polygon points="399.8 216.7 219.4 137 200.2 145.4 324.3 200.2 400 233.6 400 216.2" class="st0"/></g><g><polygon points=".2 198.7 0 198.2 0 215.7 399.8 39 400 39.5 400 22" class="st0"/><polygon points=".2 216.7 0 216.2 0 233.6 73.9 201.1 399.8 57 400 57.5 400 40" class="st0"/><polygon points="41.8 179.2 0 197.6 0 197.7" class="st0"/></g></svg>