<?xml version="1.0" encoding="utf-8"?>
<!-- Generator: Adobe Illustrator 27.4.1, SVG Export Plug-In . SVG Version: 6.00 Build 0)  -->
<svg version="1.1" id="Layer_1" xmlns="http://www.w3.org/2000/svg" xmlns:xlink="http://www.w3.org/1999/xlink" x="0px" y="0px"
	 viewBox="0 0 100 120" style="enable-background:new 0 0 100 120;" xml:space="preserve">
<style type="text/css">
	.st0{opacity:0.1;clip-path:url(#SVGID_00000176761896670608583220000010526804142037678260_);}
	.st1{stroke:#FFFFFF;stroke-miterlimit:10;}
	.st2{fill:none;stroke:#FFFFFF;stroke-miterlimit:10;}
	.st3{fill:#FFFFFF;}
</style>
<g>
	<defs>
		<rect id="SVGID_1_" x="5" width="90" height="120"/>
	</defs>
	<clipPath id="SVGID_00000034091483683681308590000011790548626901950619_">
		<use xlink:href="#SVGID_1_"  style="overflow:visible;"/>
	</clipPath>
	<g style="opacity:0.1;clip-path:url(#SVGID_00000034091483683681308590000011790548626901950619_);">
		<g>
			<g>
				<polyline class="st1" points="182.79,112.42 57.79,-5.58 1.79,-6.58 126.79,111.42 				"/>
				<line class="st2" x1="5.29" y1="-6.52" x2="130.29" y2="111.48"/>
				<line class="st2" x1="8.79" y1="-6.46" x2="133.79" y2="111.54"/>
				<line class="st2" x1="12.29" y1="-6.39" x2="137.29" y2="111.61"/>
				<line class="st2" x1="15.79" y1="-6.33" x2="140.79" y2="111.67"/>
				<line class="st2" x1="19.29" y1="-6.27" x2="144.29" y2="111.73"/>
				<line class="st2" x1="22.79" y1="-6.21" x2="147.79" y2="111.79"/>
				<line class="st2" x1="26.29" y1="-6.14" x2="151.29" y2="111.86"/>
				<line class="st2" x1="29.79" y1="-6.08" x2="154.79" y2="111.92"/>
				<line class="st2" x1="33.29" y1="-6.02" x2="158.29" y2="111.98"/>
				<line class="st2" x1="36.79" y1="-5.96" x2="161.79" y2="112.04"/>
				<line class="st2" x1="40.29" y1="-5.89" x2="165.29" y2="112.11"/>
				<line class="st2" x1="43.79" y1="-5.83" x2="168.79" y2="112.17"/>
				<line class="st2" x1="47.29" y1="-5.77" x2="172.29" y2="112.23"/>
				<line class="st2" x1="50.79" y1="-5.71" x2="175.79" y2="112.29"/>
				<line class="st2" x1="54.29" y1="-5.64" x2="179.29" y2="112.36"/>
			</g>
			<g>
				<g>
					<circle cx="95" cy="0" r="29.5"/>
					<path class="st3" d="M95-29c15.99,0,29,13.01,29,29s-13.01,29-29,29S66,15.99,66,0S79.01-29,95-29 M95-30
						C78.43-30,65-16.57,65,0s13.43,30,30,30s30-13.43,30-30S111.57-30,95-30L95-30z"/>
				</g>
				<g>
					<circle cx="95" cy="0" r="24.5"/>
					<path class="st3" d="M95-24c13.23,0,24,10.77,24,24s-10.77,24-24,24S71,13.23,71,0S81.77-24,95-24 M95-25
						C81.19-25,70-13.81,70,0s11.19,25,25,25s25-11.19,25-25S108.81-25,95-25L95-25z"/>
				</g>
				<g>
					<circle cx="95" cy="0" r="19.5"/>
					<path class="st3" d="M95-19c10.48,0,19,8.52,19,19s-8.52,19-19,19S76,10.48,76,0S84.52-19,95-19 M95-20c-11.05,0-20,8.95-20,20
						s8.95,20,20,20s20-8.95,20-20S106.05-20,95-20L95-20z"/>
				</g>
				<g>
					<circle cx="95" cy="0" r="14.5"/>
					<path class="st3" d="M95-14c7.72,0,14,6.28,14,14s-6.28,14-14,14S81,7.72,81,0S87.28-14,95-14 M95-15c-8.28,0-15,6.72-15,15
						s6.72,15,15,15s15-6.72,15-15S103.28-15,95-15L95-15z"/>
				</g>
				<g>
					<circle cx="95" cy="0" r="9.5"/>
					<path class="st3" d="M95-9c4.96,0,9,4.04,9,9s-4.04,9-9,9s-9-4.04-9-9S90.04-9,95-9 M95-10c-5.52,0-10,4.48-10,10
						s4.48,10,10,10s10-4.48,10-10S100.52-10,95-10L95-10z"/>
				</g>
				<g>
					<circle cx="95" cy="0" r="4.5"/>
					<path class="st3" d="M95-4c2.21,0,4,1.79,4,4s-1.79,4-4,4s-4-1.79-4-4S92.79-4,95-4 M95-5c-2.76,0-5,2.24-5,5s2.24,5,5,5
						s5-2.24,5-5S97.76-5,95-5L95-5z"/>
				</g>
			</g>
		</g>
		<g>
			<g>
				<polyline class="st1" points="6.86,139.65 113.07,4.49 117.14,60.35 10.93,195.51 				"/>
				<line class="st2" x1="113.33" y1="7.98" x2="7.11" y2="143.14"/>
				<line class="st2" x1="113.58" y1="11.47" x2="7.37" y2="146.63"/>
				<line class="st2" x1="113.83" y1="14.96" x2="7.62" y2="150.12"/>
				<line class="st2" x1="114.09" y1="18.45" x2="7.88" y2="153.61"/>
				<line class="st2" x1="114.34" y1="21.95" x2="8.13" y2="157.11"/>
				<line class="st2" x1="114.6" y1="25.44" x2="8.39" y2="160.6"/>
				<line class="st2" x1="114.85" y1="28.93" x2="8.64" y2="164.09"/>
				<line class="st2" x1="115.11" y1="32.42" x2="8.89" y2="167.58"/>
				<line class="st2" x1="115.36" y1="35.91" x2="9.15" y2="171.07"/>
				<line class="st2" x1="115.61" y1="39.4" x2="9.4" y2="174.56"/>
				<line class="st2" x1="115.87" y1="42.89" x2="9.66" y2="178.05"/>
				<line class="st2" x1="116.12" y1="46.39" x2="9.91" y2="181.55"/>
				<line class="st2" x1="116.38" y1="49.88" x2="10.17" y2="185.04"/>
				<line class="st2" x1="116.63" y1="53.37" x2="10.42" y2="188.53"/>
				<line class="st2" x1="116.89" y1="56.86" x2="10.67" y2="192.02"/>
			</g>
			<g>
				<g>
					<circle cx="95" cy="120" r="29.5"/>
					<path class="st3" d="M95,91c15.99,0,29,13.01,29,29s-13.01,29-29,29s-29-13.01-29-29S79.01,91,95,91 M95,90
						c-16.57,0-30,13.43-30,30s13.43,30,30,30s30-13.43,30-30S111.57,90,95,90L95,90z"/>
				</g>
				<g>
					<circle cx="95" cy="120" r="24.5"/>
					<path class="st3" d="M95,96c13.23,0,24,10.77,24,24s-10.77,24-24,24s-24-10.77-24-24S81.77,96,95,96 M95,95
						c-13.81,0-25,11.19-25,25s11.19,25,25,25s25-11.19,25-25S108.81,95,95,95L95,95z"/>
				</g>
				<g>
					<circle cx="95" cy="120" r="19.5"/>
					<path class="st3" d="M95,101c10.48,0,19,8.52,19,19s-8.52,19-19,19s-19-8.52-19-19S84.52,101,95,101 M95,100
						c-11.05,0-20,8.95-20,20s8.95,20,20,20s20-8.95,20-20S106.05,100,95,100L95,100z"/>
				</g>
				<g>
					<circle cx="95" cy="120" r="14.5"/>
					<path class="st3" d="M95,106c7.72,0,14,6.28,14,14s-6.28,14-14,14s-14-6.28-14-14S87.28,106,95,106 M95,105
						c-8.28,0-15,6.72-15,15s6.72,15,15,15s15-6.72,15-15S103.28,105,95,105L95,105z"/>
				</g>
				<g>
					<circle cx="95" cy="120" r="9.5"/>
					<path class="st3" d="M95,111c4.96,0,9,4.04,9,9s-4.04,9-9,9s-9-4.04-9-9S90.04,111,95,111 M95,110c-5.52,0-10,4.48-10,10
						s4.48,10,10,10s10-4.48,10-10S100.52,110,95,110L95,110z"/>
				</g>
				<g>
					<circle cx="95" cy="120" r="4.5"/>
					<path class="st3" d="M95,116c2.21,0,4,1.79,4,4s-1.79,4-4,4s-4-1.79-4-4S92.79,116,95,116 M95,115c-2.76,0-5,2.24-5,5
						s2.24,5,5,5s5-2.24,5-5S97.76,115,95,115L95,115z"/>
				</g>
			</g>
		</g>
		<g>
			<g>
				<polyline class="st1" points="94,122.95 -31,4.95 -87,3.95 38,121.95 				"/>
				<line class="st2" x1="-83.5" y1="4.02" x2="41.5" y2="122.02"/>
				<line class="st2" x1="-80" y1="4.08" x2="45" y2="122.08"/>
				<line class="st2" x1="-76.5" y1="4.14" x2="48.5" y2="122.14"/>
				<line class="st2" x1="-73" y1="4.2" x2="52" y2="122.2"/>
				<line class="st2" x1="-69.5" y1="4.27" x2="55.5" y2="122.27"/>
				<line class="st2" x1="-66" y1="4.33" x2="59" y2="122.33"/>
				<line class="st2" x1="-62.5" y1="4.39" x2="62.5" y2="122.39"/>
				<line class="st2" x1="-59" y1="4.45" x2="66" y2="122.45"/>
				<line class="st2" x1="-55.5" y1="4.52" x2="69.5" y2="122.52"/>
				<line class="st2" x1="-52" y1="4.58" x2="73" y2="122.58"/>
				<line class="st2" x1="-48.5" y1="4.64" x2="76.5" y2="122.64"/>
				<line class="st2" x1="-45" y1="4.7" x2="80" y2="122.7"/>
				<line class="st2" x1="-41.5" y1="4.77" x2="83.5" y2="122.77"/>
				<line class="st2" x1="-38" y1="4.83" x2="87" y2="122.83"/>
				<line class="st2" x1="-34.5" y1="4.89" x2="90.5" y2="122.89"/>
			</g>
			<g>
				<g>
					<circle cx="5" cy="120" r="29.5"/>
					<path class="st3" d="M5,91c15.99,0,29,13.01,29,29s-13.01,29-29,29s-29-13.01-29-29S-10.99,91,5,91 M5,90
						c-16.57,0-30,13.43-30,30s13.43,30,30,30s30-13.43,30-30S21.57,90,5,90L5,90z"/>
				</g>
				<g>
					<circle cx="5" cy="120" r="24.5"/>
					<path class="st3" d="M5,96c13.23,0,24,10.77,24,24s-10.77,24-24,24s-24-10.77-24-24S-8.23,96,5,96 M5,95
						c-13.81,0-25,11.19-25,25s11.19,25,25,25s25-11.19,25-25S18.81,95,5,95L5,95z"/>
				</g>
				<g>
					<circle cx="5" cy="120" r="19.5"/>
					<path class="st3" d="M5,101c10.48,0,19,8.52,19,19s-8.52,19-19,19s-19-8.52-19-19S-5.48,101,5,101 M5,100
						c-11.05,0-20,8.95-20,20s8.95,20,20,20s20-8.95,20-20S16.05,100,5,100L5,100z"/>
				</g>
				<g>
					<circle cx="5" cy="120" r="14.5"/>
					<path class="st3" d="M5,106c7.72,0,14,6.28,14,14s-6.28,14-14,14s-14-6.28-14-14S-2.72,106,5,106 M5,105c-8.28,0-15,6.72-15,15
						s6.72,15,15,15s15-6.72,15-15S13.28,105,5,105L5,105z"/>
				</g>
				<g>
					<circle cx="5" cy="120" r="9.5"/>
					<path class="st3" d="M5,111c4.96,0,9,4.04,9,9s-4.04,9-9,9s-9-4.04-9-9S0.04,111,5,111 M5,110c-5.52,0-10,4.48-10,10
						s4.48,10,10,10s10-4.48,10-10S10.52,110,5,110L5,110z"/>
				</g>
				<g>
					<circle cx="5" cy="120" r="4.5"/>
					<path class="st3" d="M5,116c2.21,0,4,1.79,4,4s-1.79,4-4,4s-4-1.79-4-4S2.79,116,5,116 M5,115c-2.76,0-5,2.24-5,5s2.24,5,5,5
						s5-2.24,5-5S7.76,115,5,115L5,115z"/>
				</g>
			</g>
		</g>
		<g>
			<polyline class="st1" points="-40.14,89.14 66.07,-46.02 70.14,9.84 -36.07,145 			"/>
			<line class="st2" x1="66.33" y1="-42.53" x2="-39.89" y2="92.63"/>
			<line class="st2" x1="66.58" y1="-39.04" x2="-39.63" y2="96.12"/>
			<line class="st2" x1="66.83" y1="-35.55" x2="-39.38" y2="99.61"/>
			<line class="st2" x1="67.09" y1="-32.06" x2="-39.12" y2="103.1"/>
			<line class="st2" x1="67.34" y1="-28.56" x2="-38.87" y2="106.6"/>
			<line class="st2" x1="67.6" y1="-25.07" x2="-38.61" y2="110.09"/>
			<line class="st2" x1="67.85" y1="-21.58" x2="-38.36" y2="113.58"/>
			<line class="st2" x1="68.11" y1="-18.09" x2="-38.11" y2="117.07"/>
			<line class="st2" x1="68.36" y1="-14.6" x2="-37.85" y2="120.56"/>
			<line class="st2" x1="68.61" y1="-11.11" x2="-37.6" y2="124.05"/>
			<line class="st2" x1="68.87" y1="-7.62" x2="-37.34" y2="127.54"/>
			<line class="st2" x1="69.12" y1="-4.12" x2="-37.09" y2="131.03"/>
			<line class="st2" x1="69.38" y1="-0.63" x2="-36.83" y2="134.53"/>
			<line class="st2" x1="69.63" y1="2.86" x2="-36.58" y2="138.02"/>
			<line class="st2" x1="69.89" y1="6.35" x2="-36.33" y2="141.51"/>
		</g>
		<g>
			<g>
				<circle cx="5" cy="0" r="29.5"/>
				<path class="st3" d="M5-29c15.99,0,29,13.01,29,29S20.99,29,5,29S-24,15.99-24,0S-10.99-29,5-29 M5-30c-16.57,0-30,13.43-30,30
					s13.43,30,30,30S35,16.57,35,0S21.57-30,5-30L5-30z"/>
			</g>
			<g>
				<circle cx="5" cy="0" r="24.5"/>
				<path class="st3" d="M5-24c13.23,0,24,10.77,24,24S18.23,24,5,24S-19,13.23-19,0S-8.23-24,5-24 M5-25C-8.81-25-20-13.81-20,0
					S-8.81,25,5,25S30,13.81,30,0S18.81-25,5-25L5-25z"/>
			</g>
			<g>
				<circle cx="5" cy="0" r="19.5"/>
				<path class="st3" d="M5-19c10.48,0,19,8.52,19,19S15.48,19,5,19s-19-8.52-19-19S-5.48-19,5-19 M5-20c-11.05,0-20,8.95-20,20
					s8.95,20,20,20s20-8.95,20-20S16.05-20,5-20L5-20z"/>
			</g>
			<g>
				<circle cx="5" cy="0" r="14.5"/>
				<path class="st3" d="M5-14c7.72,0,14,6.28,14,14S12.72,14,5,14S-9,7.72-9,0S-2.72-14,5-14 M5-15c-8.28,0-15,6.72-15,15
					s6.72,15,15,15S20,8.28,20,0S13.28-15,5-15L5-15z"/>
			</g>
			<g>
				<circle cx="5" cy="0" r="9.5"/>
				<path class="st3" d="M5-9c4.96,0,9,4.04,9,9S9.96,9,5,9s-9-4.04-9-9S0.04-9,5-9 M5-10C-0.52-10-5-5.52-5,0s4.48,10,10,10
					S15,5.52,15,0S10.52-10,5-10L5-10z"/>
			</g>
			<g>
				<circle cx="5" cy="0" r="4.5"/>
				<path class="st3" d="M5-4c2.21,0,4,1.79,4,4S7.21,4,5,4S1,2.21,1,0S2.79-4,5-4 M5-5C2.24-5,0-2.76,0,0s2.24,5,5,5s5-2.24,5-5
					S7.76-5,5-5L5-5z"/>
			</g>
		</g>
		<g>
			<g>
				<circle cx="50" cy="60" r="14.5"/>
				<path class="st3" d="M50,46c7.72,0,14,6.28,14,14s-6.28,14-14,14s-14-6.28-14-14S42.28,46,50,46 M50,45c-8.28,0-15,6.72-15,15
					s6.72,15,15,15s15-6.72,15-15S58.28,45,50,45L50,45z"/>
			</g>
			<g>
				<circle cx="50" cy="60" r="9.5"/>
				<path class="st3" d="M50,51c4.96,0,9,4.04,9,9s-4.04,9-9,9s-9-4.04-9-9S45.04,51,50,51 M50,50c-5.52,0-10,4.48-10,10
					s4.48,10,10,10s10-4.48,10-10S55.52,50,50,50L50,50z"/>
			</g>
			<g>
				<circle cx="50" cy="60" r="4.5"/>
				<path class="st3" d="M50,56c2.21,0,4,1.79,4,4s-1.79,4-4,4s-4-1.79-4-4S47.79,56,50,56 M50,55c-2.76,0-5,2.24-5,5s2.24,5,5,5
					s5-2.24,5-5S52.76,55,50,55L50,55z"/>
			</g>
		</g>
		<g>
			<path d="M92.48,29.89C77.5,28.64,65.66,16.4,65.03,1.26l-7.25-6.84l-56-1L70.31,58.1L92.48,29.89z"/>
			<path class="st3" d="M90.47,32.44l-3.85-3.64c0.66,0.19,1.32,0.36,1.99,0.51l2.48,2.34L90.47,32.44z M92.48,29.88
				c-0.49-0.04-0.97-0.09-1.45-0.15l0.9,0.85L92.48,29.88z M70.62,57.71L3.07-6.06l2.02,0.04l66.38,62.66l0.62-0.79L6.57-6
				l2.01,0.04l64.34,60.73l0.62-0.79L10.07-5.93l2.01,0.04l62.3,58.81L75,52.12L13.57-5.87l2.01,0.04l60.26,56.89l0.62-0.79
				L17.07-5.81l2.01,0.04l58.22,54.96l0.62-0.79L20.57-5.75l2.01,0.04l56.19,53.04l0.62-0.79L24.07-5.68l2.01,0.04l54.15,51.12
				l0.62-0.79L27.57-5.62l2.01,0.04L81.7,43.61l0.62-0.79L31.07-5.56l2.01,0.04l50.07,47.27l0.62-0.79L34.57-5.5l2.01,0.04
				l48.04,45.35l0.62-0.79L38.07-5.43l2.01,0.04l46,43.42l0.62-0.79L41.57-5.37l2.01,0.04l43.96,41.5l0.62-0.79L45.07-5.31
				l2.01,0.04l22.56,21.29c-0.59-0.94-1.14-1.91-1.63-2.92L48.57-5.25l2.01,0.04l16.14,15.23c-0.23-0.64-0.43-1.3-0.62-1.96
				L52.07-5.18l2.02,0.04L65.54,5.67c-0.1-0.54-0.19-1.08-0.26-1.62l-9.71-9.17l2.02,0.04l7.49,7.07c-0.03-0.47-0.05-0.95-0.06-1.43
				l-7.02-6.63L0.5-7.1L70,58.5L70.62,57.71z M89.63,33.51l-6.16-5.81c-1.03-0.43-2.03-0.91-2.99-1.45l8.53,8.05L89.63,33.51z"/>
		</g>
		<g>
			<g>
				<circle cx="95" cy="0" r="29.5"/>
				<path class="st3" d="M95-29c15.99,0,29,13.01,29,29s-13.01,29-29,29S66,15.99,66,0S79.01-29,95-29 M95-30
					C78.43-30,65-16.57,65,0s13.43,30,30,30s30-13.43,30-30S111.57-30,95-30L95-30z"/>
			</g>
			<g>
				<circle cx="95" cy="0" r="24.5"/>
				<path class="st3" d="M95-24c13.23,0,24,10.77,24,24s-10.77,24-24,24S71,13.23,71,0S81.77-24,95-24 M95-25
					C81.19-25,70-13.81,70,0s11.19,25,25,25s25-11.19,25-25S108.81-25,95-25L95-25z"/>
			</g>
			<g>
				<circle cx="95" cy="0" r="19.5"/>
				<path class="st3" d="M95-19c10.48,0,19,8.52,19,19s-8.52,19-19,19S76,10.48,76,0S84.52-19,95-19 M95-20c-11.05,0-20,8.95-20,20
					s8.95,20,20,20s20-8.95,20-20S106.05-20,95-20L95-20z"/>
			</g>
			<g>
				<circle cx="95" cy="0" r="14.5"/>
				<path class="st3" d="M95-14c7.72,0,14,6.28,14,14s-6.28,14-14,14S81,7.72,81,0S87.28-14,95-14 M95-15c-8.28,0-15,6.72-15,15
					s6.72,15,15,15s15-6.72,15-15S103.28-15,95-15L95-15z"/>
			</g>
			<g>
				<circle cx="95" cy="0" r="9.5"/>
				<path class="st3" d="M95-9c4.96,0,9,4.04,9,9s-4.04,9-9,9s-9-4.04-9-9S90.04-9,95-9 M95-10c-5.52,0-10,4.48-10,10s4.48,10,10,10
					s10-4.48,10-10S100.52-10,95-10L95-10z"/>
			</g>
			<g>
				<circle cx="95" cy="0" r="4.5"/>
				<path class="st3" d="M95-4c2.21,0,4,1.79,4,4s-1.79,4-4,4s-4-1.79-4-4S92.79-4,95-4 M95-5c-2.76,0-5,2.24-5,5s2.24,5,5,5
					s5-2.24,5-5S97.76-5,95-5L95-5z"/>
			</g>
		</g>
		<g>
			<path class="st3" d="M94,1v118H6V1H94 M95,0H5v120h90V0L95,0z"/>
		</g>
	</g>
</g>
</svg>
