<svg xmlns="http://www.w3.org/2000/svg" xmlns:xlink="http://www.w3.org/1999/xlink" id="Layer_1" x="0" y="0" version="1.1" viewBox="0 0 100 120" style="enable-background:new 0 0 100 120" xml:space="preserve"><style type="text/css">.st1{display:none;fill:#0f0}.st2{fill:#3c3c00}.st3{display:none}.st4,.st5{stroke:#fff;stroke-miterlimit:10}.st4{display:inline}.st5{fill:none}.st5,.st6{display:inline}.st7,.st8{fill:#fff}.st8{display:inline}.st9{display:none;fill:#3c3c00}</style><g><g><defs><rect id="SVGID_1_" width="90" height="120" x="5"/></defs><clipPath id="SVGID_00000150099957300387576560000006270809616728755348_"><use xlink:href="#SVGID_1_" style="overflow:visible"/></clipPath><g style="clip-path:url(#SVGID_00000150099957300387576560000006270809616728755348_)"><rect width="100" height="120" class="st1"/><g><path d="M69.6,16L53.7,1h1.5L68,13.1C68.5,14.1,69,15.1,69.6,16z M66.1,8.1L58.6,1h-1.5l9.5,9 C66.5,9.4,66.3,8.7,66.1,8.1z M85.2,39.1L44.9,1h-1.5l41.2,38.9L85.2,39.1z M65.3,4l-3.2-3h-1.5l4.9,4.7 C65.4,5.1,65.4,4.6,65.3,4z M88.2,35.4L51.8,1h-1.5l37.2,35.2L88.2,35.4z M86.7,37.2L48.3,1h-1.5l39.2,37L86.7,37.2z M65,1h-1 l1,1C65.1,1.7,65,1.3,65,1z M91.1,31.6l-2.5-2.3c-0.7-0.1-1.3-0.3-2-0.5l3.8,3.6L91.1,31.6z M92.5,29.9c-0.5,0-1-0.1-1.5-0.2 l0.9,0.9L92.5,29.9z M89.6,33.5l-6.2-5.8c-1-0.4-2-0.9-3-1.4l8.5,8L89.6,33.5z M70.6,57.7L10.5,1H9.1L70,58.5L70.6,57.7z M75,52.1L20.8,1h-1.5l55,51.9L75,52.1z M73.5,54L17.4,1H16l57,53.8L73.5,54z M76.5,50.3L24.3,1h-1.5l53,50.1L76.5,50.3z M72.1,55.8L14,1h-1.5l58.9,55.6L72.1,55.8z M82.3,42.8L38,1h-1.5l45.1,42.6L82.3,42.8z M83.8,41L41.5,1H40l43.2,40.7L83.8,41z M77.9,48.4L27.7,1h-1.5l51,48.2L77.9,48.4z M80.9,44.7L34.6,1h-1.5l47.1,44.5L80.9,44.7z M79.4,46.5L31.2,1h-1.5l49.1,46.3 L79.4,46.5z" class="st2"/><path d="M85.1,1h1c0.5,4.2,3.8,7.5,7.9,7.9v1C89.3,9.5,85.5,5.7,85.1,1z M94,4.9v-1c-1.4-0.4-2.5-1.5-2.9-2.9h-1 C90.5,3,92,4.5,94,4.9z M94,14.9v-1c-6.9-0.5-12.5-6-12.9-12.9h-1C80.5,8.5,86.5,14.5,94,14.9z M94,19.9v-1 C84.3,18.4,76.6,10.7,76.1,1h-1C75.6,11.2,83.8,19.4,94,19.9z M92.5,29.9l0.8-1C78.4,28,66.5,15.9,66,1h-1 C65.5,16.3,77.4,28.6,92.5,29.9z M94,25v-1C81.6,23.5,71.5,13.4,71,1h-1C70.5,14,81,24.5,94,25z" class="st2"/></g><g><path d="M63.5,93.5L94,54.7v1.6L64.2,94.2L63.5,93.5z M60.8,90.9L94,48.6V47L60.1,90.2L60.8,90.9z M62.5,92.5 L94,52.5v-1.6l-32.2,41L62.5,92.5z M65.9,95.8L94,60.1v-1.6L65.2,95.1L65.9,95.8z M67.7,97.4L94,63.9v-1.6L66.9,96.7L67.7,97.4z M59.1,89.3L94,44.8v-1.6L58.3,88.6L59.1,89.3z M53.9,84.4l40.1-51v-1.6l-40.8,52L53.9,84.4z M51.5,82.1l0.7,0.7L94,29.6V28 L51.5,82.1z M69.4,99L94,67.7v-1.6L68.7,98.3L69.4,99z M55.6,86L94,37.2v-1.6L54.9,85.3L55.6,86z M57.3,87.7L94,41v-1.6L56.6,87 L57.3,87.7z M71.1,100.7L94,71.5v-1.6L70.4,100L71.1,100.7z M83.8,92.2l10.2-13v-1.6L81.8,93C82.5,92.7,83.1,92.4,83.8,92.2z M78.7,94.8L94,75.3v-1.6L75.7,97.1C76.6,96.3,77.6,95.5,78.7,94.8z M87.8,90.9L94,83v-1.6l-7.8,10C86.7,91.2,87.2,91,87.8,90.9 z M91.3,90.2l2.7-3.4v-1.6l-4.1,5.3C90.3,90.4,90.8,90.3,91.3,90.2z M94,90v-1l-0.8,1.1C93.4,90,93.7,90,94,90z" class="st2"/><path d="M94,105.1v1c-4.4,0.3-8.3,2.7-10.6,6.2l-0.7-0.7C85.2,107.9,89.3,105.4,94,105.1z M86.3,115l0.8,0.7 c1.4-2.5,3.9-4.3,6.9-4.7v-1C90.7,110.4,87.9,112.3,86.3,115z M79,108.1l0.7,0.7c3.3-4.4,8.4-7.4,14.3-7.7v-1 C87.8,100.4,82.4,103.5,79,108.1z M71.7,101.2l0.7,0.7C77.5,95.5,85.3,91.3,94,91v-1C85,90.3,77,94.6,71.7,101.2z M75.3,104.6 l0.8,0.7c4.2-5.4,10.6-9,17.9-9.3v-1C86.4,95.3,79.7,99,75.3,104.6z M90.2,118.7l0.3,0.3h0.6c0.4-1.4,1.5-2.5,2.9-2.9v-1 C92.2,115.5,90.7,116.9,90.2,118.7z" class="st2"/></g><g><path d="M10.9,90.6L6,86v-1.4l6.9,6.5C12.2,90.9,11.6,90.7,10.9,90.6z M34.8,116.3l2.8,2.7H39l-4.5-4.2 C34.6,115.3,34.7,115.8,34.8,116.3z M35,119h0.6l-0.7-0.6C35,118.6,35,118.8,35,119z M18.7,93.3L6,81.3v1.4l9.9,9.3 C16.9,92.4,17.8,92.9,18.7,93.3z M34,112.4l7,6.6h1.5l-9-8.5C33.7,111.1,33.8,111.8,34,112.4z M8.5,90.2L6,87.8v1.4l0.9,0.9 C7.5,90.1,8,90.2,8.5,90.2z M6,53.5L75.4,119h1.5L6,52.2V53.5z M6,56.8L71.9,119h1.5L6,55.4V56.8z M6,50.3L78.8,119h1.5L6,48.9 V50.3z M6,39.2v1.4L89.1,119h1.5L6,39.2z M6,47.1L82.2,119h1.5L6,45.7V47.1z M32.3,107.5L44.4,119h1.5l-15.1-14.2 C31.4,105.7,31.8,106.6,32.3,107.5z M6,43.8L85.7,119h1.5L6,42.4V43.8z M6,60l62.5,59h1.5L6,58.6V60z M6,76.2L51.3,119h1.5 L6,74.9V76.2z M6,79.5L47.9,119h1.5L6,78.1V79.5z M6,63.3L65,119h1.5L6,61.9V63.3z M6,73l48.7,46h1.5L6,71.6V73z M6,66.5 L61.6,119h1.5L6,65.1V66.5z M6,69.7L58.2,119h1.5L6,68.4V69.7z" class="st2"/><path d="M14.9,119h-1c-0.5-4.2-3.8-7.5-7.9-7.9v-1C10.7,110.5,14.5,114.3,14.9,119z M6,115.1v1 c1.4,0.4,2.5,1.5,2.9,2.9h1C9.5,117,8,115.5,6,115.1z M6,105.1v1c6.9,0.5,12.5,6,12.9,12.9h1C19.5,111.5,13.5,105.5,6,105.1z M6,100.1v1c9.7,0.5,17.4,8.3,17.9,17.9h1C24.4,108.8,16.2,100.6,6,100.1z M6,90v1c15.2,0.5,27.5,12.8,28,28h1 C34.5,103.2,21.8,90.5,6,90z M6,95v1c12.4,0.5,22.5,10.5,23,23h1C29.5,106,19,95.5,6,95z" class="st2"/></g><g class="st3"><polyline points="-40.1 89.1 66.1 -46 70.1 9.8 -36.1 145" class="st4"/><line x1="66.3" x2="-39.9" y1="-42.5" y2="92.6" class="st5"/><line x1="66.6" x2="-39.6" y1="-39" y2="96.1" class="st5"/><line x1="66.8" x2="-39.4" y1="-35.5" y2="99.6" class="st5"/><line x1="67.1" x2="-39.1" y1="-32.1" y2="103.1" class="st5"/><line x1="67.3" x2="-38.9" y1="-28.6" y2="106.6" class="st5"/><line x1="67.6" x2="-38.6" y1="-25.1" y2="110.1" class="st5"/><line x1="67.8" x2="-38.4" y1="-21.6" y2="113.6" class="st5"/><line x1="68.1" x2="-38.1" y1="-18.1" y2="117.1" class="st5"/><line x1="68.4" x2="-37.8" y1="-14.6" y2="120.6" class="st5"/><line x1="68.6" x2="-37.6" y1="-11.1" y2="124.1" class="st5"/><line x1="68.9" x2="-37.3" y1="-7.6" y2="127.5" class="st5"/><line x1="69.1" x2="-37.1" y1="-4.1" y2="131" class="st5"/><line x1="69.4" x2="-36.8" y1="-.6" y2="134.5" class="st5"/><line x1="69.6" x2="-36.6" y1="2.9" y2="138" class="st5"/><line x1="69.9" x2="-36.3" y1="6.3" y2="141.5" class="st5"/></g><g class="st3"><g class="st6"><circle cx="5" cy="0" r="29.5"/><path d="M5-29c16,0,29,13,29,29S21,29,5,29S-24,16-24,0S-11-29,5-29 M5-30c-16.6,0-30,13.4-30,30s13.4,30,30,30 S35,16.6,35,0S21.6-30,5-30L5-30z" class="st7"/></g><g class="st6"><circle cx="5" cy="0" r="24.5"/><path d="M5-24c13.2,0,24,10.8,24,24S18.2,24,5,24S-19,13.2-19,0S-8.2-24,5-24 M5-25C-8.8-25-20-13.8-20,0 S-8.8,25,5,25S30,13.8,30,0S18.8-25,5-25L5-25z" class="st7"/></g><g class="st6"><circle cx="5" cy="0" r="19.5"/><path d="M5-19c10.5,0,19,8.5,19,19S15.5,19,5,19s-19-8.5-19-19S-5.5-19,5-19 M5-20c-11.1,0-20,8.9-20,20 s8.9,20,20,20s20-8.9,20-20S16-20,5-20L5-20z" class="st7"/></g><g class="st6"><circle cx="5" cy="0" r="14.5"/><path d="M5-14c7.7,0,14,6.3,14,14S12.7,14,5,14S-9,7.7-9,0S-2.7-14,5-14 M5-15c-8.3,0-15,6.7-15,15s6.7,15,15,15 S20,8.3,20,0S13.3-15,5-15L5-15z" class="st7"/></g><g class="st6"><circle cx="5" cy="0" r="9.5"/><path d="M5-9c5,0,9,4,9,9s-4,9-9,9s-9-4-9-9S0-9,5-9 M5-10C-0.5-10-5-5.5-5,0s4.5,10,10,10S15,5.5,15,0 S10.5-10,5-10L5-10z" class="st7"/></g><g class="st6"><circle cx="5" cy="0" r="4.5"/><path d="M5-4c2.2,0,4,1.8,4,4S7.2,4,5,4S1,2.2,1,0S2.8-4,5-4 M5-5C2.2-5,0-2.8,0,0s2.2,5,5,5s5-2.2,5-5S7.8-5,5-5 L5-5z" class="st7"/></g></g><g class="st3"><path d="M92.5,29.9C77.5,28.6,65.7,16.4,65,1.3l-7.2-6.8l-56-1l68.5,64.7L92.5,29.9z" class="st6"/><path d="M90.5,32.4l-3.8-3.6c0.7,0.2,1.3,0.4,2,0.5l2.5,2.3L90.5,32.4z M92.5,29.9c-0.5,0-1-0.1-1.4-0.1l0.9,0.9 L92.5,29.9z M70.6,57.7L3.1-6.1l2,0l66.4,62.7l0.6-0.8L6.6-6l2,0l64.3,60.7l0.6-0.8L10.1-5.9l2,0l62.3,58.8l0.6-0.8l-61.4-58 l2,0l60.3,56.9l0.6-0.8L17.1-5.8l2,0l58.2,55l0.6-0.8L20.6-5.8l2,0l56.2,53l0.6-0.8L24.1-5.7l2,0l54.2,51.1l0.6-0.8L27.6-5.6 l2,0l52.1,49.2l0.6-0.8L31.1-5.6l2,0l50.1,47.3l0.6-0.8L34.6-5.5l2,0l48,45.3l0.6-0.8L38.1-5.4l2,0l46,43.4l0.6-0.8L41.6-5.4 l2,0l44,41.5l0.6-0.8L45.1-5.3l2,0L69.6,16c-0.6-0.9-1.1-1.9-1.6-2.9L48.6-5.2l2,0L66.7,10c-0.2-0.6-0.4-1.3-0.6-2l-14-13.2l2,0 L65.5,5.7c-0.1-0.5-0.2-1.1-0.3-1.6l-9.7-9.2l2,0L65.1,2c0-0.5-0.1-1-0.1-1.4l-7-6.6l-57.5-1L70,58.5L70.6,57.7z M89.6,33.5 l-6.2-5.8c-1-0.4-2-0.9-3-1.5l8.5,8.1L89.6,33.5z" class="st8"/></g><g class="st3"><g class="st6"><circle cx="95" cy="0" r="29.5"/><path d="M95-29c16,0,29,13,29,29s-13,29-29,29S66,16,66,0S79-29,95-29 M95-30C78.4-30,65-16.6,65,0s13.4,30,30,30 s30-13.4,30-30S111.6-30,95-30L95-30z" class="st7"/></g><g class="st6"><circle cx="95" cy="0" r="24.5"/><path d="M95-24c13.2,0,24,10.8,24,24s-10.8,24-24,24S71,13.2,71,0S81.8-24,95-24 M95-25C81.2-25,70-13.8,70,0 s11.2,25,25,25s25-11.2,25-25S108.8-25,95-25L95-25z" class="st7"/></g><g class="st6"><circle cx="95" cy="0" r="19.5"/><path d="M95-19c10.5,0,19,8.5,19,19s-8.5,19-19,19S76,10.5,76,0S84.5-19,95-19 M95-20c-11.1,0-20,8.9-20,20 s8.9,20,20,20s20-8.9,20-20S106.1-20,95-20L95-20z" class="st7"/></g><g class="st6"><circle cx="95" cy="0" r="14.5"/><path d="M95-14c7.7,0,14,6.3,14,14s-6.3,14-14,14S81,7.7,81,0S87.3-14,95-14 M95-15c-8.3,0-15,6.7-15,15 s6.7,15,15,15s15-6.7,15-15S103.3-15,95-15L95-15z" class="st7"/></g><g class="st6"><circle cx="95" cy="0" r="9.5"/><path d="M95-9c5,0,9,4,9,9s-4,9-9,9s-9-4-9-9S90-9,95-9 M95-10c-5.5,0-10,4.5-10,10s4.5,10,10,10s10-4.5,10-10 S100.5-10,95-10L95-10z" class="st7"/></g><g class="st6"><circle cx="95" cy="0" r="4.5"/><path d="M95-4c2.2,0,4,1.8,4,4s-1.8,4-4,4s-4-1.8-4-4S92.8-4,95-4 M95-5c-2.8,0-5,2.2-5,5s2.2,5,5,5s5-2.2,5-5 S97.8-5,95-5L95-5z" class="st7"/></g></g><path d="M50,46c7.7,0,14,6.3,14,14s-6.3,14-14,14s-14-6.3-14-14S42.3,46,50,46 M50,45c-8.3,0-15,6.7-15,15 s6.7,15,15,15s15-6.7,15-15S58.3,45,50,45L50,45z M50,51c5,0,9,4,9,9s-4,9-9,9s-9-4-9-9S45,51,50,51 M50,50c-5.5,0-10,4.5-10,10 s4.5,10,10,10s10-4.5,10-10S55.5,50,50,50L50,50z M50,56c2.2,0,4,1.8,4,4s-1.8,4-4,4s-4-1.8-4-4S47.8,56,50,56 M50,55 c-2.8,0-5,2.2-5,5s2.2,5,5,5s5-2.2,5-5S52.8,55,50,55L50,55z" class="st9"/><path d="M94,1v118H6V1H94 M95,0H5v120h90V0L95,0z" class="st2"/></g></g></g></svg>