<?xml version="1.0" encoding="utf-8"?>
<!-- Generator: Adobe Illustrator 27.4.1, SVG Export Plug-In . SVG Version: 6.00 Build 0)  -->
<svg version="1.1" id="Layer_1" xmlns="http://www.w3.org/2000/svg" xmlns:xlink="http://www.w3.org/1999/xlink" x="0px" y="0px"
	 viewBox="0 0 100 120" style="enable-background:new 0 0 100 120;" xml:space="preserve">
<style type="text/css">
	.st0{clip-path:url(#SVGID_00000096761381274242141050000011113709265447925898_);}
	.st1{display:none;fill:#00FF00;}
	.st2{fill:#3C3C00;}
</style>
<g>
	<defs>
		<rect id="SVGID_1_" x="5" width="90" height="120"/>
	</defs>
	<clipPath id="SVGID_00000156554585151070696230000015815584243995204509_">
		<use xlink:href="#SVGID_1_"  style="overflow:visible;"/>
	</clipPath>
	<g style="clip-path:url(#SVGID_00000156554585151070696230000015815584243995204509_);">
		<rect class="st1" width="100" height="120"/>
		<g>
			<path class="st2" d="M69.6,16L53.7,1h1.5L68,13.1C68.5,14.1,69,15.1,69.6,16z M66.1,8.1L58.6,1h-1.5l9.5,9
				C66.5,9.4,66.3,8.7,66.1,8.1z M85.2,39.1L44.9,1h-1.5l41.2,38.9L85.2,39.1z M65.3,4l-3.2-3h-1.5l4.9,4.7
				C65.4,5.1,65.4,4.6,65.3,4z M88.2,35.4L51.8,1h-1.5l37.2,35.2L88.2,35.4z M86.7,37.2L48.3,1h-1.5L86,38L86.7,37.2z M65,1h-1l1,1
				C65.1,1.7,65,1.3,65,1z M91.1,31.6l-2.5-2.3c-0.7-0.1-1.3-0.3-2-0.5l3.8,3.6L91.1,31.6z M92.5,29.9c-0.5,0-1-0.1-1.5-0.2l0.9,0.9
				L92.5,29.9z M89.6,33.5l-6.2-5.8c-1-0.4-2-0.9-3-1.4l8.5,8L89.6,33.5z M70.6,57.7L10.5,1H9.1L70,58.5L70.6,57.7z M75,52.1L20.8,1
				h-1.5l55,51.9L75,52.1z M73.5,54L17.4,1H16l57,53.8L73.5,54z M76.5,50.3L24.3,1h-1.5l53,50.1L76.5,50.3z M72.1,55.8L14,1h-1.5
				l58.9,55.6L72.1,55.8z M82.3,42.8L38,1h-1.5l45.1,42.6L82.3,42.8z M83.8,41L41.5,1H40l43.2,40.7L83.8,41z M77.9,48.4L27.7,1h-1.5
				l51,48.2L77.9,48.4z M80.9,44.7L34.6,1h-1.5l47.1,44.5L80.9,44.7z M79.4,46.5L31.2,1h-1.5l49.1,46.3L79.4,46.5z"/>
			<path class="st2" d="M85.1,1h1c0.5,4.2,3.8,7.5,7.9,7.9v1C89.3,9.5,85.5,5.7,85.1,1z M94,4.9v-1c-1.4-0.4-2.5-1.5-2.9-2.9h-1
				C90.5,3,92,4.5,94,4.9z M94,14.9v-1c-6.9-0.5-12.5-6-12.9-12.9h-1C80.5,8.5,86.5,14.5,94,14.9z M94,19.9v-1
				C84.3,18.4,76.6,10.7,76.1,1h-1C75.6,11.2,83.8,19.4,94,19.9z M92.5,29.9l0.8-1C78.4,28,66.5,15.9,66,1h-1
				C65.5,16.3,77.4,28.6,92.5,29.9z M94,25v-1C81.6,23.5,71.5,13.4,71,1h-1C70.5,14,81,24.5,94,25z"/>
		</g>
		<g>
			<path class="st2" d="M63.5,93.5L94,54.7v1.6L64.2,94.2L63.5,93.5z M60.8,90.9L94,48.6V47L60.1,90.2L60.8,90.9z M62.5,92.5
				l31.5-40v-1.6l-32.2,41L62.5,92.5z M65.9,95.8L94,60.1v-1.6L65.2,95.1L65.9,95.8z M67.7,97.4L94,63.9v-1.6L66.9,96.7L67.7,97.4z
				 M59.1,89.3L94,44.8v-1.6L58.3,88.6L59.1,89.3z M53.9,84.4l40.1-51v-1.6l-40.8,52L53.9,84.4z M51.5,82.1l0.7,0.7L94,29.6V28
				L51.5,82.1z M69.4,99L94,67.7v-1.6L68.7,98.3L69.4,99z M55.6,86L94,37.2v-1.6L54.9,85.3L55.6,86z M57.3,87.7L94,41v-1.6L56.6,87
				L57.3,87.7z M71.1,100.7L94,71.5v-1.6L70.4,100L71.1,100.7z M83.8,92.2l10.2-13v-1.6L81.8,93C82.5,92.7,83.1,92.4,83.8,92.2z
				 M78.7,94.8L94,75.3v-1.6L75.7,97.1C76.6,96.3,77.6,95.5,78.7,94.8z M87.8,90.9L94,83v-1.6l-7.8,10C86.7,91.2,87.2,91,87.8,90.9z
				 M91.3,90.2l2.7-3.4v-1.6l-4.1,5.3C90.3,90.4,90.8,90.3,91.3,90.2z M94,90v-1l-0.8,1.1C93.4,90,93.7,90,94,90z"/>
			<path class="st2" d="M94,105.1v1c-4.4,0.3-8.3,2.7-10.6,6.2l-0.7-0.7C85.2,107.9,89.3,105.4,94,105.1z M86.3,115l0.8,0.7
				c1.4-2.5,3.9-4.3,6.9-4.7v-1C90.7,110.4,87.9,112.3,86.3,115z M79,108.1l0.7,0.7c3.3-4.4,8.4-7.4,14.3-7.7v-1
				C87.8,100.4,82.4,103.5,79,108.1z M71.7,101.2l0.7,0.7C77.5,95.5,85.3,91.3,94,91v-1C85,90.3,77,94.6,71.7,101.2z M75.3,104.6
				l0.8,0.7c4.2-5.4,10.6-9,17.9-9.3v-1C86.4,95.3,79.7,99,75.3,104.6z M90.2,118.7l0.3,0.3h0.6c0.4-1.4,1.5-2.5,2.9-2.9v-1
				C92.2,115.5,90.7,116.9,90.2,118.7z"/>
		</g>
		<g>
			<path class="st2" d="M34.9,118.4l0.7,0.6H35C35,118.8,35,118.6,34.9,118.4z M10.1,86.5l5.8,5.5c1,0.4,1.9,0.9,2.8,1.3l-8-7.6
				L10.1,86.5z M7.3,90.1c0.4,0,0.8,0.1,1.2,0.1l-0.7-0.7L7.3,90.1z M8.6,88.4l2.3,2.2c0.7,0.1,1.3,0.3,2,0.5l-3.7-3.5L8.6,88.4z
				 M20.3,73.5L68.5,119H70L20.9,72.7L20.3,73.5z M18.8,75.4L65,119h1.5l-47-44.4L18.8,75.4z M24.7,67.9L78.8,119h1.5l-55-51.9
				L24.7,67.9z M23.2,69.8L75.4,119h1.5L23.8,69L23.2,69.8z M21.8,71.7L71.9,119h1.5l-51-48.1L21.8,71.7z M26.1,66.1L82.2,119h1.5
				L26.8,65.3L26.1,66.1z M29.7,61.6l-0.6,0.8l60,56.6h1.5L29.7,61.6z M27.6,64.2L85.7,119h1.5L28.3,63.4L27.6,64.2z M34,112.4
				l7,6.6h1.5l-9-8.5C33.7,111.1,33.8,111.8,34,112.4z M32.3,107.5L44.4,119h1.5l-15.1-14.2C31.4,105.7,31.8,106.6,32.3,107.5z
				 M11.5,84.7L47.9,119h1.5L12.2,83.9L11.5,84.7z M34.8,116.3l2.8,2.7H39l-4.5-4.2C34.6,115.3,34.7,115.8,34.8,116.3z M15.9,79.1
				L58.2,119h1.5L16.5,78.3L15.9,79.1z M13,82.8L51.3,119h1.5L13.6,82.1L13,82.8z M17.4,77.2L61.6,119h1.5L18,76.4L17.4,77.2z
				 M14.4,81l40.3,38h1.5L15.1,80.2L14.4,81z"/>
			<path class="st2" d="M14.9,119h-1c-0.5-4.2-3.8-7.5-7.9-7.9v-1C10.7,110.5,14.5,114.3,14.9,119z M6,115.1v1
				c1.4,0.4,2.5,1.5,2.9,2.9h1C9.5,117,8,115.5,6,115.1z M6,105.1v1c6.9,0.5,12.5,6,12.9,12.9h1C19.5,111.5,13.5,105.5,6,105.1z
				 M6,100.1v1c9.7,0.5,17.4,8.3,17.9,17.9h1C24.4,108.8,16.2,100.6,6,100.1z M6,90v1c15.2,0.5,27.5,12.8,28,28h1
				C34.5,103.2,21.8,90.5,6,90z M6,95v1c12.4,0.5,22.5,10.5,23,23h1C29.5,106,19,95.5,6,95z"/>
		</g>
		<g>
			<path class="st2" d="M31.1,21.7L6,53.7V52l24.3-31L31.1,21.7z M39,29.2L6,71.1v1.6l33.7-42.9L39,29.2z M37.2,27.6L6,67.3v1.6
				l32-40.7L37.2,27.6z M33.8,24.3L6,59.7v1.6L34.5,25L33.8,24.3z M32,22.7L6,55.8v1.6l26.8-34.1L32,22.7z M35.5,26L6,63.6v1.6
				l30.3-38.5L35.5,26z M40.7,30.8L6,74.9v1.6l35.4-45L40.7,30.8z M47.5,37.3L6,90.1v1.6L48.2,38L47.5,37.3z M45.8,35.7L6,86.4V88
				l40.6-51.6L45.8,35.7z M44.1,34L6,82.5v1.6l38.8-49.4L44.1,34z M42.4,32.4L6,78.8v1.6l37.1-47.2L42.4,32.4z M20.9,25.5L6,44.4V46
				l17.8-22.6C22.8,24.2,21.9,24.8,20.9,25.5z M28.6,19.4L6,48.2v1.6l23.3-29.7L28.6,19.4z M15.9,28L6,40.6v1.6l11.8-15.1
				C17.2,27.4,16.6,27.7,15.9,28z M8.5,29.8L6,32.9v1.6l3.9-5C9.4,29.7,8.9,29.7,8.5,29.8z M12,29.2l-6,7.6v1.6l7.6-9.7
				C13.1,28.9,12.5,29,12,29.2z M6,30v0.8l0.7-0.8C6.4,29.9,6.2,30,6,30z"/>
			<path class="st2" d="M6,9.9v-1c2.9-0.3,5.4-2,6.8-4.4l0.7,0.7C11.9,7.8,9.2,9.6,6,9.9z M9.7,1.6L9.1,1H8.9C8.5,2.4,7.4,3.5,6,3.9
				v1C7.8,4.6,9.2,3.3,9.7,1.6z M17.2,8.7L16.5,8c-2.4,3.4-6.1,5.7-10.5,6v1C10.6,14.6,14.7,12.2,17.2,8.7z M20.9,12.1l-0.7-0.7
				c-3.3,4.3-8.4,7.2-14.1,7.5v1C12.1,19.7,17.4,16.7,20.9,12.1z M27.5,18.3C22.3,24.6,14.6,28.7,6,29v1c9-0.3,16.9-4.5,22.2-10.9
				L27.5,18.3z M24.5,15.6l-0.8-0.7C19.6,20.2,13.2,23.7,6,24v1C13.5,24.7,20.2,21.1,24.5,15.6z"/>
		</g>
		<path class="st2" d="M50,46c7.7,0,14,6.3,14,14s-6.3,14-14,14s-14-6.3-14-14S42.3,46,50,46 M50,45c-8.3,0-15,6.7-15,15
			s6.7,15,15,15s15-6.7,15-15S58.3,45,50,45L50,45z M50,51c5,0,9,4,9,9s-4,9-9,9s-9-4-9-9S45,51,50,51 M50,50c-5.5,0-10,4.5-10,10
			s4.5,10,10,10s10-4.5,10-10S55.5,50,50,50L50,50z M50,56c2.2,0,4,1.8,4,4s-1.8,4-4,4s-4-1.8-4-4S47.8,56,50,56 M50,55
			c-2.8,0-5,2.2-5,5s2.2,5,5,5s5-2.2,5-5S52.8,55,50,55L50,55z"/>
		<path class="st2" d="M94,1v118H6V1H94 M95,0H5v120h90V0L95,0z"/>
	</g>
</g>
</svg>
