<?xml version="1.0" encoding="utf-8"?>
<!-- Generator: Adobe Illustrator 27.4.1, SVG Export Plug-In . SVG Version: 6.00 Build 0)  -->
<svg version="1.1" id="Layer_1" xmlns="http://www.w3.org/2000/svg" xmlns:xlink="http://www.w3.org/1999/xlink" x="0px" y="0px"
	 viewBox="0 0 66 48" style="enable-background:new 0 0 66 48;" xml:space="preserve">
<style type="text/css">
	.st0{display:none;}
	.st1{fill:#3C3C00;}
	.st2{fill:#1E1E00;}
	.st3{fill:#141400;}
</style>
<rect x="-0.1" class="st0" width="66.1" height="48"/>
<g>
	<path class="st1" d="M5,42.2L5,42.2c0-2.3,1.9-4.1,4.2-4.1s4.1,1.8,4.1,4.1l0,0c0-2.3,1.8-4.1,4.1-4.1s4.1,1.8,4.1,4.1l0,0
		c0-2.3,1.8-4.1,4.1-4.1s4.1,1.8,4.1,4.1l0,0c0-2.3,1.8-4.1,4.1-4.1s4.1,1.8,4.1,4.1l0,0c0-2.3,1.8-4.1,4.1-4.1s4.1,1.8,4.1,4.1l0,0
		c0-2.3,1.8-4.1,4.1-4.1c2.3,0,4.1,1.8,4.1,4.1l0,0c0-2.3,1.8-4.1,4.1-4.1c2.3,0,4.1,1.8,4.1,4.1l0,0c0-2,1.4-3.6,3.3-4V9.5
		c-1.8-0.4-3.2-2-3.2-4l0,0c0,2.3-1.8,4.1-4.1,4.1s-4.1-1.8-4.1-4.1l0,0c0,2.3-1.8,4.1-4.1,4.1s-4.1-1.8-4.1-4.1h-0.1
		c0,2.3-1.8,4.1-4.1,4.1S38,7.8,38,5.5l0,0c0,2.3-1.8,4.1-4.1,4.1s-4.1-1.8-4.1-4.1l0,0c0,2.3-1.8,4.1-4.1,4.1
		c-2.3,0-4.1-1.8-4.1-4.1l0,0c0,2.3-1.8,4.1-4.1,4.1s-4.1-1.8-4.1-4.1l0,0c0,2.3-1.8,4.1-4.1,4.1S5,7.8,5,5.5l0,0
		c0,2.3-1.8,4.1-4.1,4.1c-0.3,0-0.6,0-0.9-0.1v28.7c0.3-0.1,0.6-0.1,0.9-0.1C3.1,38.1,5,39.9,5,42.2z"/>
	<circle class="st2" cx="38" cy="16.3" r="7.5"/>
	<circle class="st2" cx="13.1" cy="31.4" r="7.5"/>
	<path class="st3" d="M13.2,44.9c34.5,0,41.6-10.3,47.9-19.4c1.5-2.1,3-4.3,4.9-6.3v-8.1l-1.6,1.3c-3.6,3-6,6.4-8.2,9.6
		c-5.9,8.5-11.5,16.5-41.3,16.8c-0.3,0-0.6,0-1.1,0c-0.2,0-0.4,0-0.6,0c-4.1,0-7.5-3.4-7.5-7.5s3.4-7.5,7.5-7.5c0.1,0,0.3,0,0.4,0
		c0.2,0,0.5,0,0.7,0c5.9,0.1,7.7,1.2,9.7,2.5c2.5,1.6,5.4,3.4,14,3.4c7.4,0,13.5-6.1,13.5-13.5s-6-13.4-13.5-13.4
		C19.9,2.8,8,5.4,0,11.3v7.9l1.7-1.5C6.3,13.6,14.5,9,37,8.8c0.2,0,0.3,0,0.6,0H38c4.1,0,7.5,3.4,7.5,7.5s-3.4,7.5-7.5,7.5
		c-0.1,0-0.4,0-0.6,0c-6.4-0.1-8.2-1.2-10.3-2.5c-2.5-1.6-5.4-3.4-13.9-3.4c-6.5,0-12,4.7-13.2,10.9V34C1.2,40.2,6.7,44.9,13.2,44.9
		z"/>
	<path class="st1" d="M37.5,7.8h0.4c4.7,0,8.5,3.8,8.5,8.5s-3.8,8.5-8.5,8.5c-0.1,0-0.4,0-0.6,0c-6.7-0.1-8.6-1.3-10.8-2.6
		c-2.4-1.5-5.1-3.2-13.4-3.2C6.3,19,0.7,24.6,0.7,31.5S6.3,44,13.2,44c34,0,40.6-9.6,47.1-18.9c1.7-2.4,3.4-4.9,5.7-7.1v-5.4
		c-4,3.1-6.5,6.7-9,10.2C51.2,31,45.3,39.6,14.9,39.9c-0.2,0-0.5,0-1,0c-0.2,0-0.4,0-0.6,0c-4.7,0-8.5-3.8-8.5-8.5s3.8-8.5,8.5-8.5
		c0.1,0,0.3,0,0.5,0c0.3,0,0.5,0,0.6,0c6.2,0.1,8.1,1.3,10.2,2.6c2.4,1.5,5.1,3.3,13.4,3.3c6.9,0,12.5-5.6,12.5-12.5
		S44.8,3.8,37.9,3.8C17,3.8,6.5,7.5,0,12.5v5.4C5.7,12.4,15.1,8,37,7.8C37.1,7.8,37.3,7.8,37.5,7.8z"/>
	<path class="st3" d="M38,6.3c5.5,0,10,4.5,10,10s-4.5,10-10,10c-0.2,0-0.6,0-0.6,0c-7.1-0.1-9.3-1.4-11.6-2.9
		c-2.4-1.5-4.8-3-12.6-3l0,0c-6.1,0-11,4.9-11,11s4.9,11,11,11c33.2,0,39.7-9.3,45.9-18.3c2-2.9,4-5.7,6.9-8.3v-1.4
		c-3.4,2.8-5.6,6-7.8,9.1c-6,8.6-12.2,17.6-43.5,17.9c-0.1,0-1.1,0-1.5,0c-5.5,0-10-4.5-10-10s4.5-10,10-10c0.3,0,1,0,1.1,0
		c6.7,0.1,8.8,1.4,11,2.8c2.4,1.5,4.8,3,12.7,3l0,0c6.1,0,11-4.9,11-11s-4.9-11-11-11c-21.5,0-31.8,3.9-38,9.1v1.3
		c6-5.3,15.8-9.4,37.1-9.5C37.1,6.3,37.8,6.3,38,6.3z"/>
</g>
</svg>
