<?xml version="1.0" encoding="utf-8"?>
<!-- Generator: Adobe Illustrator 27.4.1, SVG Export Plug-In . SVG Version: 6.00 Build 0)  -->
<svg version="1.1" id="Layer_1" xmlns="http://www.w3.org/2000/svg" xmlns:xlink="http://www.w3.org/1999/xlink" x="0px" y="0px"
	 viewBox="0 0 66 48" style="enable-background:new 0 0 66 48;" xml:space="preserve">
<style type="text/css">
	.st0{display:none;}
	.st1{opacity:0.4;}
	.st2{fill:#454F51;}
	.st3{fill:#283234;}
	.st4{fill:#788284;}
</style>
<rect x="-0.05" class="st0" width="66.1" height="48"/>
<g class="st1">
	<path class="st2" d="M5.02,42.17L5.02,42.17c0-2.3,1.91-4.09,4.21-4.09s4.11,1.8,4.11,4.09l0,0c0-2.3,1.81-4.09,4.11-4.09
		s4.11,1.8,4.11,4.09l0,0c0-2.3,1.81-4.09,4.11-4.09s4.11,1.8,4.11,4.09l0,0c0-2.3,1.81-4.09,4.11-4.09s4.11,1.8,4.11,4.09l0,0
		c0-2.3,1.81-4.09,4.11-4.09s4.11,1.8,4.11,4.09l0,0c0-2.3,1.81-4.09,4.11-4.09c2.31,0,4.11,1.8,4.11,4.09l0,0
		c0-2.3,1.81-4.09,4.11-4.09c2.31,0,4.11,1.8,4.11,4.09l0,0c0-2,1.4-3.59,3.31-3.99V9.52c-1.81-0.4-3.21-2-3.21-3.99l0,0
		c0,2.3-1.81,4.09-4.11,4.09s-4.11-1.8-4.11-4.09l0,0c0,2.3-1.81,4.09-4.11,4.09s-4.11-1.8-4.11-4.09h-0.1
		c0,2.3-1.81,4.09-4.11,4.09s-4.11-1.8-4.11-4.09l0,0c0,2.3-1.81,4.09-4.11,4.09s-4.11-1.8-4.11-4.09l0,0c0,2.3-1.81,4.09-4.11,4.09
		c-2.31,0-4.11-1.8-4.11-4.09l0,0c0,2.3-1.81,4.09-4.11,4.09s-4.11-1.8-4.11-4.09l0,0c0,2.3-1.81,4.09-4.11,4.09
		s-4.21-1.8-4.21-4.09l0,0c0,2.3-1.81,4.09-4.11,4.09c-0.3,0-0.6,0-0.9-0.1v28.66c0.3-0.1,0.6-0.1,0.9-0.1
		C3.11,38.08,5.02,39.88,5.02,42.17z"/>
	<circle class="st3" cx="37.95" cy="16.3" r="7.5"/>
	<circle class="st3" cx="13.15" cy="31.4" r="7.5"/>
	<path d="M13.18,44.87c34.45,0,41.64-10.28,47.93-19.37c1.5-2.1,3-4.29,4.89-6.29v-8.09l-1.6,1.3c-3.59,3-5.99,6.39-8.19,9.59
		c-5.89,8.49-11.48,16.48-41.34,16.77c-0.3,0-0.6,0-1.1,0c-0.2,0-0.4,0-0.6,0c-4.09,0-7.49-3.39-7.49-7.49s3.39-7.49,7.49-7.49
		c0.1,0,0.3,0,0.4,0c0.2,0,0.5,0,0.7,0c5.89,0.1,7.69,1.2,9.69,2.5c2.5,1.6,5.39,3.39,13.98,3.39c7.39,0,13.48-6.09,13.48-13.48
		S45.43,2.83,37.94,2.83C19.87,2.83,7.99,5.43,0,11.32v7.89l1.7-1.5c4.59-4.09,12.78-8.69,35.35-8.89c0.2,0,0.3,0,0.6,0h0.4
		c4.09,0,7.49,3.39,7.49,7.49s-3.39,7.49-7.49,7.49c-0.1,0-0.4,0-0.6,0c-6.39-0.1-8.19-1.2-10.28-2.5c-2.5-1.6-5.39-3.39-13.88-3.39
		C6.79,17.91,1.3,22.6,0.1,28.79v5.19C1.2,40.18,6.69,44.87,13.18,44.87z"/>
	<path class="st4" d="M37.54,7.82h0.4c4.69,0,8.49,3.79,8.49,8.49s-3.79,8.49-8.49,8.49c-0.1,0-0.4,0-0.6,0
		c-6.69-0.1-8.59-1.3-10.78-2.6c-2.4-1.5-5.09-3.2-13.38-3.2C6.29,19.01,0.7,24.6,0.7,31.49s5.59,12.48,12.48,12.48
		c33.95,0,40.64-9.59,47.13-18.87c1.7-2.4,3.39-4.89,5.69-7.09v-5.39c-3.99,3.1-6.49,6.69-8.99,10.18
		c-5.79,8.19-11.68,16.77-42.14,17.07c-0.2,0-0.5,0-1,0c-0.2,0-0.4,0-0.6,0c-4.69,0-8.49-3.79-8.49-8.49s3.79-8.49,8.49-8.49
		c0.1,0,0.3,0,0.5,0c0.3,0,0.5,0,0.6,0c6.19,0.1,8.09,1.3,10.18,2.6c2.4,1.5,5.09,3.3,13.38,3.3c6.89,0,12.48-5.59,12.48-12.48
		S44.83,3.83,37.94,3.83C16.97,3.83,6.49,7.52,0,12.52v5.39c5.69-5.49,15.08-9.89,37.04-10.08C37.14,7.82,37.34,7.82,37.54,7.82z"/>
	<path d="M38,6.3c5.5,0,10,4.5,10,10s-4.5,10-10,10c-0.2,0-0.6,0-0.6,0c-7.1-0.1-9.3-1.4-11.6-2.9c-2.4-1.5-4.8-3-12.6-3l0,0
		c-6.1,0-11,4.9-11,11s4.9,11,11,11c33.2,0,39.7-9.3,45.9-18.3c2-2.9,4-5.7,6.9-8.3v-1.4c-3.4,2.8-5.6,6-7.8,9.1
		c-6,8.6-12.2,17.6-43.5,17.9c-0.1,0-1.1,0-1.5,0c-5.5,0-10-4.5-10-10s4.5-10,10-10c0.3,0,1,0,1.1,0c6.7,0.1,8.8,1.4,11,2.8
		c2.4,1.5,4.8,3,12.7,3l0,0c6.1,0,11-4.9,11-11s-4.9-11-11-11c-21.5,0-31.8,3.9-38,9.1v1.3c6-5.3,15.8-9.4,37.1-9.5
		C37.1,6.3,37.8,6.3,38,6.3z"/>
</g>
</svg>
