<?xml version="1.0" encoding="utf-8"?>
<!-- Generator: Adobe Illustrator 27.4.1, SVG Export Plug-In . SVG Version: 6.00 Build 0)  -->
<svg version="1.1" id="Layer_1" xmlns="http://www.w3.org/2000/svg" xmlns:xlink="http://www.w3.org/1999/xlink" x="0px" y="0px"
	 viewBox="0 0 299.95 66.67" style="enable-background:new 0 0 299.95 66.67;" xml:space="preserve">
<style type="text/css">
	.st0{fill:none;stroke:#404040;stroke-width:0.5;stroke-miterlimit:10;}
</style>
<g>
	<line class="st0" x1="-0.02" y1="33.42" x2="299.98" y2="33.42"/>
	<line class="st0" x1="-0.02" y1="31.42" x2="299.98" y2="31.42"/>
	<line class="st0" x1="-0.02" y1="35.42" x2="299.98" y2="35.42"/>
</g>
<g>
	<line class="st0" x1="-0.03" y1="66.67" x2="299.98" y2="66.67"/>
	<line class="st0" x1="-0.03" y1="64.67" x2="299.98" y2="64.67"/>
</g>
<line class="st0" x1="-0.02" y1="2.08" x2="299.98" y2="2.08"/>
<line class="st0" x1="-0.03" y1="0" x2="299.98" y2="0"/>
<g>
	<line class="st0" x1="149.97" y1="2.25" x2="149.97" y2="31.25"/>
	<line class="st0" x1="151.75" y1="2.25" x2="151.75" y2="31.25"/>
	<line class="st0" x1="153.53" y1="2.25" x2="153.53" y2="31.25"/>
	<line class="st0" x1="148.2" y1="2.25" x2="148.2" y2="31.25"/>
	<line class="st0" x1="146.42" y1="2.25" x2="146.42" y2="31.25"/>
</g>
<g>
	<line class="st0" x1="0" y1="2.42" x2="0" y2="31.42"/>
	<line class="st0" x1="1.77" y1="2.42" x2="1.77" y2="31.42"/>
	<line class="st0" x1="3.55" y1="2.42" x2="3.55" y2="31.42"/>
</g>
<g>
	<line class="st0" x1="74.98" y1="35.58" x2="74.98" y2="64.58"/>
	<line class="st0" x1="76.75" y1="35.58" x2="76.75" y2="64.58"/>
	<line class="st0" x1="78.53" y1="35.58" x2="78.53" y2="64.58"/>
	<line class="st0" x1="73.2" y1="35.58" x2="73.2" y2="64.58"/>
	<line class="st0" x1="71.42" y1="35.58" x2="71.42" y2="64.58"/>
</g>
<g>
	<line class="st0" x1="224.98" y1="35.58" x2="224.98" y2="64.58"/>
	<line class="st0" x1="226.75" y1="35.58" x2="226.75" y2="64.58"/>
	<line class="st0" x1="228.53" y1="35.58" x2="228.53" y2="64.58"/>
	<line class="st0" x1="223.2" y1="35.58" x2="223.2" y2="64.58"/>
	<line class="st0" x1="221.42" y1="35.58" x2="221.42" y2="64.58"/>
</g>
<g>
	<line class="st0" x1="299.99" y1="2.42" x2="299.99" y2="31.42"/>
	<line class="st0" x1="298.22" y1="2.42" x2="298.22" y2="31.42"/>
	<line class="st0" x1="296.44" y1="2.42" x2="296.44" y2="31.42"/>
</g>
<g>
	<polyline class="st0" points="18.72,2.25 4.23,16.75 18.72,31.24 	"/>
	<polyline class="st0" points="21.22,2.25 6.73,16.75 21.22,31.24 	"/>
	<polyline class="st0" points="23.72,2.25 9.23,16.75 23.72,31.24 	"/>
	<polyline class="st0" points="25.97,2.25 11.48,16.75 25.97,31.24 	"/>
	<polyline class="st0" points="28.47,2.25 13.98,16.75 28.47,31.24 	"/>
	<polyline class="st0" points="30.97,2.25 16.48,16.75 30.97,31.24 	"/>
	<polyline class="st0" points="33.22,2.25 18.72,16.75 33.22,31.24 	"/>
	<polyline class="st0" points="35.72,2.25 21.22,16.75 35.72,31.24 	"/>
	<polyline class="st0" points="38.22,2.25 23.72,16.75 38.22,31.24 	"/>
	<polyline class="st0" points="40.47,2.25 25.97,16.75 40.47,31.24 	"/>
	<polyline class="st0" points="42.97,2.25 28.47,16.75 42.97,31.24 	"/>
	<polyline class="st0" points="45.47,2.25 30.97,16.75 45.47,31.24 	"/>
	<polyline class="st0" points="48.23,2.25 33.74,16.75 48.23,31.24 	"/>
	<polyline class="st0" points="50.73,2.25 36.24,16.75 50.73,31.24 	"/>
	<polyline class="st0" points="53.23,2.25 38.74,16.75 53.23,31.24 	"/>
	<polyline class="st0" points="55.48,2.25 40.98,16.75 55.48,31.24 	"/>
	<polyline class="st0" points="57.98,2.25 43.48,16.75 57.98,31.24 	"/>
	<polyline class="st0" points="60.48,2.25 45.98,16.75 60.48,31.24 	"/>
	<polyline class="st0" points="62.73,2.25 48.23,16.75 62.73,31.24 	"/>
	<polyline class="st0" points="65.23,2.25 50.73,16.75 65.23,31.24 	"/>
	<polyline class="st0" points="67.73,2.25 53.23,16.75 67.73,31.24 	"/>
	<polyline class="st0" points="69.98,2.25 55.48,16.75 69.97,31.24 	"/>
	<polyline class="st0" points="72.48,2.25 57.98,16.75 72.47,31.24 	"/>
</g>
<g>
	<polyline class="st0" points="131.51,31.24 146,16.75 131.51,2.25 	"/>
	<polyline class="st0" points="129.01,31.24 143.5,16.75 129.01,2.25 	"/>
	<polyline class="st0" points="126.51,31.24 141,16.75 126.51,2.25 	"/>
	<polyline class="st0" points="124.26,31.24 138.75,16.75 124.26,2.25 	"/>
	<polyline class="st0" points="121.76,31.24 136.25,16.75 121.76,2.25 	"/>
	<polyline class="st0" points="119.26,31.24 133.75,16.75 119.26,2.25 	"/>
	<polyline class="st0" points="117.01,31.24 131.51,16.75 117.01,2.25 	"/>
	<polyline class="st0" points="114.51,31.24 129.01,16.75 114.51,2.25 	"/>
	<polyline class="st0" points="112.01,31.24 126.51,16.75 112.01,2.25 	"/>
	<polyline class="st0" points="109.76,31.24 124.26,16.75 109.76,2.25 	"/>
	<polyline class="st0" points="107.26,31.24 121.76,16.75 107.26,2.25 	"/>
	<polyline class="st0" points="104.76,31.24 119.26,16.75 104.76,2.25 	"/>
	<polyline class="st0" points="102,31.24 116.49,16.75 102,2.25 	"/>
	<polyline class="st0" points="99.5,31.24 113.99,16.75 99.5,2.25 	"/>
	<polyline class="st0" points="97,31.24 111.49,16.75 97,2.25 	"/>
	<polyline class="st0" points="94.75,31.24 109.24,16.75 94.75,2.25 	"/>
	<polyline class="st0" points="92.25,31.24 106.74,16.75 92.25,2.25 	"/>
	<polyline class="st0" points="89.75,31.24 104.24,16.75 89.75,2.25 	"/>
	<polyline class="st0" points="87.5,31.24 102,16.75 87.5,2.25 	"/>
	<polyline class="st0" points="85,31.24 99.5,16.75 85,2.25 	"/>
	<polyline class="st0" points="82.5,31.24 97,16.75 82.5,2.25 	"/>
	<polyline class="st0" points="80.25,31.24 94.75,16.75 80.25,2.25 	"/>
	<polyline class="st0" points="77.75,31.24 92.25,16.75 77.75,2.25 	"/>
</g>
<g>
	<polyline class="st0" points="168.58,2.25 154.09,16.75 168.58,31.24 	"/>
	<polyline class="st0" points="171.08,2.25 156.59,16.75 171.08,31.24 	"/>
	<polyline class="st0" points="173.58,2.25 159.09,16.75 173.58,31.24 	"/>
	<polyline class="st0" points="175.83,2.25 161.34,16.75 175.83,31.24 	"/>
	<polyline class="st0" points="178.33,2.25 163.84,16.75 178.33,31.24 	"/>
	<polyline class="st0" points="180.83,2.25 166.34,16.75 180.83,31.24 	"/>
	<polyline class="st0" points="183.08,2.25 168.58,16.75 183.08,31.24 	"/>
	<polyline class="st0" points="185.58,2.25 171.08,16.75 185.58,31.24 	"/>
	<polyline class="st0" points="188.08,2.25 173.58,16.75 188.08,31.24 	"/>
	<polyline class="st0" points="190.33,2.25 175.83,16.75 190.33,31.24 	"/>
	<polyline class="st0" points="192.83,2.25 178.33,16.75 192.83,31.24 	"/>
	<polyline class="st0" points="195.33,2.25 180.83,16.75 195.33,31.24 	"/>
	<polyline class="st0" points="198.09,2.25 183.6,16.75 198.09,31.24 	"/>
	<polyline class="st0" points="200.59,2.25 186.1,16.75 200.59,31.24 	"/>
	<polyline class="st0" points="203.09,2.25 188.6,16.75 203.09,31.24 	"/>
	<polyline class="st0" points="205.34,2.25 190.85,16.75 205.34,31.24 	"/>
	<polyline class="st0" points="207.84,2.25 193.35,16.75 207.84,31.24 	"/>
	<polyline class="st0" points="210.34,2.25 195.85,16.75 210.34,31.24 	"/>
	<polyline class="st0" points="212.59,2.25 198.09,16.75 212.59,31.24 	"/>
	<polyline class="st0" points="215.09,2.25 200.59,16.75 215.09,31.24 	"/>
	<polyline class="st0" points="217.59,2.25 203.09,16.75 217.59,31.24 	"/>
	<polyline class="st0" points="219.84,2.25 205.34,16.75 219.84,31.24 	"/>
	<polyline class="st0" points="222.34,2.25 207.84,16.75 222.34,31.24 	"/>
</g>
<g>
	<polyline class="st0" points="281.37,31.24 295.86,16.75 281.37,2.25 	"/>
	<polyline class="st0" points="278.87,31.24 293.36,16.75 278.87,2.25 	"/>
	<polyline class="st0" points="276.37,31.24 290.86,16.75 276.37,2.25 	"/>
	<polyline class="st0" points="274.12,31.24 288.61,16.75 274.12,2.25 	"/>
	<polyline class="st0" points="271.62,31.24 286.11,16.75 271.62,2.25 	"/>
	<polyline class="st0" points="269.12,31.24 283.61,16.75 269.12,2.25 	"/>
	<polyline class="st0" points="266.87,31.24 281.37,16.75 266.87,2.25 	"/>
	<polyline class="st0" points="264.37,31.24 278.87,16.75 264.37,2.25 	"/>
	<polyline class="st0" points="261.87,31.24 276.37,16.75 261.87,2.25 	"/>
	<polyline class="st0" points="259.62,31.24 274.12,16.75 259.62,2.25 	"/>
	<polyline class="st0" points="257.12,31.24 271.62,16.75 257.12,2.25 	"/>
	<polyline class="st0" points="254.62,31.24 269.12,16.75 254.62,2.25 	"/>
	<polyline class="st0" points="251.86,31.24 266.35,16.75 251.86,2.25 	"/>
	<polyline class="st0" points="249.36,31.24 263.85,16.75 249.36,2.25 	"/>
	<polyline class="st0" points="246.86,31.24 261.35,16.75 246.86,2.25 	"/>
	<polyline class="st0" points="244.61,31.24 259.11,16.75 244.61,2.25 	"/>
	<polyline class="st0" points="242.11,31.24 256.61,16.75 242.11,2.25 	"/>
	<polyline class="st0" points="239.61,31.24 254.11,16.75 239.61,2.25 	"/>
	<polyline class="st0" points="237.36,31.24 251.86,16.75 237.36,2.25 	"/>
	<polyline class="st0" points="234.86,31.24 249.36,16.75 234.86,2.25 	"/>
	<polyline class="st0" points="232.36,31.24 246.86,16.75 232.36,2.25 	"/>
	<polyline class="st0" points="230.11,31.24 244.61,16.75 230.12,2.25 	"/>
	<polyline class="st0" points="227.61,31.24 242.11,16.75 227.62,2.25 	"/>
</g>
<g>
	<polyline class="st0" points="93.58,35.59 79.09,50.08 93.58,64.58 	"/>
	<polyline class="st0" points="96.08,35.59 81.59,50.08 96.08,64.58 	"/>
	<polyline class="st0" points="98.58,35.59 84.09,50.08 98.58,64.58 	"/>
	<polyline class="st0" points="100.83,35.59 86.34,50.08 100.83,64.58 	"/>
	<polyline class="st0" points="103.33,35.59 88.84,50.08 103.33,64.58 	"/>
	<polyline class="st0" points="105.83,35.59 91.34,50.08 105.83,64.58 	"/>
	<polyline class="st0" points="108.08,35.59 93.58,50.08 108.08,64.58 	"/>
	<polyline class="st0" points="110.58,35.59 96.08,50.08 110.58,64.58 	"/>
	<polyline class="st0" points="113.08,35.59 98.58,50.08 113.08,64.58 	"/>
	<polyline class="st0" points="115.33,35.59 100.83,50.08 115.33,64.58 	"/>
	<polyline class="st0" points="117.83,35.59 103.33,50.08 117.83,64.58 	"/>
	<polyline class="st0" points="120.33,35.59 105.83,50.08 120.33,64.58 	"/>
	<polyline class="st0" points="123.09,35.59 108.6,50.08 123.09,64.58 	"/>
	<polyline class="st0" points="125.59,35.59 111.1,50.08 125.59,64.58 	"/>
	<polyline class="st0" points="128.09,35.59 113.6,50.08 128.09,64.58 	"/>
	<polyline class="st0" points="130.34,35.59 115.85,50.08 130.34,64.58 	"/>
	<polyline class="st0" points="132.84,35.59 118.35,50.08 132.84,64.58 	"/>
	<polyline class="st0" points="135.34,35.59 120.85,50.08 135.34,64.58 	"/>
	<polyline class="st0" points="137.59,35.59 123.09,50.08 137.59,64.58 	"/>
	<polyline class="st0" points="140.09,35.59 125.59,50.08 140.09,64.58 	"/>
	<polyline class="st0" points="142.59,35.59 128.09,50.08 142.59,64.58 	"/>
	<polyline class="st0" points="144.84,35.59 130.34,50.08 144.84,64.58 	"/>
	<polyline class="st0" points="147.34,35.59 132.84,50.08 147.34,64.58 	"/>
</g>
<g>
	<polyline class="st0" points="243.35,35.59 228.85,50.08 243.35,64.58 	"/>
	<polyline class="st0" points="245.85,35.59 231.35,50.08 245.85,64.58 	"/>
	<polyline class="st0" points="248.35,35.59 233.85,50.08 248.35,64.58 	"/>
	<polyline class="st0" points="250.59,35.59 236.1,50.08 250.59,64.58 	"/>
	<polyline class="st0" points="253.09,35.59 238.6,50.08 253.09,64.58 	"/>
	<polyline class="st0" points="255.59,35.59 241.1,50.08 255.59,64.58 	"/>
	<polyline class="st0" points="257.84,35.59 243.35,50.08 257.84,64.58 	"/>
	<polyline class="st0" points="260.34,35.59 245.85,50.08 260.34,64.58 	"/>
	<polyline class="st0" points="262.84,35.59 248.35,50.08 262.84,64.58 	"/>
	<polyline class="st0" points="265.09,35.59 250.59,50.08 265.09,64.58 	"/>
	<polyline class="st0" points="267.59,35.59 253.09,50.08 267.59,64.58 	"/>
	<polyline class="st0" points="270.09,35.59 255.59,50.08 270.09,64.58 	"/>
	<polyline class="st0" points="272.86,35.59 258.36,50.08 272.85,64.58 	"/>
	<polyline class="st0" points="275.36,35.59 260.86,50.08 275.35,64.58 	"/>
	<polyline class="st0" points="277.86,35.59 263.36,50.08 277.85,64.58 	"/>
	<polyline class="st0" points="280.1,35.59 265.61,50.08 280.1,64.58 	"/>
	<polyline class="st0" points="282.6,35.59 268.11,50.08 282.6,64.58 	"/>
	<polyline class="st0" points="285.1,35.59 270.61,50.08 285.1,64.58 	"/>
	<polyline class="st0" points="287.35,35.59 272.86,50.08 287.35,64.58 	"/>
	<polyline class="st0" points="289.85,35.59 275.36,50.08 289.85,64.58 	"/>
	<polyline class="st0" points="292.35,35.59 277.86,50.08 292.35,64.58 	"/>
	<polyline class="st0" points="294.6,35.59 280.1,50.08 294.6,64.58 	"/>
	<polyline class="st0" points="297.1,35.59 282.6,50.08 297.1,64.58 	"/>
</g>
<g>
	<polyline class="st0" points="206.37,64.58 220.86,50.08 206.37,35.59 	"/>
	<polyline class="st0" points="203.87,64.58 218.36,50.08 203.87,35.59 	"/>
	<polyline class="st0" points="201.37,64.58 215.86,50.08 201.37,35.59 	"/>
	<polyline class="st0" points="199.12,64.58 213.61,50.08 199.12,35.59 	"/>
	<polyline class="st0" points="196.62,64.58 211.11,50.08 196.62,35.59 	"/>
	<polyline class="st0" points="194.12,64.58 208.61,50.08 194.12,35.59 	"/>
	<polyline class="st0" points="191.87,64.58 206.37,50.08 191.87,35.59 	"/>
	<polyline class="st0" points="189.37,64.58 203.87,50.08 189.37,35.59 	"/>
	<polyline class="st0" points="186.87,64.58 201.37,50.08 186.87,35.59 	"/>
	<polyline class="st0" points="184.62,64.58 199.12,50.08 184.62,35.59 	"/>
	<polyline class="st0" points="182.12,64.58 196.62,50.08 182.12,35.59 	"/>
	<polyline class="st0" points="179.62,64.58 194.12,50.08 179.62,35.59 	"/>
	<polyline class="st0" points="176.86,64.58 191.35,50.08 176.86,35.59 	"/>
	<polyline class="st0" points="174.36,64.58 188.85,50.08 174.36,35.59 	"/>
	<polyline class="st0" points="171.86,64.58 186.35,50.08 171.86,35.59 	"/>
	<polyline class="st0" points="169.61,64.58 184.11,50.08 169.61,35.59 	"/>
	<polyline class="st0" points="167.11,64.58 181.61,50.08 167.11,35.59 	"/>
	<polyline class="st0" points="164.61,64.58 179.11,50.08 164.61,35.59 	"/>
	<polyline class="st0" points="162.36,64.58 176.86,50.08 162.36,35.59 	"/>
	<polyline class="st0" points="159.86,64.58 174.36,50.08 159.86,35.59 	"/>
	<polyline class="st0" points="157.36,64.58 171.86,50.08 157.36,35.59 	"/>
	<polyline class="st0" points="155.11,64.58 169.61,50.08 155.12,35.59 	"/>
	<polyline class="st0" points="152.61,64.58 167.11,50.08 152.62,35.59 	"/>
</g>
<g>
	<polyline class="st0" points="56.6,64.58 71.1,50.08 56.6,35.59 	"/>
	<polyline class="st0" points="54.1,64.58 68.6,50.08 54.1,35.59 	"/>
	<polyline class="st0" points="51.6,64.58 66.1,50.08 51.6,35.59 	"/>
	<polyline class="st0" points="49.36,64.58 63.85,50.08 49.36,35.59 	"/>
	<polyline class="st0" points="46.86,64.58 61.35,50.08 46.86,35.59 	"/>
	<polyline class="st0" points="44.36,64.58 58.85,50.08 44.36,35.59 	"/>
	<polyline class="st0" points="42.11,64.58 56.6,50.08 42.11,35.59 	"/>
	<polyline class="st0" points="39.61,64.58 54.1,50.08 39.61,35.59 	"/>
	<polyline class="st0" points="37.11,64.58 51.6,50.08 37.11,35.59 	"/>
	<polyline class="st0" points="34.86,64.58 49.36,50.08 34.86,35.59 	"/>
	<polyline class="st0" points="32.36,64.58 46.86,50.08 32.36,35.59 	"/>
	<polyline class="st0" points="29.86,64.58 44.36,50.08 29.86,35.59 	"/>
	<polyline class="st0" points="27.09,64.58 41.59,50.08 27.1,35.59 	"/>
	<polyline class="st0" points="24.59,64.58 39.09,50.08 24.6,35.59 	"/>
	<polyline class="st0" points="22.09,64.58 36.59,50.08 22.1,35.59 	"/>
	<polyline class="st0" points="19.85,64.58 34.34,50.08 19.85,35.59 	"/>
	<polyline class="st0" points="17.35,64.58 31.84,50.08 17.35,35.59 	"/>
	<polyline class="st0" points="14.85,64.58 29.34,50.08 14.85,35.59 	"/>
	<polyline class="st0" points="12.6,64.58 27.09,50.08 12.6,35.59 	"/>
	<polyline class="st0" points="10.1,64.58 24.59,50.08 10.1,35.59 	"/>
	<polyline class="st0" points="7.6,64.58 22.09,50.08 7.6,35.59 	"/>
	<polyline class="st0" points="5.35,64.58 19.85,50.08 5.35,35.59 	"/>
	<polyline class="st0" points="2.85,64.58 17.35,50.08 2.85,35.59 	"/>
</g>
</svg>
